SplineFontDB: 3.0
FontName: SPHanuman-BoldOblique
FullName: SP Hanuman Bold Oblique
FamilyName: SP Hanuman
Weight: Bold
Copyright: Copyright (c) 2006 by Department of Intellectual Property (DIP), Ministry of Commerce and Software Industry Promotion Agency (Public Organization) (SIPA). All rights reserved.
Version: 2.1
ItalicAngle: -10
UnderlinePosition: -35
UnderlineWidth: 30
Ascent: 800
Descent: 200
LayerCount: 2
Layer: 0 0 "Back" 
Layer: 1 0 "Fore" 
NeedsXUIDChange: 1
XUID: [1021 375 425136265 7870191]
FSType: 0
OS2Version: 3
OS2_WeightWidthSlopeOnly: 0
OS2_UseTypoMetrics: 1
CreationTime: 1158373020
ModificationTime: 1211190853
PfmFamily: 17
TTFWeight: 700
TTFWidth: 5
LineGap: 60
VLineGap: 0
Panose: 2 0 5 6 0 0 0 2 0 4
OS2TypoAscent: 0
OS2TypoAOffset: 1
OS2TypoDescent: 0
OS2TypoDOffset: 1
OS2TypoLinegap: 0
OS2WinAscent: -5
OS2WinAOffset: 1
OS2WinDescent: -231
OS2WinDOffset: 1
HheadAscent: -5
HheadAOffset: 1
HheadDescent: 231
HheadDOffset: 1
OS2SubXSize: 700
OS2SubYSize: 650
OS2SubXOff: 0
OS2SubYOff: 140
OS2SupXSize: 700
OS2SupYSize: 650
OS2SupXOff: 0
OS2SupYOff: 477
OS2StrikeYSize: 30
OS2StrikeYPos: 250
OS2FamilyClass: 773
OS2Vendor: 'ipth'
Lookup: 4 0 0 "'frac' Diagonal Fractions in Latin lookup 0"  {"'frac' Diagonal Fractions in Latin lookup 0 subtable"  } ['frac' ('latn' <'dflt' > ) ]
Lookup: 6 0 0 "'liga' Standard Ligatures in Latin lookup 1"  {"'liga' Standard Ligatures in Latin lookup 1 subtable"  } ['liga' ('latn' <'dflt' > ) ]
Lookup: 6 0 0 "'liga' Standard Ligatures in Latin lookup 2"  {"'liga' Standard Ligatures in Latin lookup 2 subtable"  } ['liga' ('latn' <'dflt' > ) ]
Lookup: 6 0 0 "'liga' Standard Ligatures in Latin lookup 3"  {"'liga' Standard Ligatures in Latin lookup 3 subtable"  } ['liga' ('latn' <'dflt' > ) ]
Lookup: 6 0 0 "'liga' Standard Ligatures in Latin lookup 4"  {"'liga' Standard Ligatures in Latin lookup 4 subtable"  } ['liga' ('latn' <'dflt' > ) ]

StartChar: .notdef
Encoding: 65536 -1 0
Width: 576
VWidth: 1533
Flags: W
HStem: 2 56<120 471> 724 59<239 589>
LayerCount: 2
Fore
SplineSet
0 2 m 1
 138 783 l 1
 714 783 l 1
 576 2 l 1
 0 2 l 1
589 724 m 1
 239 724 l 1
 366 458 l 1
 589 724 l 1
311 389 m 1
 187 649 l 1
 97 133 l 1
 311 389 l 1
120 58 m 1
 471 58 l 1
 343 324 l 1
 120 58 l 1
397 389 m 1
 524 129 l 1
 616 650 l 1
 397 389 l 1
EndSplineSet
EndChar

StartChar: numbersign
Encoding: 35 35 4
Width: 772
VWidth: 1533
Flags: W
HStem: 0 21G<195 291.603 397 495.507> 209 65<151 262 376 465 578 678> 412 68<218 329 442 533 645 743>
LayerCount: 2
Fore
SplineSet
623 412 m 1
 578 274 l 1
 689 274 l 1
 678 209 l 1
 557 209 l 1
 489 0 l 1
 397 0 l 1
 465 209 l 1
 354 209 l 1
 285 0 l 1
 195 0 l 1
 262 209 l 1
 140 209 l 1
 151 274 l 1
 284 274 l 1
 329 412 l 1
 206 412 l 1
 218 480 l 1
 350 480 l 1
 417 687 l 1
 509 687 l 1
 442 480 l 1
 553 480 l 1
 621 687 l 1
 711 687 l 1
 645 480 l 1
 755 480 l 1
 743 412 l 1
 623 412 l 1
421 412 m 1
 376 274 l 1
 486 274 l 1
 533 412 l 1
 421 412 l 1
EndSplineSet
EndChar

StartChar: dollar
Encoding: 36 36 5
Width: 778
VWidth: 1533
Flags: W
HStem: 17 60<316.122 369 446 517.168> 616 60<406.899 485 562 597.92>
VStem: 115 132<142.271 229.25 227.5 231 231 239> 195 130<381.694 546.376> 617 129<167.121 347.797> 662 126<491 557.66>
LayerCount: 2
Fore
SplineSet
413 77 m 0xe8
 534 77 617 143 617 213 c 0xe8
 617 338 195 291 195 472 c 0
 195 512 222 656 485 676 c 1
 502 771 l 1
 579 771 l 1
 562 675 l 1
 724 657 772 566 788 491 c 1
 662 491 l 1
 653 561 613 616 506 616 c 0
 382 616 325 549 325 505 c 0xd4
 325 402 746 443 746 251 c 0
 746 204 722 48 446 18 c 1
 428 -83 l 1
 351 -83 l 1
 369 17 l 1
 240 25 115 87 115 223 c 0
 115 228 116 234 116 239 c 1
 249 239 l 1
 248 231 247 224 247 216 c 0
 247 144 297 77 413 77 c 0xe8
EndSplineSet
EndChar

StartChar: percent
Encoding: 37 37 6
Width: 841
VWidth: 1533
Flags: W
HStem: -2 57<588.523 686.247> 282 55<231.555 329.402> 351 55<631.912 731.281> 633 57<275.99 374.937>
VStem: 119 100<356.93 498.28> 388 99<471.938 614.722> 476 99<72.3702 210.248> 745 98<187.355 331.189>
LayerCount: 2
Fore
SplineSet
476 163 m 0xfb
 476 287 578 406 696 406 c 0
 780 406 843 339 843 243 c 0
 843 112 733 -2 624 -2 c 0
 529 -2 476 76 476 163 c 0xfb
236 -17 m 1
 146 -17 l 1
 722 705 l 1
 814 705 l 1
 236 -17 l 1
119 444 m 0
 119 569 222 690 340 690 c 0
 422 690 487 623 487 527 c 0xfd
 487 397 377 282 268 282 c 0
 181 282 119 350 119 444 c 0
634 55 m 256
 696 55 721 111 737 202 c 256
 742 230 745 254 745 275 c 0
 745 323 729 351 686 351 c 0
 624 351 598 292 583 202 c 256
 578 174 575 150 575 130 c 0xfb
 575 82 591 55 634 55 c 256
277 337 m 256
 338 337 363 393 380 486 c 256
 385 515 388 539 388 560 c 0xfd
 388 607 372 633 330 633 c 0
 268 633 243 577 227 486 c 256
 222 457 219 431 219 410 c 0
 219 363 234 337 277 337 c 256
EndSplineSet
EndChar

StartChar: ampersand
Encoding: 38 38 7
Width: 838
VWidth: 1533
Flags: W
HStem: -21 59<305.057 444.664> 627 60<407.123 515.804>
VStem: 91 138<108.666 224.012> 256 113<455.639 555.861> 534 114<495.358 609.451>
LayerCount: 2
Fore
SplineSet
627 181 m 1
 660 238 678 295 678 371 c 1
 810 371 l 1
 787 267 744 194 685 133 c 1
 709 116 736 94 764 70 c 2
 845 -2 l 1
 659 -2 l 1
 631 15 624 27 585 51 c 1
 538 20 457 -21 341 -21 c 0
 157 -21 91 58 91 141 c 0
 91 275 232 336 292 363 c 1
 274 390 256 428 256 472 c 0
 256 569 352 687 494 687 c 0
 566 687 648 651 648 572 c 0
 648 450 499 387 454 368 c 1
 516 287 579 223 627 181 c 1
459 627 m 0
 429 627 369 596 369 526 c 0
 369 495 380 465 417 417 c 1
 453 434 534 474 534 560 c 0
 534 598 508 627 459 627 c 0
333 311 m 1
 297 293 229 258 229 178 c 0
 229 98 306 38 378 38 c 0
 400 38 454 39 537 94 c 1
 468 157 396 234 333 311 c 1
EndSplineSet
EndChar

StartChar: quotesingle
Encoding: 39 39 8
Width: 259
VWidth: 1533
Flags: W
HStem: 386 351<207.641 217>
VStem: 188 118<653.067 664 664 676.385 676.385 717.113>
LayerCount: 2
Fore
SplineSet
188 664 m 2
 188 686 202 737 259 737 c 256
 293 737 309 717 309 689 c 0
 309 679 306 669 306 664 c 1
 217 386 l 1
 177 386 l 1
 188 664 l 2
EndSplineSet
EndChar

StartChar: parenleft
Encoding: 40 40 9
Width: 354
VWidth: 1533
Flags: W
HStem: 719 20G<261.5 427>
VStem: 90 105<-20.6736 182.07>
LayerCount: 2
Fore
SplineSet
218 258 m 0
 202 166 195 96 195 38 c 0
 195 -65 218 -131 258 -224 c 1
 199 -224 l 1
 111 -73 90 47 90 137 c 0
 90 187 97 227 102 258 c 256
 119 354 155 512 368 739 c 1
 427 739 l 1
 326 600 262 506 218 258 c 0
EndSplineSet
EndChar

StartChar: parenright
Encoding: 41 41 10
Width: 354
VWidth: 1533
Flags: W
HStem: 719 20G<187 290>
VStem: 247 108<323.58 535.787>
LayerCount: 2
Fore
SplineSet
247 739 m 1
 333 588 355 470 355 381 c 0
 355 332 348 291 342 258 c 256
 327 170 296 15 78 -224 c 1
 18 -224 l 1
 136 -72 181 1 226 258 c 0
 241 342 247 409 247 464 c 0
 247 603 209 667 187 739 c 1
 247 739 l 1
EndSplineSet
EndChar

StartChar: asterisk
Encoding: 42 42 11
Width: 558
VWidth: 1533
Flags: W
HStem: 324 390<335 411 335 335>
VStem: 149 444<520 520 520 520>
LayerCount: 2
Fore
SplineSet
416 500 m 1
 532 394 l 1
 411 324 l 1
 363 474 l 1
 261 324 l 1
 164 394 l 1
 318 500 l 1
 149 520 l 1
 210 636 l 1
 349 557 l 1
 335 714 l 1
 471 714 l 1
 400 553 l 1
 572 636 l 1
 593 520 l 1
 416 500 l 1
EndSplineSet
EndChar

StartChar: plus
Encoding: 43 43 12
Width: 719
VWidth: 1533
Flags: W
HStem: 0 21G<310 412.506> 251 80<110 354 467 711>
LayerCount: 2
Fore
SplineSet
453 251 m 1
 409 0 l 1
 310 0 l 1
 354 251 l 1
 96 251 l 1
 110 331 l 1
 368 331 l 1
 412 581 l 1
 511 581 l 1
 467 331 l 1
 725 331 l 1
 711 251 l 1
 453 251 l 1
EndSplineSet
EndChar

StartChar: comma
Encoding: 44 44 13
Width: 403
VWidth: 1533
Flags: W
HStem: -144 265<130 214 214 214>
VStem: 125 152<-1.60534 89.125>
LayerCount: 2
Fore
SplineSet
125 40 m 0
 125 63 151 121 214 121 c 0
 263 121 277 89 277 55 c 0
 277 -25 206 -112 130 -144 c 1
 113 -115 l 1
 129 -108 191 -77 208 -11 c 1
 201 -13 193 -15 186 -15 c 0
 157 -15 125 6 125 40 c 0
EndSplineSet
EndChar

StartChar: hyphen
Encoding: 45 45 14
Width: 492
VWidth: 1533
Flags: W
HStem: 261 84<84 515 84 515 84 84>
LayerCount: 2
Fore
SplineSet
515 261 m 1
 69 261 l 1
 84 345 l 1
 530 345 l 1
 515 261 l 1
EndSplineSet
EndChar

StartChar: period
Encoding: 46 46 15
Width: 407
VWidth: 1533
Flags: W
HStem: -12 141<170.418 256.383>
VStem: 142 143<15.8258 99.8124>
LayerCount: 2
Fore
SplineSet
142 45 m 0
 142 91 180 129 227 129 c 256
 264 129 285 106 285 73 c 0
 285 26 248 -12 202 -12 c 256
 165 -12 142 11 142 45 c 0
EndSplineSet
EndChar

StartChar: slash
Encoding: 47 47 16
Width: 361
VWidth: 1533
Flags: W
HStem: -23 21G<-27 84.6316> 717 20G<403.368 515>
LayerCount: 2
Fore
SplineSet
73 -23 m 1
 -27 -23 l 1
 415 737 l 1
 515 737 l 1
 73 -23 l 1
EndSplineSet
EndChar

StartChar: zero
Encoding: 48 48 17
Width: 722
VWidth: 1533
Flags: W
HStem: -11 62<290.019 459.102> 647 61<386.133 554.747>
VStem: 87 126<159.719 399.387> 632 124<296.181 541.126>
LayerCount: 2
Fore
SplineSet
87 278 m 0
 87 487 258 708 485 708 c 256
 657 708 756 583 756 422 c 0
 756 216 591 -11 358 -11 c 256
 186 -11 87 120 87 278 c 0
474 647 m 0
 271 647 213 372 213 247 c 0
 213 89 302 51 369 51 c 0
 579 51 632 333 632 447 c 0
 632 555 593 647 474 647 c 0
EndSplineSet
EndChar

StartChar: one
Encoding: 49 49 18
Width: 722
VWidth: 1533
Flags: W
HStem: 0 21G<308 435.536> 541 58<242 397.674> 687 20G<449 557>
VStem: 231 326<541 707 541 541>
LayerCount: 2
Fore
SplineSet
242 599 m 1
 393 599 419 616 479 707 c 1
 557 707 l 1
 432 0 l 1
 308 0 l 1
 403 541 l 1
 231 541 l 1
 242 599 l 1
EndSplineSet
EndChar

StartChar: two
Encoding: 50 50 19
Width: 722
VWidth: 1533
Flags: W
HStem: 0 97<193 667> 644 58<361.929 547.715>
VStem: 613 127<428.768 581>
LayerCount: 2
Fore
SplineSet
466 702 m 0
 599 702 740 652 740 517 c 0
 740 406 663 313 482 240 c 2
 363 194 l 2
 249 150 214 125 193 97 c 1
 684 97 l 1
 667 0 l 1
 41 0 l 1
 105 198 298 246 452 320 c 2
 505 348 l 2
 528 361 613 411 613 506 c 0
 613 575 568 644 456 644 c 0
 360 644 258 581 233 455 c 1
 105 455 l 1
 156 616 301 702 466 702 c 0
EndSplineSet
EndChar

StartChar: three
Encoding: 51 51 20
Width: 722
VWidth: 1533
Flags: W
HStem: -11 60<270.243 464.341> 336 63<354.993 520.357> 644 58<384.879 564.902>
VStem: 74 126<122.734 216.977 216.977 224 224 236> 159 126<509.662 583.784> 600 127<161.203 283.891> 616 128<474.398 598.097>
LayerCount: 2
Fore
SplineSet
402 399 m 0xf4
 527 399 616 457 616 537 c 0
 616 580 590 644 470 644 c 0
 377 644 312 582 285 478 c 1
 159 478 l 1
 198 626 331 702 480 702 c 0
 594 702 744 667 744 548 c 0xea
 744 479 699 414 610 376 c 1
 668 359 727 319 727 240 c 0
 727 89 559 -11 349 -11 c 0
 186 -11 74 71 74 224 c 0
 74 236 l 1
 203 236 l 1
 201 223 200 210 200 198 c 0
 200 98 272 49 360 49 c 0
 487 49 600 138 600 227 c 0
 600 284 549 336 416 336 c 0
 383 336 350 333 314 327 c 1
 327 405 l 1
 354 401 378 399 402 399 c 0xf4
EndSplineSet
EndChar

StartChar: four
Encoding: 52 52 21
Width: 722
VWidth: 1533
Flags: W
HStem: 0 21G<388 517.55> 169 73<186 419 557 674> 687 20G<574.663 639>
LayerCount: 2
Fore
SplineSet
674 169 m 1
 544 169 l 1
 514 0 l 1
 388 0 l 1
 419 169 l 1
 56 169 l 1
 33 202 l 1
 597 707 l 1
 639 707 l 1
 557 242 l 1
 727 242 l 1
 674 169 l 1
478 504 m 1
 186 242 l 1
 432 242 l 1
 478 504 l 1
EndSplineSet
EndChar

StartChar: five
Encoding: 53 53 22
Width: 722
VWidth: 1533
Flags: W
HStem: -11 59<280.245 465.711> 389 63<333.709 515.01> 598 97<307 723>
VStem: 79 126<125.688 217.977 217.977 229 229 235> 599 130<167.237 317.002>
LayerCount: 2
Fore
SplineSet
364 48 m 0
 479 48 599 132 599 245 c 0
 599 332 523 389 414 389 c 0
 370 389 319 386 206 320 c 1
 151 336 l 1
 253 695 l 1
 776 695 l 1
 723 598 l 1
 307 598 l 1
 261 423 l 1
 294 436 360 452 437 452 c 0
 659 452 729 352 729 253 c 0
 729 71 520 -11 355 -11 c 0
 190 -11 79 73 79 229 c 0
 79 235 l 1
 208 235 l 1
 206 223 205 212 205 201 c 0
 205 101 277 48 364 48 c 0
EndSplineSet
EndChar

StartChar: six
Encoding: 54 54 23
Width: 722
VWidth: 1533
Flags: W
HStem: -11 63<287.454 475.828> 428 67<348.395 536.655> 639 63<403.583 576.671>
VStem: 86 138<148.377 295.782> 599 134<193.891 367.364>
LayerCount: 2
Fore
SplineSet
86 262 m 0
 86 434 212 702 506 702 c 0
 715 702 752 589 760 527 c 1
 636 527 l 1
 607 620 555 639 492 639 c 0
 355 639 265 506 238 409 c 1
 264 433 341 495 473 495 c 0
 632 495 733 416 733 294 c 0
 733 142 594 -11 366 -11 c 0
 190 -11 86 107 86 262 c 0
445 428 m 0
 300 428 224 312 224 196 c 0
 224 105 279 52 379 52 c 0
 528 52 599 174 599 286 c 0
 599 375 543 428 445 428 c 0
EndSplineSet
EndChar

StartChar: seven
Encoding: 55 55 24
Width: 722
VWidth: 1533
Flags: W
HStem: 0 21G<195 342.5> 599 96<200 672>
VStem: 195 132<22.913 165.03>
LayerCount: 2
Fore
SplineSet
811 695 m 1
 804 657 793 608 684 504 c 2
 557 390 l 2
 429 280 358 173 327 0 c 1
 195 0 l 1
 244 278 431 377 562 491 c 2
 627 550 l 2
 646 568 662 585 672 599 c 1
 150 599 l 1
 200 695 l 1
 811 695 l 1
EndSplineSet
EndChar

StartChar: eight
Encoding: 56 56 25
Width: 722
VWidth: 1533
Flags: W
HStem: -11 63<261.184 489.726> 650 60<367.877 578.851>
VStem: 57 138<111.276 250.578> 165 125<494.913 581.978> 609 129<155.619 261.412> 624 126<502.728 611.965>
LayerCount: 2
Fore
SplineSet
750 566 m 0xd4
 750 461 619 406 566 391 c 1
 644 378 738 330 738 240 c 0
 738 89 555 -11 355 -11 c 0
 226 -11 57 31 57 169 c 0xe8
 57 301 203 364 271 382 c 1
 220 402 165 440 165 507 c 0
 165 640 337 710 493 710 c 0
 643 710 750 653 750 566 c 0xd4
481 650 m 0
 376 650 290 605 290 538 c 0
 290 495 344 462 468 429 c 1
 531 445 624 483 624 560 c 0xd4
 624 631 538 650 481 650 c 0
363 348 m 1
 289 335 195 283 195 186 c 0
 195 125 229 52 366 52 c 0
 567 52 609 183 609 216 c 0xe8
 609 269 527 322 363 348 c 1
EndSplineSet
EndChar

StartChar: nine
Encoding: 57 57 26
Width: 722
VWidth: 1533
Flags: W
HStem: -11 63<269.174 440.399> 196 68<309.048 497.219> 639 63<366.63 556.729>
VStem: 112 134<325.459 498.331> 621 137<393.646 542.438>
LayerCount: 2
Fore
SplineSet
112 395 m 0
 112 544 243 702 478 702 c 0
 654 702 758 584 758 429 c 0
 758 253 629 -11 338 -11 c 0
 230 -11 105 19 84 164 c 1
 208 164 l 1
 237 71 289 52 352 52 c 0
 480 52 574 173 607 282 c 1
 554 236 475 196 372 196 c 0
 237 196 112 259 112 395 c 0
467 639 m 0
 312 639 246 513 246 406 c 0
 246 317 302 264 400 264 c 0
 549 264 621 384 621 495 c 0
 621 585 564 639 467 639 c 0
EndSplineSet
EndChar

StartChar: colon
Encoding: 58 58 27
Width: 400
VWidth: 1533
Flags: W
HStem: -12 141<164.448 250.582> 370 142<231.153 317.574>
VStem: 135 144<16.2708 100.286> 203 144<400.207 483.219>
LayerCount: 2
Fore
SplineSet
203 428 m 0xd0
 203 475 242 512 286 512 c 0
 321 512 347 490 347 455 c 0
 347 414 313 370 261 370 c 0
 224 370 203 395 203 428 c 0xd0
135 45 m 0xe0
 135 89 173 129 219 129 c 0
 256 129 279 106 279 72 c 0
 279 20 236 -12 194 -12 c 0
 161 -12 135 10 135 45 c 0xe0
EndSplineSet
EndChar

StartChar: semicolon
Encoding: 59 59 28
Width: 418
VWidth: 1533
Flags: W
HStem: -15 136<170.374 221.007> 370 142<245.652 330.81>
VStem: 140 152<-1.6875 89.7012> 217 144<399.925 483.603>
LayerCount: 2
Fore
SplineSet
217 428 m 0xd0
 217 480 261 512 302 512 c 0
 338 512 361 487 361 455 c 0
 361 417 328 370 277 370 c 0
 239 370 217 395 217 428 c 0xd0
140 40 m 0xe0
 140 61 163 121 230 121 c 256
 279 121 292 87 292 54 c 0
 292 -17 230 -107 144 -144 c 1
 127 -115 l 1
 144 -108 206 -77 223 -11 c 1
 216 -13 208 -15 201 -15 c 0
 172 -15 140 6 140 40 c 0xe0
EndSplineSet
EndChar

StartChar: less
Encoding: 60 60 29
Width: 720
VWidth: 1533
Flags: W
HStem: -11 21G<617.395 663.495>
LayerCount: 2
Fore
SplineSet
249 291 m 1
 678 92 l 1
 660 -11 l 1
 104 250 l 1
 118 331 l 1
 766 592 l 1
 749 491 l 1
 249 291 l 1
EndSplineSet
EndChar

StartChar: equal
Encoding: 61 61 30
Width: 719
VWidth: 1533
Flags: W
HStem: 153 74<92 694> 363 74<129 731>
LayerCount: 2
Fore
SplineSet
116 363 m 1
 129 437 l 1
 744 437 l 1
 731 363 l 1
 116 363 l 1
79 153 m 1
 92 227 l 1
 707 227 l 1
 694 153 l 1
 79 153 l 1
EndSplineSet
EndChar

StartChar: greater
Encoding: 62 62 31
Width: 720
VWidth: 1533
Flags: W
HStem: -11 21G<61.4951 107.655>
LayerCount: 2
Fore
SplineSet
58 -11 m 1
 76 92 l 1
 574 291 l 1
 147 491 l 1
 164 592 l 1
 720 331 l 1
 706 250 l 1
 58 -11 l 1
EndSplineSet
EndChar

StartChar: question
Encoding: 63 63 32
Width: 608
VWidth: 1533
Flags: W
HStem: -17 144<244.328 330.1> 681 56<341.115 484.014>
VStem: 125 126<501.364 599.067> 214 147<13.4937 97.4853> 507 143<518.553 647.67>
LayerCount: 2
Fore
SplineSet
650 566 m 0xe8
 650 357 387 398 340 181 c 1
 279 181 l 1
 281 190 281 198 282 207 c 0
 320 419 480 406 501 529 c 256
 505 552 507 573 507 591 c 0
 507 649 483 681 411 681 c 0
 308 681 267 573 251 480 c 1
 125 480 l 1
 153 641 268 737 424 737 c 0
 542 737 650 685 650 566 c 0xe8
214 41 m 0xd8
 214 89 254 127 300 127 c 256
 336 127 361 104 361 68 c 0
 361 20 318 -17 275 -17 c 256
 241 -17 214 6 214 41 c 0xd8
EndSplineSet
EndChar

StartChar: at
Encoding: 64 64 33
Width: 942
VWidth: 1533
Flags: W
HStem: -23 64<396.162 600.025> 143 59<647.342 751.25> 144 69<412.659 511.285> 495 66<564.768 645.76> 685 52<502.59 724.623>
VStem: 121 131<179.231 400.485> 341 119<215.426 348.576> 869 85<355.206 546.925>
LayerCount: 2
Fore
SplineSet
121 284 m 0xdf
 121 488 318 737 622 737 c 0
 816 737 954 630 954 467 c 0
 954 301 812 143 674 143 c 0xdf
 611 143 588 208 584 227 c 1
 520 159 480 144 437 144 c 0xbf
 361 144 341 200 341 252 c 0
 341 363 451 561 619 561 c 0
 660 561 684 540 694 498 c 1
 736 550 l 1
 824 550 l 1
 696 265 l 2
 687 246 679 229 679 217 c 0
 679 207 684 202 697 202 c 0
 771 202 869 332 869 452 c 0
 869 581 767 685 615 685 c 0
 384 685 252 447 252 286 c 0
 252 137 361 41 511 41 c 0
 601 41 685 76 748 112 c 1
 776 51 l 1
 622 -22 545 -23 503 -23 c 0
 287 -23 121 98 121 284 c 0xdf
625 495 m 0
 522 495 460 338 460 263 c 0
 460 236 468 213 495 213 c 0xbf
 548 213 649 356 649 451 c 0
 649 478 640 495 625 495 c 0
EndSplineSet
EndChar

StartChar: A
Encoding: 65 65 34
Width: 892
VWidth: 1533
Flags: W
HStem: 0 21G<8 106.899 729.464 885> 345 77<405 578> 719 20G<551.871 617.443>
LayerCount: 2
Fore
SplineSet
737 0 m 1
 607 345 l 1
 349 345 l 1
 92 0 l 1
 8 0 l 1
 567 739 l 1
 610 739 l 1
 885 0 l 1
 737 0 l 1
522 581 m 1
 405 422 l 1
 578 422 l 1
 522 581 l 1
EndSplineSet
EndChar

StartChar: B
Encoding: 66 66 35
Width: 863
VWidth: 1533
Flags: W
HStem: 0 61<215 609.221> 351 63<277 615.637> 653 61<319 654.774>
VStem: 720 135<493.715 604.597> 723 141<154.807 288.977>
LayerCount: 2
Fore
SplineSet
855 568 m 0xf0
 855 461 746 409 693 389 c 1
 840 354 864 282 864 235 c 0xe8
 864 144 799 0 434 0 c 2
 77 0 l 1
 203 714 l 1
 575 714 l 2
 759 714 855 661 855 568 c 0xf0
473 414 m 2
 666 414 720 498 720 553 c 0xf0
 720 632 616 653 512 653 c 2
 319 653 l 1
 277 414 l 1
 473 414 l 2
500 61 m 2
 601 61 723 117 723 227 c 0xe8
 723 326 612 351 462 351 c 2
 266 351 l 1
 215 61 l 1
 500 61 l 2
EndSplineSet
EndChar

StartChar: C
Encoding: 67 67 36
Width: 903
VWidth: 1533
Flags: W
HStem: -23 58<387.215 592.9> 679 60<489.606 696.072>
VStem: 95 144<188.123 416.972>
LayerCount: 2
Fore
SplineSet
606 679 m 0
 402 679 239 499 239 299 c 0
 239 150 337 35 492 35 c 0
 608 35 699 116 750 207 c 1
 902 207 l 1
 768 6 588 -23 482 -23 c 0
 245 -23 95 121 95 297 c 0
 95 510 302 739 618 739 c 0
 817 739 920 631 955 509 c 1
 801 509 l 1
 787 572 741 679 606 679 c 0
EndSplineSet
EndChar

StartChar: D
Encoding: 68 68 37
Width: 898
VWidth: 1533
Flags: W
HStem: 0 61<215 544.17> 653 61<319 646.425>
VStem: 781 146<312.069 379 379 398.085 398.085 398.323 398.204 537.229>
LayerCount: 2
Fore
SplineSet
479 714 m 2
 854 714 932 566 932 439 c 0
 932 418 930 398 927 379 c 0
 873 76 621 0 359 0 c 2
 77 0 l 1
 203 714 l 1
 479 714 l 2
385 61 m 2
 648 61 747 186 781 379 c 0
 785 401 787 422 787 442 c 0
 787 571 703 653 489 653 c 2
 319 653 l 1
 215 61 l 1
 385 61 l 2
EndSplineSet
EndChar

StartChar: E
Encoding: 69 69 38
Width: 742
VWidth: 1533
Flags: W
HStem: 0 61<213 719> 353 61<275 672> 653 61<317 834>
LayerCount: 2
Fore
SplineSet
77 0 m 1
 203 714 l 1
 845 714 l 1
 834 653 l 1
 317 653 l 1
 275 414 l 1
 683 414 l 1
 672 353 l 1
 264 353 l 1
 213 61 l 1
 730 61 l 1
 719 0 l 1
 77 0 l 1
EndSplineSet
EndChar

StartChar: F
Encoding: 70 70 39
Width: 742
VWidth: 1533
Flags: W
HStem: 0 21G<77 205.513> 353 61<275 672> 653 61<317 834>
LayerCount: 2
Fore
SplineSet
317 653 m 1
 275 414 l 1
 683 414 l 1
 672 353 l 1
 264 353 l 1
 202 0 l 1
 77 0 l 1
 203 714 l 1
 845 714 l 1
 834 653 l 1
 317 653 l 1
EndSplineSet
EndChar

StartChar: G
Encoding: 71 71 40
Width: 932
VWidth: 1533
Flags: W
HStem: -23 60<380.325 601.26> 324 62<529 776> 679 60<484.864 693.521>
VStem: 94 146<187.061 417.969>
LayerCount: 2
Fore
SplineSet
94 294 m 0
 94 541 338 739 605 739 c 0
 807 739 922 642 953 509 c 1
 801 509 l 1
 784 578 737 679 595 679 c 0
 415 679 240 511 240 295 c 0
 240 131 352 37 478 37 c 0
 627 37 727 125 744 140 c 1
 776 324 l 1
 518 324 l 1
 529 386 l 1
 913 386 l 1
 864 107 l 1
 763 25 621 -23 467 -23 c 0
 290 -23 94 89 94 294 c 0
EndSplineSet
EndChar

StartChar: H
Encoding: 72 72 41
Width: 883
VWidth: 1533
Flags: W
HStem: 0 21G<77 205.513 681 809.529> 353 61<275 743> 694 20G<199.471 328 803.467 932>
LayerCount: 2
Fore
SplineSet
806 0 m 1
 681 0 l 1
 743 353 l 1
 264 353 l 1
 202 0 l 1
 77 0 l 1
 203 714 l 1
 328 714 l 1
 275 414 l 1
 754 414 l 1
 807 714 l 1
 932 714 l 1
 806 0 l 1
EndSplineSet
EndChar

StartChar: I
Encoding: 73 73 42
Width: 279
VWidth: 1533
Flags: W
HStem: 0 21G<77 205.529> 694 20G<199.471 328>
VStem: 77 251<0 714 1.53064e-18 1.53064e-18>
LayerCount: 2
Fore
SplineSet
77 0 m 1
 203 714 l 1
 328 714 l 1
 202 0 l 1
 77 0 l 1
EndSplineSet
EndChar

StartChar: J
Encoding: 74 74 43
Width: 574
VWidth: 1533
Flags: W
HStem: -31 59<187.814 319.57> 694 20G<493.489 624>
VStem: 23 131<63 155.738 154.977 156.5 156.5 169>
LayerCount: 2
Fore
SplineSet
252 28 m 0
 324 28 388 95 408 207 c 2
 497 714 l 1
 624 714 l 1
 538 225 l 2
 507 49 366 -31 245 -31 c 0
 131 -31 23 26 23 144 c 0
 23 152 23 161 24 169 c 1
 156 169 l 1
 155 159 154 150 154 141 c 0
 154 79 182 28 252 28 c 0
EndSplineSet
EndChar

StartChar: K
Encoding: 75 75 44
Width: 807
VWidth: 1533
Flags: W
HStem: 0 21G<77 205.51 636.179 800> 694 20G<199.471 328 709.75 867>
LayerCount: 2
Fore
SplineSet
647 0 m 1
 423 414 l 1
 255 302 l 1
 202 0 l 1
 77 0 l 1
 203 714 l 1
 328 714 l 1
 271 394 l 1
 739 714 l 1
 867 714 l 1
 532 489 l 1
 800 0 l 1
 647 0 l 1
EndSplineSet
EndChar

StartChar: L
Encoding: 76 76 45
Width: 656
VWidth: 1533
Flags: W
HStem: 0 61<213 649> 694 20G<199.471 328>
LayerCount: 2
Fore
SplineSet
77 0 m 1
 203 714 l 1
 328 714 l 1
 213 61 l 1
 660 61 l 1
 649 0 l 1
 77 0 l 1
EndSplineSet
EndChar

StartChar: M
Encoding: 77 77 46
Width: 987
VWidth: 1533
Flags: W
HStem: 0 21G<77 156.519 439.146 500.118 785 914.529> 694 20G<199.471 351.788 905.917 1037>
LayerCount: 2
Fore
SplineSet
785 0 m 1
 882 549 l 1
 486 -12 l 1
 446 -12 l 1
 251 557 l 1
 153 0 l 1
 77 0 l 1
 203 714 l 1
 345 714 l 1
 532 163 l 1
 920 714 l 1
 1037 714 l 1
 911 0 l 1
 785 0 l 1
EndSplineSet
EndChar

StartChar: N
Encoding: 78 78 47
Width: 863
VWidth: 1533
Flags: W
HStem: -23 21<77 156.503 724.105 786.528> 694 20G<199.48 342.916 832.489 913>
LayerCount: 2
Fore
SplineSet
740 -23 m 1
 256 586 l 1
 153 -2 l 1
 77 -2 l 1
 203 714 l 1
 327 714 l 1
 744 190 l 1
 836 714 l 1
 913 714 l 1
 783 -23 l 1
 740 -23 l 1
EndSplineSet
EndChar

StartChar: O
Encoding: 79 79 48
Width: 956
VWidth: 1533
Flags: W
HStem: -26 55<374.385 595.414> 685 54<492.269 707.404>
VStem: 96 144<184.75 413.272> 843 143<300.068 527.056>
LayerCount: 2
Fore
SplineSet
96 296 m 0
 96 525 333 739 608 739 c 256
 832 739 986 597 986 416 c 0
 986 188 746 -26 472 -26 c 256
 253 -26 96 112 96 296 c 0
599 685 m 0
 394 685 240 489 240 283 c 0
 240 135 330 29 482 29 c 256
 693 29 843 228 843 429 c 0
 843 578 752 685 599 685 c 0
EndSplineSet
EndChar

StartChar: P
Encoding: 80 80 49
Width: 803
VWidth: 1533
Flags: W
HStem: 0 21G<77 205.507> 308 63<267 573.416> 653 61<317 618.109>
VStem: 719 140<469.398 584.863>
LayerCount: 2
Fore
SplineSet
456 714 m 2
 691 714 859 680 859 549 c 0
 859 344 611 308 381 308 c 2
 256 308 l 1
 202 0 l 1
 77 0 l 1
 203 714 l 1
 456 714 l 2
393 371 m 2
 665 371 719 468 719 533 c 0
 719 585 665 653 448 653 c 2
 317 653 l 1
 267 371 l 1
 393 371 l 2
EndSplineSet
EndChar

StartChar: Q
Encoding: 81 81 50
Width: 956
VWidth: 1533
Flags: W
HStem: -236 67<646.007 734.423> -31 52<377.294 412> 684 55<491.639 702.726>
VStem: 95 144<179.805 408.597> 842 143<293.015 527.512>
LayerCount: 2
Fore
SplineSet
985 413 m 0
 985 213 803 15 566 -25 c 1
 567 -90 629 -169 728 -169 c 0
 750 -169 773 -165 798 -156 c 1
 773 -212 l 1
 734 -229 694 -236 657 -236 c 0
 531 -236 427 -150 412 -31 c 1
 223 -7 95 123 95 290 c 0
 95 523 333 739 608 739 c 256
 833 739 985 596 985 413 c 0
599 684 m 0
 391 684 239 481 239 279 c 0
 239 140 317 21 481 21 c 256
 688 21 842 220 842 425 c 0
 842 575 752 684 599 684 c 0
EndSplineSet
EndChar

StartChar: R
Encoding: 82 82 51
Width: 818
VWidth: 1533
Flags: W
HStem: 0 21G<38 169.507 642 803> 308 63<231 549.871> 653 61<281 594.997>
VStem: 678 149<475.359 595.902>
LayerCount: 2
Fore
SplineSet
605 350 m 1
 703 328 727 250 731 218 c 2
 745 130 l 2
 750 87 767 41 803 0 c 1
 652 0 l 1
 632 22 613 51 597 152 c 2
 590 201 l 2
 582 252 556 308 489 308 c 2
 220 308 l 1
 166 0 l 1
 38 0 l 1
 164 714 l 1
 417 714 l 2
 665 714 827 680 827 550 c 0
 827 414 650 359 605 350 c 1
381 371 m 2
 538 371 678 401 678 542 c 0
 678 609 613 653 423 653 c 2
 281 653 l 1
 231 371 l 1
 381 371 l 2
EndSplineSet
EndChar

StartChar: S
Encoding: 83 83 52
Width: 789
VWidth: 1533
Flags: W
HStem: -25 60<312.44 519.325> 678 58<395.492 618.394>
VStem: 79 147<118.714 222.25 220.5 224 224 236> 153 140<487.352 581.192> 650 142<154.29 354.928>
LayerCount: 2
Fore
SplineSet
514 678 m 0xd8
 362 678 293 591 293 534 c 0xd8
 293 382 792 460 792 242 c 0
 792 135 694 -25 390 -25 c 0
 226 -25 79 52 79 212 c 0
 79 220 79 228 80 236 c 1
 228 236 l 1
 226 226 226 215 226 205 c 0xe8
 226 115 288 35 400 35 c 0
 554 35 650 124 650 201 c 0
 650 358 153 279 153 498 c 0
 153 641 317 736 524 736 c 0
 703 736 832 668 831 524 c 1
 696 524 l 1
 696 569 682 678 514 678 c 0xd8
EndSplineSet
EndChar

StartChar: T
Encoding: 84 84 53
Width: 746
VWidth: 1533
Flags: W
HStem: 0 21G<308 441.522> 653 61<141 423 553 846>
LayerCount: 2
Fore
SplineSet
553 653 m 1
 438 0 l 1
 308 0 l 1
 423 653 l 1
 130 653 l 1
 141 714 l 1
 857 714 l 1
 846 653 l 1
 553 653 l 1
EndSplineSet
EndChar

StartChar: U
Encoding: 85 85 54
Width: 927
VWidth: 1533
Flags: W
HStem: -25 59<362.093 579.272> 694 20G<199.476 328 843.468 972>
VStem: 123 124<141.129 268.177 262.325 274.029 274.029 278 294 297.818>
LayerCount: 2
Fore
SplineSet
467 34 m 256
 613 34 744 132 770 278 c 2
 847 714 l 1
 972 714 l 1
 898 294 l 2
 859 71 663 -25 457 -25 c 0
 272 -25 123 53 123 230 c 0
 123 250 125 271 129 294 c 2
 203 714 l 1
 328 714 l 1
 251 278 l 2
 248 262 247 247 247 232 c 0
 247 112 338 34 467 34 c 256
EndSplineSet
EndChar

StartChar: V
Encoding: 86 86 55
Width: 861
VWidth: 1533
Flags: W
HStem: -20 21G<385.943 450.823> 694 20G<134 285.042 879.352 980>
LayerCount: 2
Fore
SplineSet
436 -20 m 1
 393 -20 l 1
 134 714 l 1
 278 714 l 1
 478 146 l 1
 894 714 l 1
 980 714 l 1
 436 -20 l 1
EndSplineSet
EndChar

StartChar: W
Encoding: 87 87 56
Width: 1113
VWidth: 1533
Flags: W
HStem: -20 21G<296.45 357.977 752.922 813.689> 694 20G<134 277.639 667.811 720.029 1144.23 1231>
LayerCount: 2
Fore
SplineSet
802 -20 m 1
 758 -20 l 1
 628 492 l 1
 347 -20 l 1
 301 -20 l 1
 134 714 l 1
 273 714 l 1
 392 201 l 1
 679 714 l 1
 715 714 l 1
 847 189 l 1
 1156 714 l 1
 1231 714 l 1
 802 -20 l 1
EndSplineSet
EndChar

StartChar: X
Encoding: 88 88 57
Width: 748
VWidth: 1533
Flags: W
HStem: -2 21G<8 116.502 577.713 737> 694 20G<158 317.098 757.021 867>
LayerCount: 2
Fore
SplineSet
507 382 m 1
 737 -2 l 1
 590 -2 l 1
 410 291 l 1
 95 -2 l 1
 8 -2 l 1
 382 339 l 1
 158 714 l 1
 305 714 l 1
 478 428 l 1
 778 714 l 1
 867 714 l 1
 507 382 l 1
EndSplineSet
EndChar

StartChar: Y
Encoding: 89 89 58
Width: 829
VWidth: 1533
Flags: W
HStem: 0 21G<339 471.533> 694 20G<134 293.706 834.882 948>
LayerCount: 2
Fore
SplineSet
524 317 m 1
 468 0 l 1
 339 0 l 1
 392 302 l 1
 134 714 l 1
 281 714 l 1
 497 374 l 1
 856 714 l 1
 948 714 l 1
 524 317 l 1
EndSplineSet
EndChar

StartChar: Z
Encoding: 90 90 59
Width: 745
VWidth: 1533
Flags: W
HStem: 0 61<224 676> 653 61<218 652>
LayerCount: 2
Fore
SplineSet
224 61 m 1
 715 61 l 1
 676 0 l 1
 15 0 l 1
 652 653 l 1
 178 653 l 1
 218 714 l 1
 856 714 l 1
 224 61 l 1
EndSplineSet
EndChar

StartChar: bracketleft
Encoding: 91 91 60
Width: 349
VWidth: 1533
Flags: W
HStem: -201 21G<179.5 239.5> 717 20G<333.5 397.41>
VStem: 66 100<-135.936 -39.5462>
LayerCount: 2
Fore
SplineSet
174 -25 m 2
 169 -54 166 -76 166 -93 c 0
 166 -142 188 -152 243 -161 c 1
 236 -201 l 1
 123 -201 66 -150 66 -47 c 0
 66 -28 68 -6 72 17 c 2
 161 520 l 2
 186 665 266 737 401 737 c 1
 394 698 l 1
 315 686 295 666 277 560 c 2
 174 -25 l 2
EndSplineSet
EndChar

StartChar: backslash
Encoding: 92 92 61
Width: 371
VWidth: 1533
Flags: W
HStem: -23 21G<279.342 395> 717 20G<107 220.711>
VStem: 107 288<-23 737 737 737>
LayerCount: 2
Fore
SplineSet
284 -23 m 1
 107 737 l 1
 216 737 l 1
 395 -23 l 1
 284 -23 l 1
EndSplineSet
EndChar

StartChar: bracketright
Encoding: 93 93 62
Width: 349
VWidth: 1533
Flags: W
HStem: -201 40<50 118.466> 717 20G<204.41 265>
VStem: 278 101<557.921 672.103>
LayerCount: 2
Fore
SplineSet
269 560 m 2
 274 590 278 614 278 632 c 0
 278 674 259 689 201 698 c 1
 208 737 l 1
 322 737 379 686 379 583 c 0
 379 564 377 543 373 520 c 2
 284 17 l 2
 258 -128 178 -201 43 -201 c 1
 50 -161 l 1
 136 -148 147 -130 166 -25 c 2
 269 560 l 2
EndSplineSet
EndChar

StartChar: asciicircum
Encoding: 94 94 63
Width: 731
VWidth: 1533
Flags: W
HStem: 281 406<441 568 441 441>
LayerCount: 2
Fore
SplineSet
568 281 m 1
 464 553 l 1
 265 281 l 1
 147 281 l 1
 441 687 l 1
 533 687 l 1
 688 281 l 1
 568 281 l 1
EndSplineSet
EndChar

StartChar: underscore
Encoding: 95 95 64
Width: 619
VWidth: 1533
Flags: W
HStem: -140 56<-7 587>
LayerCount: 2
Fore
SplineSet
-17 -140 m 1
 -7 -84 l 1
 597 -84 l 1
 587 -140 l 1
 -17 -140 l 1
EndSplineSet
EndChar

StartChar: grave
Encoding: 96 96 65
Width: 349
VWidth: 1533
Flags: W
HStem: 652 196
VStem: 135 284<652 791 791 791>
LayerCount: 2
Fore
SplineSet
135 791 m 0
 135 804 147 848 191 848 c 0
 215 848 234 835 246 823 c 2
 419 652 l 1
 342 652 l 1
 184 737 l 2
 152 755 135 773 135 791 c 0
EndSplineSet
EndChar

StartChar: a
Encoding: 97 97 66
Width: 657
VWidth: 1533
Flags: W
HStem: -15 58<232.859 396.217> 285 60<308.768 489.53 489.53 525> 491 59<325.537 494.352>
VStem: 56 130<87.2695 200.672> 504 108<-2 54.7193> 539 112<348.075 448.951>
LayerCount: 2
Fore
SplineSet
609 132 m 2xf4
 607 117 604 102 604 78 c 0
 604 59 606 33 612 -2 c 1
 504 -2 l 1xf8
 499 27 498 43 498 55 c 0
 498 67 l 1
 432 7 349 -15 271 -15 c 0
 172 -15 56 27 56 131 c 0
 56 217 130 345 455 345 c 0
 463 345 504 347 536 347 c 1
 538 357 539 367 539 378 c 0
 539 431 514 491 411 491 c 0
 301 491 266 414 253 379 c 1
 125 379 l 1
 190 517 332 550 421 550 c 0
 609 550 651 463 651 386 c 0
 651 372 649 358 647 345 c 2
 609 132 l 2xf4
446 285 m 2
 302 285 186 228 186 142 c 0
 186 90 239 43 310 43 c 0
 414 43 498 130 518 245 c 2
 525 285 l 1
 446 285 l 2
EndSplineSet
Substitution2: "Single Substitution lookup 22 subtable" uni0E38
Substitution2: "Single Substitution lookup 22 subtable" uni0E38
EndChar

StartChar: b
Encoding: 98 98 67
Width: 709
VWidth: 1533
Flags: W
HStem: -17 61<301.331 454.101> 501 60<374.906 528.16>
VStem: 605 127<217.066 414.498>
LayerCount: 2
Fore
SplineSet
732 330 m 0
 732 142 564 -17 379 -17 c 0
 288 -17 227 18 191 67 c 1
 179 -2 l 1
 69 -2 l 1
 200 742 l 1
 310 742 l 1
 262 469 l 1
 319 530 393 561 481 561 c 0
 631 561 732 471 732 330 c 0
371 44 m 0
 490 44 605 173 605 318 c 0
 605 422 544 501 451 501 c 0
 346 501 223 371 223 225 c 0
 223 122 289 44 371 44 c 0
EndSplineSet
Substitution2: "Single Substitution lookup 22 subtable" uni0E39
Substitution2: "Single Substitution lookup 22 subtable" uni0E39
EndChar

StartChar: c
Encoding: 99 99 68
Width: 685
VWidth: 1533
Flags: W
HStem: -15 59<283.053 452.682> 491 59<359.13 524.652>
VStem: 81 131<123.044 325.433>
LayerCount: 2
Fore
SplineSet
446 491 m 0
 313 491 212 363 212 214 c 0
 212 114 263 44 367 44 c 0
 444 44 507 87 558 173 c 1
 686 173 l 1
 610 20 466 -15 362 -15 c 0
 205 -15 81 77 81 220 c 0
 81 399 257 550 462 550 c 0
 570 550 698 513 718 360 c 1
 590 360 l 1
 568 461 513 491 446 491 c 0
EndSplineSet
Substitution2: "Single Substitution lookup 22 subtable" uni0E3A
Substitution2: "Single Substitution lookup 22 subtable" uni0E3A
EndChar

StartChar: d
Encoding: 100 100 69
Width: 709
VWidth: 1533
Flags: W
HStem: -17 61<278.335 431.485> 501 60<351.68 502.801>
VStem: 74 125<127.734 328.108>
LayerCount: 2
Fore
SplineSet
74 219 m 0
 74 389 215 561 426 561 c 0
 513 561 574 530 612 469 c 1
 660 742 l 1
 772 742 l 1
 641 -2 l 1
 529 -2 l 1
 541 67 l 1
 488 18 414 -17 324 -17 c 0
 185 -17 74 76 74 219 c 0
353 44 m 256
 464 44 581 176 581 315 c 0
 581 419 519 501 433 501 c 0
 318 501 199 370 199 220 c 0
 199 105 277 44 353 44 c 256
EndSplineSet
EndChar

StartChar: e
Encoding: 101 101 70
Width: 693
VWidth: 1533
Flags: W
HStem: -17 61<290.184 460.282> 314 63<262 584> 492 58<358.85 522.913>
VStem: 81 132<128.36 313.526> 579 115<138.337 215>
LayerCount: 2
Fore
SplineSet
81 222 m 0
 81 387 243 550 454 550 c 0
 609 550 718 480 718 335 c 0
 718 328 717 321 717 314 c 1
 225 314 l 1
 225 304 213 266 213 219 c 0
 213 78 308 44 379 44 c 0
 478 44 557 135 579 215 c 1
 694 215 l 1
 659 62 508 -17 367 -17 c 0
 175 -17 81 102 81 222 c 0
438 492 m 0
 370 492 297 440 262 377 c 1
 584 377 l 1
 574 428 538 492 438 492 c 0
EndSplineSet
EndChar

StartChar: f
Encoding: 102 102 71
Width: 375
VWidth: 1533
Flags: W
HStem: 0 21G<117 231.548> 451 289<369 388 98 518 491 491> 451 63<142 197 319 388> 661 79<381.444 474.997>
LayerCount: 2
Fore
SplineSet
499 632 m 1xc0
 466 652 441 661 425 661 c 0
 398 661 342 647 332 592 c 2
 319 514 l 1
 431 514 l 1xb0
 388 451 l 1
 308 451 l 1
 228 0 l 1
 117 0 l 1
 197 451 l 1
 98 451 l 1xc0
 142 514 l 1
 208 514 l 1xa0
 233 656 369 740 491 740 c 0
 500 740 509 740 518 739 c 1
 499 632 l 1xc0
EndSplineSet
EndChar

StartChar: g
Encoding: 103 103 72
Width: 708
VWidth: 1533
Flags: W
HStem: -204 57<197.306 442.021> 49 78<282.866 491.586> 153 62<291.444 472.332> 489 61<331.581 500.621> 523 98<664.766 710.901>
VStem: 11 123<-97.2354 -3.77862> 120 126<257.899 405.013> 545 121<-75.1251 7.59345> 560 126<303.512 447.901>
LayerCount: 2
Fore
SplineSet
686 380 m 0xea80
 686 258 533 153 369 153 c 2
 292 153 l 2
 270 153 263 149 263 143 c 0
 263 130 293 127 342 127 c 0
 452 127 571 127 640 67 c 0
 658 52 666 31 666 5 c 0
 666 -39 649 -82 613 -112 c 0
 538 -176 423 -204 288 -204 c 0
 193 -204 11 -165 11 -59 c 0xed
 11 30 160 71 187 77 c 1
 155 85 142 104 142 122 c 0
 142 160 182 179 216 182 c 1
 136 232 120 292 120 331 c 0
 120 446 267 550 439 550 c 0xf2
 461 550 505 547 547 537 c 1
 597 605 655 621 765 621 c 1
 746 512 l 1
 719 519 694 523 675 523 c 0
 668 523 631 520 605 509 c 1
 624 498 686 457 686 380 c 0xea80
380 215 m 256
 503 215 560 300 560 383 c 0
 560 452 510 489 428 489 c 0
 307 489 246 408 246 323 c 0xf280
 246 252 298 215 380 215 c 256
322 -147 m 0
 426 -147 545 -96 545 -39 c 0
 545 -0 507 49 357 49 c 0
 172 49 134 -13 134 -54 c 0xe5
 134 -89 178 -147 322 -147 c 0
EndSplineSet
EndChar

StartChar: h
Encoding: 104 104 73
Width: 683
VWidth: 1533
Flags: W
HStem: 0 21G<69 182.545 500 618.529> 491 59<355.176 519.728> 682 20G<189.467 303>
VStem: 564 111<345.039 354.891 354.891 374.977 364.934 447.29>
LayerCount: 2
Fore
SplineSet
457 550 m 0
 582 550 679 501 679 383 c 0
 679 370 678 355 675 340 c 2
 615 0 l 1
 500 0 l 1
 564 365 l 2
 565 371 566 378 566 385 c 0
 566 433 536 491 435 491 c 0
 334 491 250 400 232 299 c 2
 179 0 l 1
 69 0 l 1
 193 702 l 1
 303 702 l 1
 261 465 l 1
 325 533 410 550 457 550 c 0
EndSplineSet
EndChar

StartChar: i
Encoding: 105 105 74
Width: 297
VWidth: 1533
Flags: W
HStem: 0 21G<92 205.529> 524 20G<184.471 298> 572 135<217.62 306.462>
VStem: 189 146<600.514 679.054>
LayerCount: 2
Fore
SplineSet
335 651 m 0
 335 614 299 572 250 572 c 256
 213 572 189 596 189 627 c 0
 189 671 229 707 274 707 c 256
 308 707 335 685 335 651 c 0
188 544 m 1
 298 544 l 1
 202 0 l 1
 92 0 l 1
 188 544 l 1
EndSplineSet
EndChar

StartChar: j
Encoding: 106 106 75
Width: 325
VWidth: 1533
Flags: W
HStem: -189 80<-28.4902 69.3258> 521 20G<211.488 327> 570 137<244.538 332.984>
VStem: 216 146<599.153 678.194>
LayerCount: 2
Fore
SplineSet
362 652 m 0
 362 607 321 570 277 570 c 256
 243 570 216 592 216 626 c 0
 216 666 252 707 301 707 c 256
 337 707 362 685 362 652 c 0
246 80 m 2
 207 -144 78 -189 -2 -189 c 0
 -35 -189 -84 -183 -117 -155 c 1
 -55 -78 l 1
 -34 -102 -6 -109 7 -109 c 0
 64 -109 107 -75 130 57 c 2
 215 541 l 1
 327 541 l 1
 246 80 l 2
EndSplineSet
EndChar

StartChar: k
Encoding: 107 107 76
Width: 614
VWidth: 1533
Flags: W
HStem: 0 21G<69 182.485 488.404 629> 526 20G<531.721 677>
LayerCount: 2
Fore
SplineSet
322 307 m 1
 221 241 l 1
 179 0 l 1
 69 0 l 1
 200 742 l 1
 310 742 l 1
 236 324 l 1
 561 546 l 1
 677 546 l 1
 419 373 l 1
 629 0 l 1
 500 0 l 1
 322 307 l 1
EndSplineSet
EndChar

StartChar: l
Encoding: 108 108 77
Width: 248
VWidth: 1533
Flags: W
HStem: 0 21G<69 182.531>
VStem: 69 241<0 742 1.53064e-18 1.53064e-18>
LayerCount: 2
Fore
SplineSet
200 742 m 1
 310 742 l 1
 179 0 l 1
 69 0 l 1
 200 742 l 1
EndSplineSet
EndChar

StartChar: m
Encoding: 109 109 78
Width: 1048
VWidth: 1533
Flags: W
HStem: 0 21G<69 182.545 474 592.516 865 983.536> 489 60<351.1 494.457 737.406 884.626>
VStem: 927 114<334.016 345 354 360.847 360.847 367.023 363.935 446.361>
LayerCount: 2
Fore
SplineSet
830 549 m 0
 946 549 1045 499 1045 385 c 0
 1045 372 1043 359 1041 345 c 2
 980 0 l 1
 865 0 l 1
 927 354 l 2
 929 363 930 372 930 380 c 0
 930 447 880 489 814 489 c 0
 731 489 665 430 637 273 c 2
 589 0 l 1
 474 0 l 1
 526 293 l 2
 530 315 532 338 532 360 c 0
 532 429 508 489 428 489 c 0
 330 489 248 389 232 299 c 2
 179 0 l 1
 69 0 l 1
 163 534 l 1
 273 534 l 1
 260 460 l 1
 305 518 378 549 456 549 c 0
 510 549 594 532 625 429 c 1
 683 529 760 549 830 549 c 0
EndSplineSet
EndChar

StartChar: n
Encoding: 110 110 79
Width: 683
VWidth: 1533
Flags: W
HStem: 0 21G<69 182.545 500 618.54> 489 60<353.692 519.032>
VStem: 564 111<343.148 353.668 353.668 372.5 363.084 445.508>
LayerCount: 2
Fore
SplineSet
457 549 m 0
 580 549 679 499 679 382 c 0
 679 368 678 354 675 339 c 2
 615 0 l 1
 500 0 l 1
 564 363 l 2
 565 369 566 376 566 382 c 0
 566 431 535 489 434 489 c 0
 333 489 250 400 232 299 c 2
 179 0 l 1
 69 0 l 1
 163 534 l 1
 273 534 l 1
 261 465 l 1
 323 531 406 549 457 549 c 0
EndSplineSet
EndChar

StartChar: o
Encoding: 111 111 80
Width: 708
VWidth: 1533
Flags: W
HStem: -15 59<273.95 461.61> 488 59<340.791 531.335>
VStem: 73 127<117.642 326.55> 603 127<208.277 413.561>
LayerCount: 2
Fore
SplineSet
730 319 m 0
 730 145 576 -15 350 -15 c 0
 182 -15 73 75 73 215 c 0
 73 394 227 547 450 547 c 0
 599 547 730 471 730 319 c 0
364 44 m 256
 555 44 603 233 603 328 c 0
 603 454 516 488 440 488 c 256
 248 488 200 302 200 206 c 0
 200 78 288 44 364 44 c 256
EndSplineSet
EndChar

StartChar: p
Encoding: 112 112 81
Width: 717
VWidth: 1533
Flags: W
HStem: -198 21G<34 147.566> -29 60<297.157 450.834> 486 61<369.341 525.86>
VStem: 604 125<204.134 401.858>
LayerCount: 2
Fore
SplineSet
729 307 m 0
 729 155 602 -29 377 -29 c 0
 286 -29 226 10 190 60 c 1
 144 -198 l 1
 34 -198 l 1
 163 532 l 1
 258 532 l 1
 252 452 l 1
 309 517 394 547 478 547 c 0
 628 547 729 442 729 307 c 0
368 31 m 0
 498 31 604 174 604 311 c 0
 604 417 535 486 449 486 c 0
 344 486 221 362 221 216 c 0
 221 111 285 31 368 31 c 0
EndSplineSet
EndChar

StartChar: q
Encoding: 113 113 82
Width: 717
VWidth: 1533
Flags: W
HStem: -198 21G<503 617.534> -29 60<283.273 434.814> 486 61<355.499 509.866>
VStem: 79 127<115.871 315.965>
LayerCount: 2
Fore
SplineSet
79 201 m 0
 79 398 256 547 432 547 c 0
 527 547 596 508 626 452 c 1
 647 532 l 1
 743 532 l 1
 614 -198 l 1
 503 -198 l 1
 549 60 l 1
 496 10 421 -29 331 -29 c 0
 178 -29 79 61 79 201 c 0
358 31 m 256
 463 31 588 161 588 307 c 0
 588 410 522 486 439 486 c 256
 321 486 206 361 206 212 c 0
 206 105 270 31 358 31 c 256
EndSplineSet
EndChar

StartChar: r
Encoding: 114 114 83
Width: 404
VWidth: 1533
Flags: W
HStem: 0 21G<69 182.517> 461 84<348.681 441.062>
VStem: 69 423<0 543 -271.098 -119.67>
LayerCount: 2
Fore
SplineSet
259 451 m 1
 291 494 348 545 458 545 c 0
 469 545 480 544 492 543 c 1
 453 438 l 1
 442 447 412 461 395 461 c 0
 287 461 245 375 230 290 c 2
 179 0 l 1
 69 0 l 1
 163 534 l 1
 273 534 l 1
 259 451 l 1
EndSplineSet
EndChar

StartChar: s
Encoding: 115 115 84
Width: 636
VWidth: 1533
Flags: W
HStem: -18 59<245.205 437.225> 488 59<307.504 486.176>
VStem: 69 115<105.697 178> 139 117<351.132 439.666> 507 121<104.952 189.496> 542 116<353 430.095>
LayerCount: 2
Fore
SplineSet
410 488 m 0xd4
 294 488 256 431 256 393 c 0xd4
 256 344 313 330 354 324 c 0
 436 302 628 305 628 184 c 0
 628 62.8 502 -18 317 -18 c 0
 201 -18 75 32 69 178 c 1
 184 178 l 1
 186 118 221 41 327 41 c 0
 434 41 507 90 507 153 c 0xe8
 507 205 420 215 320 229 c 0
 210 244 139 285 139 363 c 0
 139 510 326 547 421 547 c 0
 566 547 659 477 658 353 c 1
 542 353 l 1
 540 419 504 488 410 488 c 0xd4
EndSplineSet
EndChar

StartChar: t
Encoding: 116 116 85
Width: 394
VWidth: 1533
Flags: W
HStem: -9 72<254.724 337.435> 448 58<124 196 316 412>
VStem: 142 108<67.973 155.973>
LayerCount: 2
Fore
SplineSet
254 153 m 2
 251 138 250 125 250 113 c 0
 250 83 260 63 292 63 c 256
 323 63 357 80 397 101 c 1
 382 17 l 1
 354 2 310 -9 271 -9 c 0
 202 -9 142 20 142 117 c 0
 142 133 143 150 147 170 c 2
 196 448 l 1
 114 448 l 1
 124 506 l 1
 204 506 l 1
 289 656 l 1
 343 656 l 1
 316 506 l 1
 422 506 l 1
 412 448 l 1
 306 448 l 1
 254 153 l 2
EndSplineSet
EndChar

StartChar: u
Encoding: 117 117 86
Width: 683
VWidth: 1533
Flags: W
HStem: -17 60<257.089 422.566> 514 20G<159.481 276 593.455 709>
VStem: 99 111<86.5356 169.248 160.5 177.996 177.996 189.906>
LayerCount: 2
Fore
SplineSet
342 43 m 0
 436 43 526 128 544 235 c 2
 597 534 l 1
 709 534 l 1
 615 -2 l 1
 503 -2 l 1
 515 69 l 1
 463 12 385 -17 319 -17 c 0
 195 -17 99 33 99 149 c 0
 99 163 100 178 103 193 c 2
 163 534 l 1
 276 534 l 1
 212 170 l 2
 211 164 210 157 210 151 c 0
 210 102 242 43 342 43 c 0
EndSplineSet
EndChar

StartChar: v
Encoding: 118 118 87
Width: 645
VWidth: 1533
Flags: W
HStem: -17 21G<296.559 353.374> 514 20G<99 231.569 646.664 735>
LayerCount: 2
Fore
SplineSet
304 -17 m 1
 99 534 l 1
 224 534 l 1
 375 135 l 1
 661 534 l 1
 735 534 l 1
 339 -17 l 1
 304 -17 l 1
EndSplineSet
EndChar

StartChar: w
Encoding: 119 119 88
Width: 962
VWidth: 1533
Flags: W
HStem: -17 21G<268.612 323.541 643.27 700.249> 514 20G<99 227.244 573.9 615.743 966.905 1052>
LayerCount: 2
Fore
SplineSet
649 -17 m 1
 543 353 l 1
 311 -17 l 1
 275 -17 l 1
 99 534 l 1
 221 534 l 1
 344 140 l 1
 586 540 l 1
 610 540 l 1
 724 143 l 1
 980 534 l 1
 1052 534 l 1
 687 -17 l 1
 649 -17 l 1
EndSplineSet
EndChar

StartChar: x
Encoding: 120 120 89
Width: 630
VWidth: 1533
Flags: W
HStem: 0 21G<18 125.604 476.094 626> 514 20G<99 248.608 576.922 684>
LayerCount: 2
Fore
SplineSet
333 212 m 1
 104 0 l 1
 18 0 l 1
 301 256 l 1
 99 534 l 1
 234 534 l 1
 383 330 l 1
 598 534 l 1
 684 534 l 1
 416 287 l 1
 626 0 l 1
 491 0 l 1
 333 212 l 1
EndSplineSet
EndChar

StartChar: y
Encoding: 121 121 90
Width: 650
VWidth: 1533
Flags: W
HStem: -202 79<53.309 183.068> 514 20G<99 231.366 651.805 739>
LayerCount: 2
Fore
SplineSet
121 -123 m 0
 209 -123 278 -28 278 32 c 0
 278 40 276 51 271 67 c 2
 99 534 l 1
 224 534 l 1
 375 124 l 1
 666 534 l 1
 739 534 l 1
 352 -14 l 2
 231 -181 152 -202 111 -202 c 256
 34 -202 4 -181 -12 -169 c 1
 51 -92 l 1
 72 -115 105 -123 121 -123 c 0
EndSplineSet
EndChar

StartChar: z
Encoding: 122 122 91
Width: 630
VWidth: 1533
Flags: W
HStem: 0 60<213 552> 474 60<200 513>
LayerCount: 2
Fore
SplineSet
595 60 m 1
 552 0 l 1
 15 0 l 1
 513 474 l 1
 162 474 l 1
 200 534 l 1
 709 534 l 1
 213 60 l 1
 595 60 l 1
EndSplineSet
EndChar

StartChar: braceleft
Encoding: 123 123 92
Width: 432
VWidth: 1533
Flags: W
HStem: -209 46<269.346 322> 695 44<414.68 482>
VStem: 98 391<265 739 212.185 553.747> 140 119<-151.867 -61.4343> 181 119<135.515 225.679>
LayerCount: 2
Fore
SplineSet
98 265 m 1xe0
 176 294 209 319 222 391 c 2
 256 586 l 2
 273 678 327 739 489 739 c 1xe0
 482 695 l 1
 414 695 391 661 378 590 c 2
 345 403 l 2
 333 333 283 284 224 262 c 1
 269 250 300 212 300 157 c 0xc8
 300 148 299 139 297 129 c 2
 264 -58 l 2
 261 -75 259 -89 259 -102 c 0
 259 -143 278 -163 330 -163 c 1
 322 -209 l 1
 213 -209 140 -183 140 -92 c 0xd0
 140 -81 141 -68 143 -55 c 2
 178 141 l 2
 180 153 181 164 181 174 c 0xc8
 181 234 144 252 98 265 c 1xe0
EndSplineSet
EndChar

StartChar: bar
Encoding: 124 124 93
Width: 315
VWidth: 1533
Flags: W
VStem: 54 306<-279 839 -279 -279>
LayerCount: 2
Fore
SplineSet
54 -279 m 1
 251 839 l 1
 360 839 l 1
 163 -279 l 1
 54 -279 l 1
EndSplineSet
EndChar

StartChar: braceright
Encoding: 125 125 94
Width: 432
VWidth: 1533
Flags: W
HStem: -209 46<45 112.139> 695 44<204 251.441>
VStem: 226 119<303.565 396.508> 266 120<590.801 683.727>
LayerCount: 2
Fore
SplineSet
348 391 m 2xd0
 346 379 345 368 345 358 c 0
 345 310 372 289 429 265 c 1
 364 248 318 224 304 141 c 2
 269 -55 l 2
 248 -176 161 -209 37 -209 c 1
 45 -163 l 1
 112 -163 135 -129 148 -58 c 2
 181 129 l 2
 193 199 243 248 301 262 c 1
 243 287 226 334 226 375 c 0xe0
 226 385 227 394 229 403 c 2
 262 590 l 2
 265 606 266 620 266 633 c 0
 266 674 249 695 197 695 c 1
 204 739 l 1
 342 739 386 695 386 626 c 0
 386 614 385 600 382 586 c 2
 348 391 l 2xd0
EndSplineSet
EndChar

StartChar: asciitilde
Encoding: 126 126 95
Width: 706
VWidth: 1533
Flags: W
HStem: 221 81<434.61 584.14> 279 83<225.459 375.507>
LayerCount: 2
Fore
SplineSet
525 302 m 0x80
 556 302 585 315 633 374 c 1
 696 313 l 1
 614 239 570 221 510 221 c 0x80
 422 221 367 279 279 279 c 0
 241 279 219 254 172 205 c 1
 114 270 l 1
 177 331 218 362 302 362 c 0x40
 382 362 446 302 525 302 c 0x80
EndSplineSet
EndChar

StartChar: uni0E33.alt1
Encoding: 65537 -1 96
Width: 640
VWidth: 1533
Flags: W
HStem: 0 21<442 567.55> 570 54<312.417 480.263> 690 49<-329.963 -216.659> 895 53<-311.624 -197.999>
VStem: -401 53<756.727 858.634> -180 53<775.59 878.072> 517 118<406.12 417.993 417.993 444 430.997 532.371>
LayerCount: 2
Back
SplineSet
-127 819 m 0
 -130.333 801.667 -136.833 785 -146.5 769 c 128
 -156.167 753 -168.333 739.167 -183 727.5 c 128
 -197.667 715.833 -213.833 706.667 -231.5 700 c 128
 -249.167 693.333 -267 690 -285 690 c 0
 -321.667 690 -351 702.5 -373 727.5 c 128
 -395 752.5 -403 783 -397 819 c 0
 -393.667 836.333 -387.167 852.833 -377.5 868.5 c 128
 -367.833 884.167 -355.833 898 -341.5 910 c 128
 -327.167 922 -311.333 931.333 -294 938 c 128
 -276.667 944.667 -259 948 -241 948 c 0
 -204.333 948 -174.667 935.333 -152 910 c 128
 -129.333 884.667 -121 854.333 -127 819 c 0
434 0 m 1
 509 426 l 2
 516.333 467.333 511 501.667 493 529 c 128
 475 556.333 441 570 391 570 c 0
 364.333 570 340.833 565.667 320.5 557 c 128
 300.167 548.333 282.333 536.833 267 522.5 c 128
 251.667 508.167 238.833 491.833 228.5 473.5 c 128
 218.167 455.167 211 437 207 419 c 1
 81 419 l 1
 102.333 482.333 140.5 532.333 195.5 569 c 128
 250.5 605.667 318.667 624 400 624 c 0
 480.667 624 542 606.333 584 571 c 128
 626 535.667 640.333 478.667 627 400 c 2
 557 0 l 1
 434 0 l 1
-181 817 m 0
 -177 838.333 -181.833 856.667 -195.5 872 c 128
 -209.167 887.333 -227.333 895 -250 895 c 256
 -272.667 895 -293.333 887.333 -312 872 c 128
 -330.667 856.667 -342.333 838.333 -347 817 c 0
 -349.667 795.667 -344.333 777.333 -331 762 c 128
 -317.667 746.667 -300 739 -278 739 c 256
 -255.333 739 -234.333 746.667 -215 762 c 128
 -195.667 777.333 -184.333 795.667 -181 817 c 0
EndSplineSet
Fore
Refer: 261 3634 N 1 0 0 1 0 0 2
Refer: 284 3661 N 1 0 0 1 -284 0 2
EndChar

StartChar: quotedbl
Encoding: 34 34 97
Width: 420
VWidth: 1533
Flags: W
HStem: 386 351<207.641 217 373 379>
VStem: 188 118<653.067 664 664 676.385 676.385 717.113> 349 123<664.896 717.071>
LayerCount: 2
Fore
SplineSet
349 664 m 2
 349 698 373 737 421 737 c 256
 457 737 472 716 472 690 c 0
 472 685 471 668 468 664 c 1
 379 386 l 1
 339 386 l 1
 349 664 l 2
188 664 m 2
 188 686 202 737 259 737 c 256
 293 737 309 717 309 689 c 0
 309 679 306 669 306 664 c 1
 217 386 l 1
 177 386 l 1
 188 664 l 2
EndSplineSet
EndChar

StartChar: exclam
Encoding: 33 33 98
Width: 358
VWidth: 1533
Flags: W
HStem: -15 138<145.514 234.972> 719 20G<280 332.5>
VStem: 116 256<41 665 41 41> 116 150<15.7297 93.4991> 213 159<631.365 692.188>
LayerCount: 2
Fore
SplineSet
309 739 m 256xc8
 356 739 372 706 372 665 c 0xe0
 372 640 365 613 361 601 c 2
 236 164 l 1
 182 164 l 1
 210 601 l 2
 211 610 211 620 213 629 c 0
 223 684 251 739 309 739 c 256xc8
266 66 m 0xd0
 266 28 229 -15 178 -15 c 256
 143 -15 116 7 116 41 c 0xe0
 116 82 153 123 203 123 c 256
 238 123 266 101 266 66 c 0xd0
EndSplineSet
EndChar

StartChar: uni0E4E.alt1
Encoding: 65538 -1 99
Width: 0
VWidth: 1533
Flags: W
HStem: 676 36<-189.568 -136.299 -141.617 -130.98 -130.98 -121> 978 39<-90.6093 -8.87751 -10.6011 -7.15393 -7.15393 11>
VStem: -270 64<718.366 773.597> -168 53<871.306 928.674>
LayerCount: 2
Back
SplineSet
9 960 m 1
 -33 967.333 -65.1667 965 -87.5 953 c 128
 -109.833 941 -122.667 926.333 -126 909 c 0
 -128 899.667 -124.167 889 -114.5 877 c 128
 -104.833 865 -83 859 -49 859 c 1
 -72 823 l 1
 -110.667 819 -145.333 811.333 -176 800 c 128
 -206.667 788.667 -224 771.333 -228 748 c 0
 -232.667 730 -224.5 715.833 -203.5 705.5 c 128
 -182.5 695.167 -145.333 691 -92 693 c 1
 -112 655 l 1
 -142.667 651 -173 649.167 -203 649.5 c 128
 -233 649.833 -259.5 653.333 -282.5 660 c 128
 -305.5 666.667 -323.167 677.167 -335.5 691.5 c 128
 -347.833 705.833 -352 724.667 -348 748 c 0
 -346 763.333 -339.167 776.833 -327.5 788.5 c 128
 -315.833 800.167 -301.5 810.667 -284.5 820 c 128
 -267.5 829.333 -249.5 836.5 -230.5 841.5 c 128
 -211.5 846.5 -193.333 849.667 -176 851 c 1
 -198.667 854.333 -214.667 861.833 -224 873.5 c 128
 -233.333 885.167 -236.333 898.667 -233 914 c 0
 -229 938.667 -218.833 958.167 -202.5 972.5 c 128
 -186.167 986.833 -165.667 997 -141 1003 c 128
 -116.333 1009 -89.5 1011.67 -60.5 1011 c 128
 -31.5 1010.33 -1.66667 1007.67 29 1003 c 1
 9 960 l 1
EndSplineSet
Fore
Refer: 285 3662 N 1 0 0 1 -37 0 2
EndChar

StartChar: exclamdown
Encoding: 161 161 100
Width: 315
VWidth: 1533
Flags: W
HStem: 461 140<219.515 308.74>
VStem: 190 149<491.553 571.326>
LayerCount: 2
Fore
SplineSet
339 544 m 0
 339 499 296 461 251 461 c 256
 214 461 190 487 190 519 c 0
 190 561 228 601 276 601 c 256
 311 601 339 579 339 544 c 0
244 -15 m 2
 244 -47 227 -153 145 -153 c 256
 99 -153 85 -118 85 -79 c 0
 85 -53 91 -28 94 -15 c 2
 221 423 l 1
 274 423 l 1
 244 -15 l 2
EndSplineSet
EndChar

StartChar: cent
Encoding: 162 162 101
Width: 607
VWidth: 1533
Flags: W
HStem: -18 21G<271 356.471> 104 46<261.866 292 374 420.787> 547 158<398.027 458.618>
VStem: 95 108<218.634 406.946> 537 108<432 502.868>
LayerCount: 2
Fore
SplineSet
409 547 m 0
 291 547 203 431 203 301 c 0
 203 213 249 150 339 150 c 0
 408 150 465 188 508 264 c 1
 617 264 l 1
 557 140 443 110 374 103 c 1
 353 -18 l 1
 271 -18 l 1
 292 104 l 1
 177 118 95 199 95 309 c 0
 95 437 201 563 378 592 c 1
 398 705 l 1
 480 705 l 1
 461 593 l 1
 529 586 632 555 645 432 c 1
 537 432 l 1
 522 509 478 547 409 547 c 0
EndSplineSet
EndChar

StartChar: sterling
Encoding: 163 163 102
Width: 781
VWidth: 1533
Flags: W
HStem: -18 107<570.377 647.659> -15 66<118.114 224.975> 169 52<159.377 298.15> 333 58<245 311 467 617> 639 54<484.189 615.42>
VStem: 14 108<57.4787 134.387> 311 117<393.608 522.457>
LayerCount: 2
Fore
SplineSet
14 69 m 0x7e
 14 178 157 221 241 221 c 0
 274 221 298 218 322 215 c 1
 324 225 l 2
 325 233 329 251 329 282 c 0
 329 296 328 313 326 333 c 1
 206 333 l 1
 245 391 l 1
 311 391 l 1
 311 559 396 693 576 693 c 0
 625 693 668 683 707 664 c 0
 745 645 774 608 796 553 c 1
 664 507 l 1
 666 628 572 639 541 639 c 0
 508 639 428 602 428 504 c 0
 428 480 433 447 449 391 c 1
 656 391 l 1
 617 333 l 1
 467 333 l 1
 467 322 l 2
 467 284 460 230 431 184 c 1
 444 178 458 170 474 159 c 2
 521 128 l 2
 569 95 594 89 614 89 c 0
 639 89 697 95 762 210 c 1
 816 193 l 1
 778 107 689 -18 555 -18 c 0xbe
 471 -18 423 53 369 106 c 1
 326 63 230 -15 126 -15 c 0
 85 -15 14 8 14 69 c 0x7e
231 169 m 0
 153 169 122 116 122 85 c 0
 122 58 153 51 181 51 c 0x7e
 242 51 286 121 299 147 c 1
 283 156 257 169 231 169 c 0
EndSplineSet
EndChar

StartChar: currency
Encoding: 164 164 103
Width: 716
VWidth: 1533
Flags: W
HStem: 69 72<297.674 477.09> 538 78<360.083 539.419>
VStem: 114 102<222.098 396.973> 621 93<315.454 458.542>
LayerCount: 2
Fore
SplineSet
114 298 m 0
 114 380 157 452 204 503 c 1
 151 561 l 1
 234 627 l 1
 287 569 l 1
 350 605 413 616 463 616 c 0
 526 616 581 600 626 567 c 1
 701 627 l 1
 761 561 l 1
 684 500 l 1
 702 470 714 433 714 389 c 0
 714 369 714 278 631 187 c 1
 686 127 l 1
 603 60 l 1
 548 121 l 1
 499 93 435 69 366 69 c 0
 305 69 252 85 207 118 c 1
 134 60 l 1
 74 127 l 1
 145 184 l 1
 124 219 114 257 114 298 c 0
454 538 m 256
 332 538 216 431 216 306 c 0
 216 213 284 141 384 141 c 256
 513 141 621 260 621 375 c 0
 621 471 548 538 454 538 c 256
EndSplineSet
EndChar

StartChar: yen
Encoding: 165 165 104
Width: 788
VWidth: 1533
Flags: W
HStem: 170 55<195 350 486 646> 284 55<215 356 520 666>
LayerCount: 2
Fore
SplineSet
520 339 m 1
 676 339 l 1
 666 284 l 1
 496 284 l 1
 486 225 l 1
 656 225 l 1
 646 170 l 1
 476 170 l 1
 446 2 l 1
 320 2 l 1
 350 170 l 1
 185 170 l 1
 195 225 l 1
 360 225 l 1
 370 284 l 1
 205 284 l 1
 215 339 l 1
 356 339 l 1
 128 698 l 1
 273 698 l 1
 470 385 l 1
 802 698 l 1
 906 698 l 1
 520 339 l 1
EndSplineSet
EndChar

StartChar: brokenbar
Encoding: 166 166 105
Width: 283
VWidth: 1533
Flags: W
VStem: 57 268<-196 754 -593.952 -196>
LayerCount: 2
Fore
SplineSet
153 345 m 1
 225 754 l 1
 325 754 l 1
 253 345 l 1
 153 345 l 1
57 -196 m 1
 130 215 l 1
 230 215 l 1
 157 -196 l 1
 57 -196 l 1
EndSplineSet
EndChar

StartChar: section
Encoding: 167 167 106
Width: 657
VWidth: 1533
Flags: W
HStem: -175 60<219.335 383.981> 682 57<394.322 528.548>
VStem: 44 128<-61.9662 35.9885 31.9769 40 40 48> 119 132<266.034 354.554> 220 119<511.19 616.885> 468 133<-27.0306 70.8506> 520 123<252.184 399.243> 567 119<560 646.628>
LayerCount: 2
Fore
SplineSet
470 682 m 0xc9
 384 682 339 621 339 563 c 0
 339 429 643 479 643 313 c 0xca
 643 266 623 218 547 164 c 1
 581 139 601 100 601 56 c 0
 601 -82 438 -175 277 -175 c 0
 153 -175 44 -103 44 32 c 0
 44 37 45 43 45 48 c 1
 174 48 l 1
 172 37 172 26 172 16 c 0xe4
 172 -61 213 -115 288 -115 c 0
 408 -115 468 -38 468 25 c 0
 468 154 119 95 119 274 c 0xd4
 119 345 166 412 244 451 c 1
 228 471 220 497 220 529 c 0
 220 655 333 739 480 739 c 0
 622 739 673 655 686 560 c 1
 567 560 l 1
 559 622 541 682 470 682 c 0xc9
298 403 m 1
 264 377 251 328 251 310 c 0xd2
 251 231 419 213 489 196 c 1
 514 216 520 270 520 275 c 0
 520 355 350 374 298 403 c 1
EndSplineSet
EndChar

StartChar: dieresis
Encoding: 168 168 107
Width: 392
VWidth: 1533
Flags: W
HStem: 658 141<170.418 257.626 393.921 480.055>
VStem: 142 144<686.714 769.812> 365 144<686.7 769.754>
LayerCount: 2
Fore
SplineSet
365 716 m 0
 365 754 398 799 449 799 c 256
 486 799 509 776 509 744 c 0
 509 697 472 658 424 658 c 256
 387 658 365 683 365 716 c 0
142 715 m 0
 142 761 180 799 227 799 c 256
 263 799 286 776 286 744 c 0
 286 697 250 658 202 658 c 256
 165 658 142 681 142 715 c 0
EndSplineSet
EndChar

StartChar: copyright
Encoding: 169 169 108
Width: 881
VWidth: 1533
Flags: W
HStem: -38 78<344.418 559.09> 141 43<398.82 547.421> 534 39<457.426 598.379> 679 75<449.493 668.448>
VStem: 94 85<201.275 413.625> 262 96<236.42 413.766> 645 93<432 500.085> 828 86<302.439 515.382>
LayerCount: 2
Fore
SplineSet
94 292 m 0
 94 531 327 754 575 754 c 256
 765 754 914 611 914 423 c 0
 914 180 676 -38 435 -38 c 256
 232 -38 94 109 94 292 c 0
562 679 m 256
 377 679 179 504 179 307 c 0
 179 155 300 40 449 40 c 256
 632 40 828 215 828 411 c 0
 828 559 715 679 562 679 c 256
532 534 m 0
 419 534 358 415 358 312 c 0
 358 248 383 184 470 184 c 0
 531 184 580 217 619 284 c 1
 712 284 l 1
 668 192 579 141 468 141 c 0
 347 141 262 217 262 321 c 0
 262 461 399 573 544 573 c 0
 622 573 723 546 738 432 c 1
 645 432 l 1
 627 507 584 534 532 534 c 0
EndSplineSet
EndChar

StartChar: ordfeminine
Encoding: 170 170 109
Width: 427
VWidth: 1533
Flags: W
HStem: 334 34<195.031 325.848> 534 35<236.329 367.931 367.931 393.173 393.173 401> 668 36<254.857 388.012>
VStem: 92 81<390.474 484.176> 385 66<343 356.559 356.559 360.391 358.475 390.872> 409 70<569.852 647.708>
LayerCount: 2
Fore
SplineSet
92 431 m 0xf8
 92 486 144 569 351 569 c 0
 358 569 375 570 385 570 c 0xf8
 393 570 399 569 407 569 c 1
 408 576 409 584 409 591 c 0
 409 629 390 668 322 668 c 0
 273 668 238 644 217 595 c 1
 139 595 l 1
 181 683 274 704 328 704 c 0
 451 704 479 646 479 596 c 0xf4
 479 587 478 578 477 570 c 2
 452 429 l 2
 449 413 447 395 447 380 c 0
 447 366 449 353 451 343 c 1
 385 343 l 1
 384 361 381 368 381 379 c 0
 381 382 381 386 382 391 c 1
 341 350 286 334 232 334 c 0
 149 334 92 372 92 431 c 0xf8
345 534 m 2
 247 534 173 492 173 437 c 0
 173 407 200 368 257 368 c 0
 322 368 381 422 396 503 c 2
 401 534 l 1
 345 534 l 2
EndSplineSet
EndChar

StartChar: guillemotleft
Encoding: 171 171 110
Width: 627
VWidth: 1533
Flags: W
HStem: 55 471<511 593 593 593>
VStem: 158 498<291 471 291 291>
LayerCount: 2
Fore
SplineSet
511 55 m 1
 379 291 l 1
 593 526 l 1
 656 471 l 1
 476 291 l 1
 595 112 l 1
 511 55 l 1
291 55 m 1
 158 291 l 1
 371 526 l 1
 434 471 l 1
 255 291 l 1
 374 112 l 1
 291 55 l 1
EndSplineSet
EndChar

StartChar: logicalnot
Encoding: 172 172 111
Width: 631
VWidth: 1533
Flags: W
HStem: 376 56<91 537>
LayerCount: 2
Fore
SplineSet
494 129 m 1
 537 376 l 1
 81 376 l 1
 91 432 l 1
 662 432 l 1
 609 129 l 1
 494 129 l 1
EndSplineSet
EndChar

StartChar: registered
Encoding: 174 174 112
Width: 881
VWidth: 1533
Flags: W
HStem: -38 78<344.418 559.09> 328 35<397 552.042> 518 34<424 598.325> 679 75<449.493 668.448>
VStem: 94 85<201.275 413.625> 614 75<405.149 500.489> 828 86<302.439 515.382>
LayerCount: 2
Fore
SplineSet
94 292 m 0
 94 531 327 754 575 754 c 256
 765 754 914 611 914 423 c 0
 914 180 676 -38 435 -38 c 256
 232 -38 94 109 94 292 c 0
562 679 m 256
 377 679 179 504 179 307 c 0
 179 155 300 40 449 40 c 256
 632 40 828 215 828 411 c 0
 828 559 715 679 562 679 c 256
689 467 m 0
 689 390 609 359 574 350 c 1
 628 338 641 300 644 278 c 2
 650 232 l 2
 658 196 662 180 683 159 c 1
 598 159 l 1
 587 171 580 180 570 242 c 2
 566 270 l 2
 563 298 550 328 510 328 c 2
 391 328 l 1
 361 159 l 1
 292 159 l 1
 361 552 l 1
 500 552 l 2
 588 552 689 550 689 467 c 0
614 460 m 0
 614 506 566 518 503 518 c 2
 424 518 l 1
 397 363 l 1
 481 363 l 2
 553 363 614 382 614 460 c 0
EndSplineSet
EndChar

StartChar: macron
Encoding: 175 175 113
Width: 381
VWidth: 1533
Flags: W
HStem: 599 91<151 457 135 473 151 151>
LayerCount: 2
Fore
SplineSet
135 599 m 1
 151 690 l 1
 473 690 l 1
 457 599 l 1
 135 599 l 1
EndSplineSet
EndChar

StartChar: degree
Encoding: 176 176 114
Width: 441
VWidth: 1533
Flags: W
HStem: 366 66<238.44 365.677> 650 71<270.4 396.997>
VStem: 137 69<464.386 587.711> 427 69<494.353 620.876>
LayerCount: 2
Fore
SplineSet
137 513 m 0
 137 625 244 721 348 721 c 256
 430 721 496 662 496 575 c 0
 496 463 394 366 286 366 c 256
 198 366 137 430 137 513 c 0
337 650 m 256
 272 650 206 591 206 521 c 0
 206 470 246 432 298 432 c 256
 368 432 427 494 427 562 c 0
 427 614 389 650 337 650 c 256
EndSplineSet
EndChar

StartChar: plusminus
Encoding: 177 177 115
Width: 703
VWidth: 1533
Flags: W
HStem: 0 72<57 659> 314 72<112 357 470 714>
LayerCount: 2
Fore
SplineSet
457 314 m 1
 425 132 l 1
 325 132 l 1
 357 314 l 1
 99 314 l 1
 112 386 l 1
 370 386 l 1
 402 567 l 1
 502 567 l 1
 470 386 l 1
 727 386 l 1
 714 314 l 1
 457 314 l 1
44 0 m 1
 57 72 l 1
 672 72 l 1
 659 0 l 1
 44 0 l 1
EndSplineSet
EndChar

StartChar: twosuperior
Encoding: 178 178 116
Width: 455
VWidth: 1533
Flags: W
HStem: 282 58<190 476> 670 34<270.595 395.317>
VStem: 418 100<526.471 646.601>
LayerCount: 2
Fore
SplineSet
342 704 m 0
 420 704 518 675 518 590 c 0
 518 528 467 474 375 434 c 2
 305 406 l 2
 222 374 204 359 190 340 c 1
 486 340 l 1
 476 282 l 1
 76 282 l 1
 97 348 150 390 210 420 c 2
 275 451 l 2
 380 493 418 532 418 586 c 0
 418 620 403 670 336 670 c 0
 288 670 231 636 215 557 c 1
 113 557 l 1
 145 655 238 704 342 704 c 0
EndSplineSet
EndChar

StartChar: threesuperior
Encoding: 179 179 117
Width: 455
VWidth: 1533
Flags: W
HStem: 278 35<218.751 348.931> 486 39<256.563 380.889> 672 35<287.139 402.161>
VStem: 93 100<346.034 412.977 412.977 425> 145 100<596.254 651.904> 410 99<367.658 466.317> 419 100<559.358 655.644>
LayerCount: 2
Fore
SplineSet
519 614 m 0xea
 519 552 464 522 433 511 c 1
 498 486 509 449 509 426 c 0
 509 337 403 278 271 278 c 0
 232 278 94 283 93 425 c 1
 195 425 l 1
 194 417 193 408 193 401 c 0
 193 345 227 313 277 313 c 0
 342 313 410 363 410 424 c 0xf4
 410 473 353 486 308 486 c 0
 283 486 257 483 238 480 c 1
 246 529 l 1
 264 526 281 525 296 525 c 0
 364 525 419 558 419 608 c 0
 419 633 406 672 343 672 c 0
 290 672 259 628 245 572 c 1
 145 572 l 1
 179 694 308 707 350 707 c 0
 425 707 519 688 519 614 c 0xea
EndSplineSet
EndChar

StartChar: acute
Encoding: 180 180 118
Width: 280
VWidth: 1533
Flags: W
HStem: 652 191
VStem: 163 292<652 808 652 652>
LayerCount: 2
Fore
SplineSet
413 843 m 256
 438 843 455 830 455 808 c 0
 455 776 427 760 417 754 c 2
 216 652 l 1
 163 652 l 1
 351 814 l 2
 380 836 387 843 413 843 c 256
EndSplineSet
EndChar

StartChar: mu
Encoding: 181 181 119
Width: 666
VWidth: 1533
Flags: W
HStem: -18 61<248.944 414.104> 514 20G<151.474 269 585.478 701>
LayerCount: 2
Fore
SplineSet
335 43 m 0
 436 43 518 132 536 233 c 2
 589 534 l 1
 701 534 l 1
 606 -3 l 1
 494 -3 l 1
 507 67 l 1
 455 10 375 -18 311 -18 c 0
 270 -18 213 -10 179 25 c 1
 141 -192 l 1
 27 -192 l 1
 155 534 l 1
 269 534 l 1
 205 169 l 2
 204 163 203 156 203 150 c 0
 203 101 234 43 335 43 c 0
EndSplineSet
EndChar

StartChar: paragraph
Encoding: 182 182 120
Width: 619
VWidth: 1533
Flags: W
HStem: 652 66<465 529 629 705>
LayerCount: 2
Fore
SplineSet
110 431 m 0
 110 612 254 718 403 718 c 2
 717 718 l 1
 705 652 l 1
 629 652 l 1
 488 -150 l 1
 388 -150 l 1
 529 652 l 1
 465 652 l 1
 324 -150 l 1
 224 -150 l 1
 293 242 l 1
 162 251 110 330 110 431 c 0
EndSplineSet
EndChar

StartChar: periodcentered
Encoding: 183 183 121
Width: 346
VWidth: 1533
Flags: W
HStem: 239 227<183.232 284.893>
VStem: 118 233<302.829 400.727>
LayerCount: 2
Fore
SplineSet
351 372 m 0
 351 296 283 239 214 239 c 0
 155 239 118 278 118 331 c 0
 118 403 181 466 254 466 c 0
 314 466 351 426 351 372 c 0
EndSplineSet
EndChar

StartChar: cedilla
Encoding: 184 184 122
Width: 275
VWidth: 1533
Flags: W
HStem: -241 39<18.9667 115.847> -20 20G<95.9841 166>
VStem: 132 105<-186.625 -120.222>
LayerCount: 2
Fore
SplineSet
65 -202 m 0
 111 -202 132 -167 132 -144 c 0
 132 -128 119 -117 85 -117 c 0
 68 -117 49 -120 27 -126 c 1
 109 0 l 1
 166 0 l 1
 115 -77 l 1
 130 -77 138 -72 153 -72 c 0
 182 -72 237 -85 237 -133 c 0
 237 -197 161 -241 76 -241 c 0
 23 -241 -1 -237 -33 -221 c 1
 -10 -173 l 1
 11 -194 45 -202 65 -202 c 0
EndSplineSet
EndChar

StartChar: onesuperior
Encoding: 185 185 123
Width: 424
VWidth: 1533
Flags: W
HStem: 622 27<178 275.894> 694 20G<299 381>
VStem: 178 203<622 714 636.8 649>
LayerCount: 2
Fore
SplineSet
217 281 m 1
 277 622 l 1
 174 622 l 1
 178 649 l 1
 257 649 279 651 319 714 c 1
 381 714 l 1
 305 281 l 1
 217 281 l 1
EndSplineSet
EndChar

StartChar: ordmasculine
Encoding: 186 186 124
Width: 463
VWidth: 1533
Flags: W
HStem: 337 37<234.963 370.677> 672 35<280.608 414.014>
VStem: 98 105<415.013 576.488> 447 102<470.279 631.306>
LayerCount: 2
Fore
SplineSet
98 490 m 0
 98 626 231 707 358 707 c 256
 473 707 549 647 549 556 c 0
 549 435 437 337 291 337 c 256
 191 337 98 388 98 490 c 0
351 672 m 256
 254 672 203 572 203 478 c 0
 203 393 258 374 299 374 c 0
 418 374 447 503 447 567 c 0
 447 652 392 672 351 672 c 256
EndSplineSet
EndChar

StartChar: guillemotright
Encoding: 187 187 125
Width: 593
VWidth: 1533
Flags: W
HStem: 55 471<381 461 461 461>
VStem: 97 495<112 291 112 112>
LayerCount: 2
Fore
SplineSet
381 55 m 1
 317 112 l 1
 496 291 l 1
 377 471 l 1
 461 526 l 1
 592 291 l 1
 381 55 l 1
160 55 m 1
 97 112 l 1
 275 291 l 1
 157 471 l 1
 240 526 l 1
 371 291 l 1
 160 55 l 1
EndSplineSet
EndChar

StartChar: onequarter
Encoding: 188 188 126
Width: 1079
VWidth: 1533
Flags: W
HStem: 0 21G<152 270.784 705 808.6> 100 44<605 723 830 900> 622 27<206 290.896> 685 20G<776.216 895>
LayerCount: 2
Fore
SplineSet
900 100 m 1
 823 100 l 1
 805 0 l 1
 705 0 l 1
 723 100 l 1
 509 100 l 1
 495 121 l 1
 834 423 l 1
 880 423 l 1
 830 144 l 1
 931 144 l 1
 900 100 l 1
253 -17 m 1
 152 -17 l 1
 794 705 l 1
 895 705 l 1
 253 -17 l 1
206 649 m 1
 287 649 293 650 333 714 c 1
 388 714 l 1
 312 285 l 1
 231 285 l 1
 291 622 l 1
 202 622 l 1
 206 649 l 1
755 281 m 1
 605 144 l 1
 730 144 l 1
 755 281 l 1
EndSplineSet
LCarets2: 2 0 0 
Ligature2: "'frac' Diagonal Fractions in Latin lookup 0 subtable" one fraction four
Ligature2: "'frac' Diagonal Fractions in Latin lookup 0 subtable" one slash four
EndChar

StartChar: onehalf
Encoding: 189 189 127
Width: 1079
VWidth: 1533
Flags: W
HStem: -2 57<677 963> 386 34<772.674 883.517> 615 35<170 264.25> 685 20G<776.216 895>
VStem: 906 100<242.417 362.841>
LayerCount: 2
Fore
SplineSet
830 420 m 0
 909 420 1006 391 1006 307 c 0
 1006 177 821 141 725 94 c 0
 704 83 687 70 677 55 c 1
 973 55 l 1
 963 -2 l 1
 563 -2 l 1
 593 86 673 128 765 167 c 2
 791 178 l 2
 876 216 906 253 906 303 c 0
 906 336 891 386 824 386 c 0
 777 386 718 354 704 273 c 1
 601 273 l 1
 651 415 797 420 830 420 c 0
253 -17 m 1
 152 -17 l 1
 794 705 l 1
 895 705 l 1
 253 -17 l 1
170 650 m 1
 264 650 279 662 315 714 c 1
 384 714 l 1
 309 290 l 1
 209 290 l 1
 266 615 l 1
 163 615 l 1
 170 650 l 1
EndSplineSet
LCarets2: 2 0 0 
Ligature2: "'frac' Diagonal Fractions in Latin lookup 0 subtable" one fraction two
Ligature2: "'frac' Diagonal Fractions in Latin lookup 0 subtable" one slash two
EndChar

StartChar: threequarters
Encoding: 190 190 128
Width: 1079
VWidth: 1533
Flags: W
HStem: 0 21G<259 377.812 796 898.6> 100 44<695 814 920 990> 278 35<256.139 388.484> 486 39<293.563 417.889> 672 35<324.703 440.779>
VStem: 130 99<344.201 413.477 413.477 419 419 425> 182 100<596.254 651.086> 447 99<367.658 466.317> 456 100<559.704 655.644>
LayerCount: 2
Fore
SplineSet
990 100 m 1xf8
 913 100 l 1
 895 0 l 1
 796 0 l 1
 814 100 l 1
 599 100 l 1
 584 121 l 1
 924 423 l 1
 970 423 l 1
 920 144 l 1
 1020 144 l 1
 990 100 l 1xf8
556 614 m 0xfa80
 556 553 502 523 470 511 c 1
 535 486 546 449 546 426 c 0
 546 337 439 278 308 278 c 0
 203 278 130 324 130 419 c 0
 130 425 l 1
 231 425 l 1
 230 417 229 409 229 402 c 0
 229 339 271 313 314 313 c 0
 379 313 447 363 447 424 c 0xfd
 447 473 390 486 345 486 c 0
 320 486 294 483 275 480 c 1
 283 529 l 1
 301 526 318 525 333 525 c 0
 401 525 456 558 456 608 c 0
 456 633 443 672 380 672 c 0
 325 672 296 628 282 572 c 1
 182 572 l 1
 214 692 342 707 387 707 c 0
 461 707 556 688 556 614 c 0xfa80
360 -17 m 1
 259 -17 l 1
 901 705 l 1
 1003 705 l 1
 360 -17 l 1
846 281 m 1
 695 144 l 1
 821 144 l 1
 846 281 l 1
EndSplineSet
LCarets2: 2 0 0 
Ligature2: "'frac' Diagonal Fractions in Latin lookup 0 subtable" three fraction four
Ligature2: "'frac' Diagonal Fractions in Latin lookup 0 subtable" three slash four
EndChar

StartChar: questiondown
Encoding: 191 191 129
Width: 547
VWidth: 1533
Flags: W
HStem: -152 31<188.954 349.438> 497 102<361.309 435.539>
VStem: 53 99<-68.9889 61.1469> 345 105<511.527 582.395> 449 82<-20.2651 77>
LayerCount: 2
Fore
SplineSet
345 540 m 0xf0
 345 566 372 599 408 599 c 256
 435 599 450 582 450 559 c 0
 450 523 422 497 390 497 c 256
 363 497 345 516 345 540 c 0xf0
53 10 m 0
 53 223 327 190 374 457 c 1
 394 457 l 1
 387 405 388 411 385 392 c 0
 350 192 179 168 157 46 c 0
 154 27 152 10 152 -7 c 0
 152 -76 183 -121 266 -121 c 0
 378 -121 430 -31 449 77 c 1
 531 77 l 1xe8
 505 -69 394 -152 257 -152 c 0
 149 -152 53 -100 53 10 c 0
EndSplineSet
EndChar

StartChar: Aring
Encoding: 197 197 134
Width: 876
VWidth: 1533
Flags: W
HStem: 0 21G<0 98.8703 723.392 877> 347 76<400 572> 912 68<534.532 661.908>
VStem: 402 70<724.089 848.185> 692 70<755.015 883.22>
LayerCount: 2
Fore
SplineSet
762 833 m 0
 762 728 679 666 637 645 c 1
 877 0 l 1
 731 0 l 1
 599 347 l 1
 342 347 l 1
 84 0 l 1
 0 0 l 1
 486 641 l 1
 437 662 402 708 402 770 c 0
 402 884 508 980 613 980 c 256
 704 980 762 914 762 833 c 0
601 912 m 0
 528 912 472 843 472 783 c 0
 472 731 512 695 563 695 c 0
 634 695 692 755 692 824 c 0
 692 876 654 912 601 912 c 0
514 581 m 1
 400 423 l 1
 572 423 l 1
 514 581 l 1
EndSplineSet
EndChar

StartChar: AE
Encoding: 198 198 135
Width: 1159
VWidth: 1533
Flags: W
HStem: 0 61<713 1144> 353 61<465 635 775 1097> 652 64<817 1259>
LayerCount: 2
Fore
SplineSet
573 0 m 1
 635 353 l 1
 410 353 l 1
 92 0 l 1
 0 0 l 1
 644 716 l 1
 1270 716 l 1
 1259 652 l 1
 817 652 l 1
 775 414 l 1
 1108 414 l 1
 1097 353 l 1
 764 353 l 1
 713 61 l 1
 1155 61 l 1
 1144 0 l 1
 573 0 l 1
685 638 m 1
 665 638 l 1
 465 414 l 1
 646 414 l 1
 685 638 l 1
EndSplineSet
EndChar

StartChar: Eth
Encoding: 208 208 145
Width: 881
VWidth: 1533
Flags: W
HStem: 0 61<212 541.17> 353 61<67 136 274 477> 653 61<316 643.425>
VStem: 778 146<312.069 379 379 398.085 398.085 398.323 398.204 537.229>
LayerCount: 2
Fore
SplineSet
476 714 m 2
 851 714 929 566 929 439 c 0
 929 418 927 398 924 379 c 0
 870 76 617 0 356 0 c 2
 74 0 l 1
 136 353 l 1
 56 353 l 1
 67 414 l 1
 147 414 l 1
 200 714 l 1
 476 714 l 2
382 61 m 2
 645 61 744 186 778 379 c 0
 782 401 784 422 784 442 c 0
 784 571 700 653 486 653 c 2
 316 653 l 1
 274 414 l 1
 488 414 l 1
 477 353 l 1
 263 353 l 1
 212 61 l 1
 382 61 l 2
EndSplineSet
EndChar

StartChar: multiply
Encoding: 215 215 152
Width: 703
VWidth: 1533
Flags: W
HStem: -6 21G<87.8182 130.609 577.087 619.545>
LayerCount: 2
Fore
SplineSet
474 291 m 1
 676 60 l 1
 595 -6 l 1
 389 224 l 1
 106 -6 l 1
 46 60 l 1
 331 291 l 1
 127 521 l 1
 210 587 l 1
 414 357 l 1
 699 587 l 1
 757 521 l 1
 474 291 l 1
EndSplineSet
EndChar

StartChar: Oslash
Encoding: 216 216 153
Width: 968
VWidth: 1533
Flags: W
HStem: -26 55<368.308 584.08> 684 55<487.695 702.393>
VStem: 92 143<183.093 412.533> 837 144<304.818 504.359>
LayerCount: 2
Fore
SplineSet
92 296 m 0
 92 523 328 739 604 739 c 0
 708 739 790 710 849 667 c 1
 991 791 l 1
 1093 791 l 1
 901 622 l 1
 951 569 981 499 981 419 c 0
 981 192 748 -26 467 -26 c 0
 369 -26 291 2 234 38 c 1
 104 -75 l 1
 2 -75 l 1
 181 83 l 1
 107 156 92 238 92 296 c 0
595 684 m 0
 388 684 235 485 235 285 c 0
 235 234 246 191 263 155 c 1
 780 607 l 1
 737 654 675 684 595 684 c 0
477 29 m 0
 681 29 837 220 837 430 c 0
 837 475 829 514 814 547 c 1
 301 98 l 1
 339 58 396 29 477 29 c 0
EndSplineSet
EndChar

StartChar: Thorn
Encoding: 222 222 159
Width: 835
VWidth: 1533
Flags: W
HStem: 0 21G<109 244.536> 181 63<284 322.401 322.401 558.764> 544 62<346 400.738 400.738 595.769>
VStem: 700 160<342.886 476.424>
LayerCount: 2
Fore
SplineSet
454 607 m 0
 661 607 860 570 860 429 c 0
 860 195 522 180 362 180 c 0
 332 180 303 180 273 181 c 1
 241 0 l 1
 109 0 l 1
 240 745 l 1
 370 745 l 1
 346 606 l 1
 389 606 443 607 454 607 c 0
700 419 m 0
 700 531 520 544 426 544 c 2
 337 544 l 1
 284 244 l 1
 368 244 l 2
 490 244 700 258 700 419 c 0
EndSplineSet
EndChar

StartChar: uni00DF
Encoding: 223 223 160
Width: 734
VWidth: 1533
Flags: W
HStem: -18 67<367.506 493.08> 393 72<426.499 533.968> 751 60<399.046 555.483>
VStem: 587 152<176.072 328.604 576.068 715.164>
LayerCount: 2
Fore
SplineSet
739 640 m 0
 739 529 645 455 575 440 c 1
 657 420 739 341 739 247 c 0
 739 121 599 -18 429 -18 c 0
 328 -18 291 5 268 20 c 1
 328 112 l 1
 345 84 381 49 431 49 c 0
 525 49 587 167 587 266 c 0
 587 333 557 393 451 393 c 0
 432 393 411 392 387 388 c 1
 403 474 l 1
 431 467 442 465 452 465 c 0
 520 465 569 485 588 598 c 256
 591 612 592 627 592 641 c 0
 592 698 567 751 482 751 c 0
 391 751 321 693 292 529 c 2
 199 -2 l 1
 74 -2 l 1
 166 524 l 2
 196 694 312 811 493 811 c 0
 613 811 739 764 739 640 c 0
EndSplineSet
EndChar

StartChar: ae
Encoding: 230 230 167
Width: 1157
VWidth: 1533
Flags: W
HStem: -17 60<234.764 389.827 743.724 906.758> 317 59<321.818 540> 356 61<715 1037> 538 63<351.985 511.638 800.257 970.982>
VStem: 58 136<80.1642 222.242>
LayerCount: 2
Fore
SplineSet
682 356 m 1xb8
 675 338 658 281 658 231 c 0
 658 133 706 41 832 41 c 0
 906 41 1002 111 1033 232 c 1
 1160 232 l 1
 1107 102 993 -18 808 -18 c 0
 712 -18 603 24 556 127 c 1
 476 27 400 -17 261 -17 c 0
 172 -17 58 15 58 134 c 0
 58 372 385 376 550 376 c 1xd8
 553 392 555 409 555 424 c 0
 555 487 525 538 426 538 c 0
 372 538 303 499 271 426 c 1
 142 426 l 1
 177 491 219 537 270 562 c 0
 322 588 377 601 437 601 c 0
 564 601 619 558 651 478 c 1
 678 507 765 601 903 601 c 0
 1077 601 1169 519 1179 356 c 1
 682 356 l 1xb8
1037 417 m 1xb8
 1025 463 992 540 892 540 c 0
 795 540 734 475 715 417 c 1
 1037 417 l 1xb8
453 317 m 2xd8
 338 317 194 277 194 145 c 0
 194 89 230 43 302 43 c 0
 433 43 510 149 531 267 c 2
 540 317 l 1
 453 317 l 2xd8
EndSplineSet
EndChar

StartChar: eth
Encoding: 240 240 177
Width: 634
VWidth: 1533
Flags: W
HStem: -12 52<242.754 418.439> 455 52<306.029 468.633> 716 20G<527.034 581.49>
VStem: 68 112<106.461 306.372> 544 120<226.203 392.846>
LayerCount: 2
Fore
SplineSet
68 199 m 0
 68 367 213 507 408 507 c 0
 444 507 469 502 497 488 c 1
 485 516 470 547 405 610 c 1
 205 523 l 1
 190 575 l 1
 356 647 l 1
 309 682 251 705 223 716 c 1
 252 765 l 1
 365 722 402 701 434 678 c 1
 576 736 l 1
 590 685 l 1
 491 644 l 1
 552 589 664 460 664 332 c 0
 664 210 559 -12 315 -12 c 256
 184 -12 68 61 68 199 c 0
327 40 m 256
 501 40 544 217 544 303 c 0
 544 380 512 455 399 455 c 256
 224 455 180 280 180 193 c 0
 180 117 212 40 327 40 c 256
EndSplineSet
EndChar

StartChar: divide
Encoding: 247 247 184
Width: 702
VWidth: 1533
Flags: W
HStem: -21 170<315.5 406.334> 262 80<104 704> 432 171<397.781 485.656>
VStem: 275 172<19.3756 107.681> 355 172<472.476 561.524>
LayerCount: 2
Fore
SplineSet
355 503 m 0xe8
 355 560 410 603 456 603 c 0
 500 603 527 571 527 533 c 0
 527 477 477 432 426 432 c 256
 381 432 355 464 355 503 c 0xe8
90 262 m 1
 104 342 l 1
 718 342 l 1
 704 262 l 1
 90 262 l 1
275 49 m 0xf0
 275 97 317 149 376 149 c 256
 415 149 447 120 447 79 c 0
 447 23 397 -21 346 -21 c 256
 300 -21 275 12 275 49 c 0xf0
EndSplineSet
EndChar

StartChar: oslash
Encoding: 248 248 185
Width: 732
VWidth: 1533
Flags: W
HStem: -15 55<293.003 483.956> 494 53<364.342 553.996>
VStem: 96 121<157.718 320.998> 628 120<207.188 375.736>
LayerCount: 2
Fore
SplineSet
96 215 m 0
 96 376 235 547 472 547 c 0
 547 547 610 530 659 495 c 1
 761 578 l 1
 852 578 l 1
 701 455 l 1
 729 421 748 376 748 318 c 0
 748 146 599 -15 373 -15 c 0
 296 -15 235 3 186 38 c 1
 81 -48 l 1
 -8 -48 l 1
 143 75 l 1
 117 110 96 156 96 215 c 0
463 494 m 0
 266 494 217 301 217 209 c 0
 217 185 221 163 227 144 c 1
 593 440 l 1
 563 476 520 494 463 494 c 0
384 40 m 0
 579 40 628 232 628 326 c 0
 628 349 625 370 618 388 c 1
 255 94 l 1
 283 58 327 40 384 40 c 0
EndSplineSet
EndChar

StartChar: thorn
Encoding: 254 254 191
Width: 786
VWidth: 1533
Flags: W
HStem: -32 61<331.006 493.417> 560 62<416.176 580.275>
VStem: 676 137<239.143 459.384>
LayerCount: 2
Fore
SplineSet
813 352 m 0
 813 161 651 -32 416 -32 c 0
 276 -32 219 51 203 77 c 1
 149 -225 l 1
 29 -225 l 1
 238 961 l 1
 350 961 l 1
 270 507 l 1
 334 583 433 622 532 622 c 0
 700 622 813 505 813 352 c 0
501 560 m 0
 380 560 236 418 236 243 c 0
 236 122 309 29 407 29 c 256
 548 29 676 188 676 356 c 0
 676 484 594 560 501 560 c 0
EndSplineSet
EndChar

StartChar: Lslash
Encoding: 321 321 193
Width: 708
VWidth: 1533
Flags: W
HStem: 0 61<210 645> 694 20G<196.46 325>
LayerCount: 2
Back
SplineSet
74 0 m 1
 199 714 l 1
 325 714 l 1
 210 61 l 1
 656 61 l 1
 645 0 l 1
 74 0 l 1
72 308 m 1
 80 354 l 1
 504 503 l 1
 497 457 l 1
 72 308 l 1
EndSplineSet
Fore
SplineSet
72 308 m 1
 80 354 l 1
 140 375 l 1
 200 714 l 1
 325 714 l 1
 273 422 l 1
 506 503 l 1
 498 457 l 1
 265 376 l 1
 210 61 l 1
 656 61 l 1
 645 0 l 1
 74 0 l 1
 132 329 l 1
 72 308 l 1
EndSplineSet
EndChar

StartChar: lslash
Encoding: 322 322 194
Width: 325
VWidth: 1533
Flags: W
HStem: 0 21G<110 239.519> 694 20G<232.466 362>
VStem: 110 274<377 517 377 399.908>
LayerCount: 2
Back
SplineSet
110 377 m 1
 118 423 l 1
 383 517 l 1
 376 471 l 1
 110 377 l 1
110 0 m 1
 236 714 l 1
 362 714 l 1
 236 0 l 1
 110 0 l 1
EndSplineSet
Fore
SplineSet
110 377 m 1
 119 423 l 1
 189 448 l 1
 236 714 l 1
 362 714 l 1
 323 495 l 1
 384 517 l 1
 376 471 l 1
 315 449 l 1
 236 0 l 1
 110 0 l 1
 181 402 l 1
 110 377 l 1
EndSplineSet
EndChar

StartChar: OE
Encoding: 338 338 195
Width: 1344
VWidth: 1533
Flags: W
HStem: -26 55<349.572 561.507> 0 61<856 1331> 351 63<916 1284> 653 63<958 1446> 684 55<460.387 674.774>
VStem: 86 144<172.598 411.302>
LayerCount: 2
Fore
SplineSet
86 290 m 0xa4
 86 521 303 739 578 739 c 0xac
 685 739 769 704 830 635 c 1
 844 716 l 1
 1457 716 l 1
 1446 653 l 1
 958 653 l 1
 916 414 l 1
 1295 414 l 1
 1284 351 l 1
 905 351 l 1
 856 61 l 1
 1342 61 l 1
 1331 0 l 1
 718 0 l 1x74
 733 83 l 1
 648 17 550 -26 441 -26 c 0
 222 -26 86 111 86 290 c 0xa4
569 684 m 0
 346 684 230 459 230 273 c 0
 230 139 295 29 451 29 c 0
 614 29 745 155 774 320 c 2
 787 394 l 2
 791 416 793 437 793 458 c 0
 793 591 710 684 569 684 c 0
EndSplineSet
EndChar

StartChar: oe
Encoding: 339 339 196
Width: 1090
VWidth: 1533
Flags: W
HStem: -15 59<249.864 390.052 723.554 868.026> 310 60<701 988> 488 59<317.944 486.406 783.079 938.124>
VStem: 70 118<110.132 325.104> 548 107<207.354 309.142> 981 107<129.754 215> 988 124<370 434.055>
LayerCount: 2
Fore
SplineSet
70 210 m 0xfc
 70 373 198 547 416 547 c 0
 555 547 605 481 628 431 c 1
 690 506 780 550 876 550 c 0
 1025 550 1112 468 1112 334 c 0xfa
 1112 326 1112 318 1111 310 c 1
 668 310 l 1
 663 292 655 254 655 217 c 0
 655 113 708 44 799 44 c 0
 860 44 945 101 981 215 c 1
 1088 215 l 1
 1054 68 922 -17 788 -17 c 0
 687 -17 606 34 573 115 c 1
 487 -4 359 -15 317 -15 c 0
 169 -15 70 73 70 210 c 0xfc
988 370 m 1
 982 460 920 492 860 492 c 0
 792 492 725 437 701 370 c 1
 988 370 l 1
330 44 m 256
 505 44 548 242 548 330 c 0
 548 420 509 488 406 488 c 256
 232 488 188 291 188 204 c 0
 188 123 220 44 330 44 c 256
EndSplineSet
EndChar

StartChar: florin
Encoding: 402 402 202
Width: 763
VWidth: 1533
Flags: W
HStem: -222 59<78.0831 203.822> 446 52<350 429 566 651> 724 66<660.501 781.701>
LayerCount: 2
Fore
SplineSet
442 498 m 1
 487 636 590 790 769 790 c 0
 820 790 865 730 880 704 c 1
 760 650 l 1
 756 676 745 724 709 724 c 0
 622 724 585 560 566 498 c 1
 677 498 l 1
 651 446 l 1
 551 446 l 1
 425 35 l 2
 383 -98 256 -222 84 -222 c 0
 28 -222 2 -170 -8 -129 c 1
 111 -104 l 1
 116 -132 137 -163 170 -163 c 0
 225 -163 263 -83 289 -6 c 2
 429 446 l 1
 324 446 l 1
 350 498 l 1
 442 498 l 1
EndSplineSet
EndChar

StartChar: circumflex
Encoding: 710 710 203
Width: 674
VWidth: 1533
Flags: W
HStem: 679 186<457 580 457 457>
VStem: 279 362<679 679 679 679>
LayerCount: 2
Fore
SplineSet
580 679 m 1
 478 780 l 1
 341 679 l 1
 279 679 l 1
 457 865 l 1
 532 865 l 1
 641 679 l 1
 580 679 l 1
EndSplineSet
EndChar

StartChar: caron
Encoding: 711 711 204
Width: 343
VWidth: 1533
Flags: W
HStem: 642 186<118 323 118 118>
VStem: 118 393<828 828 828 828>
LayerCount: 2
Fore
SplineSet
323 642 m 1
 242 642 l 1
 118 828 l 1
 186 828 l 1
 297 727 l 1
 447 828 l 1
 511 828 l 1
 323 642 l 1
EndSplineSet
EndChar

StartChar: breve
Encoding: 728 728 205
Width: 338
VWidth: 1533
Flags: W
HStem: 641 64<224.284 365.173>
VStem: 139 344<733 797 785 817 785 785> 139 54<739.011 801.046 801.046 817>
LayerCount: 2
Fore
SplineSet
291 705 m 256xa0
 360 705 399 743 429 817 c 1
 483 817 l 1
 463 733 401 641 280 641 c 256
 165 641 139 722 139 785 c 0xc0
 139 797 140 807 141 817 c 1
 193 817 l 1
 196 745 220 705 291 705 c 256xa0
EndSplineSet
EndChar

StartChar: dotaccent
Encoding: 729 729 206
Width: 280
VWidth: 1533
Flags: W
HStem: 627 140<222.42 305.441>
VStem: 192 142<655.477 737.059>
LayerCount: 2
Fore
SplineSet
192 685 m 0
 192 720 226 767 275 767 c 256
 310 767 334 744 334 710 c 0
 334 660 290 627 251 627 c 0
 215 627 192 654 192 685 c 0
EndSplineSet
EndChar

StartChar: ring
Encoding: 730 730 207
Width: 280
VWidth: 1533
Flags: W
HStem: 630 60<219.149 312.169> 819 60<234.848 327.769>
VStem: 148 61<700.298 793.463> 338 62<714.448 808.367>
LayerCount: 2
Fore
SplineSet
148 730 m 0
 148 809 215 879 296 879 c 256
 363 879 400 834 400 778 c 0
 400 697 330 630 252 630 c 256
 192 630 148 670 148 730 c 0
285 819 m 256
 244 819 209 781 209 742 c 0
 209 711 233 690 263 690 c 256
 300 690 338 724 338 765 c 0
 338 796 315 819 285 819 c 256
EndSplineSet
EndChar

StartChar: ogonek
Encoding: 731 731 208
Width: 280
VWidth: 1533
Flags: W
HStem: -255 59<34.3125 124.947> 3 28<141.411 253>
VStem: -40 104<-192.656 -102.291>
LayerCount: 2
Fore
SplineSet
269 3 m 1
 217 -16 64 -62 64 -157 c 0
 64 -183 78 -196 106 -196 c 0
 133 -196 193 -175 234 -140 c 1
 250 -181 l 1
 148 -250 87 -255 55 -255 c 0
 2 -255 -40 -224 -40 -168 c 0
 -40 -49 142 6 253 31 c 1
 269 3 l 1
EndSplineSet
EndChar

StartChar: tilde
Encoding: 732 732 209
Width: 360
VWidth: 1533
Flags: W
HStem: 681 118<294 315.03 455 458 117 503 503 503> 681 61<339.829 430.09> 731 62<201.036 279.719>
LayerCount: 2
Fore
SplineSet
393 742 m 0x40
 414 742 430 756 455 799 c 1
 503 799 l 1
 495 775 458 681 361 681 c 0x80
 294 681 270 731 227 731 c 0x20
 217 731 196 729 168 681 c 1
 117 681 l 1x80
 137 735 185 793 258 793 c 0x20
 320 793 352 742 393 742 c 0x40
EndSplineSet
EndChar

StartChar: hungarumlaut
Encoding: 733 733 210
Width: 280
VWidth: 1533
Flags: W
HStem: 650 195<259 268>
VStem: 83 383<650 816 650 650>
LayerCount: 2
Fore
SplineSet
430 845 m 0
 448 845 466 833 466 816 c 0
 466 803 457 789 442 776 c 2
 268 650 l 1
 233 650 l 1
 376 814 l 2
 396 838 410 845 430 845 c 0
279 845 m 0
 301 845 314 832 314 815 c 0
 314 803 308 789 292 776 c 2
 118 650 l 1
 83 650 l 1
 225 814 l 2
 245 838 259 845 279 845 c 0
EndSplineSet
EndChar

StartChar: uni0E01
Encoding: 3585 3585 212
Width: 732
VWidth: 1533
Flags: W
HStem: 0 21G<77 202.546 534 659.527> 570 54<353.744 555.991>
VStem: 610 119<409.243 414 414 432.523 432.523 442.023 437.273 519.23>
LayerCount: 2
Fore
SplineSet
467 624 m 0
 575 624 732 588 732 451 c 0
 732 439 731 427 729 414 c 2
 656 0 l 1
 534 0 l 1
 610 429 l 2
 612 438 612 447 612 455 c 0
 612 532 548 570 458 570 c 256
 359 570 264 519 246 422 c 1
 342 422 l 1
 335 382 l 1
 286 365 257 331 249 282 c 2
 199 0 l 1
 77 0 l 1
 124 268 l 2
 133 316 184 370 254 380 c 1
 108 380 l 1
 151 544 304 624 467 624 c 0
EndSplineSet
EndChar

StartChar: uni0E02
Encoding: 3586 3586 213
Width: 731
VWidth: 1533
Flags: W
HStem: 0 61<276 541> 281 55<171.677 280.785> 501 46<234.945 243.023 238.984 304.076> 572 52<238.901 392.544>
VStem: 82 72<353.523 461.171> 322 57<376.261 483.245> 443 84<368.724 522.263>
LayerCount: 2
Fore
SplineSet
82 404 m 0
 82 514 187 624 337 624 c 256
 448 624 527 557 527 459 c 0
 527 356 446 249 301 202 c 1
 276 61 l 1
 541 61 l 1
 638 613 l 1
 761 613 l 1
 653 0 l 1
 143 0 l 1
 180 209 l 1
 279 229 443 305 443 449 c 0
 443 516 403 572 314 572 c 0
 277 572 244 557 234 547 c 1
 240 547 247 548 252 548 c 0
 328 548 379 505 379 438 c 0
 379 344 293 281 214 281 c 0
 156 281 82 315 82 404 c 0
252 501 m 256
 199 501 154 454 154 403 c 0
 154 364 184 336 223 336 c 256
 280 336 322 389 322 432 c 0
 322 470 295 501 252 501 c 256
EndSplineSet
EndChar

StartChar: uni0E03
Encoding: 3587 3587 214
Width: 760
VWidth: 1533
Flags: W
HStem: 0 61<307 572> 267 55<162.193 271.459> 488 42<211.003 217.766 214.385 293.551> 572 52<228.315 326.759 389.915 467.547>
VStem: 73 71<339.572 446.198> 311 58<362.104 471.053> 485 99<396.665 555.469>
LayerCount: 2
Fore
SplineSet
73 396 m 0
 73 513 172 624 285 624 c 0
 340 624 362 597 367 583 c 1
 374 591 408 624 458 624 c 0
 527 624 584 584 584 494 c 0
 584 327 427 251 334 218 c 1
 307 61 l 1
 572 61 l 1
 669 613 l 1
 792 613 l 1
 684 0 l 1
 173 0 l 1
 213 225 l 1
 321 264 485 330 485 487 c 0
 485 540 462 570 429 570 c 0
 401 570 374 546 360 527 c 1
 338 568 304 572 285 572 c 0
 248 572 222 549 210 530 c 1
 211 530 218 535 241 535 c 0
 311 535 369 495 369 423 c 0
 369 331 284 267 203 267 c 0
 135 267 73 309 73 396 c 0
242 488 m 256
 189 488 144 437 144 391 c 0
 144 350 174 322 213 322 c 256
 265 322 311 369 311 420 c 0
 311 457 285 488 242 488 c 256
EndSplineSet
EndChar

StartChar: uni0E04
Encoding: 3588 3588 215
Width: 774
VWidth: 1533
Flags: W
HStem: 0 21G<78 205.959 575 701.506> 198 57<384.818 485.421> 420 54<414.331 506.353> 570 54<374.422 590.868>
VStem: 525 57<295.398 401.777> 651 118<412.105 420.684 420.684 443.5 432.092 516.314>
LayerCount: 2
Fore
SplineSet
582 363 m 0
 582 275 510 198 417 198 c 0
 406 198 359 198 316 241 c 1
 196 0 l 1
 78 0 l 1
 93 72 l 0
 115 199 104 246 130 389 c 0
 160 559 351 624 496 624 c 256
 633 624 773 578 773 444 c 0
 773 432 771 419 769 405 c 2
 698 0 l 1
 575 0 l 1
 651 432 l 2
 652 440 653 447 653 455 c 0
 653 525 589 570 487 570 c 0
 374 570 277 514 258 411 c 0
 249 356 243 255 238 227 c 1
 298 351 l 2
 358 474 442 474 466 474 c 256
 544 474 582 425 582 363 c 0
456 420 m 0
 408 420 357 376 357 324 c 0
 357 287 385 255 427 255 c 0
 471 255 525 295 525 352 c 0
 525 392 494 420 456 420 c 0
EndSplineSet
EndChar

StartChar: uni0E05
Encoding: 3589 3589 216
Width: 774
VWidth: 1533
Flags: W
HStem: 0 21G<78 206.539 575 701.519> 198 57<380.664 492.368> 420 54<420.127 512.529> 570 56<325.961 444.246 539.609 644.242>
VStem: 531 57<295.129 401.834> 656 121<441.08 449 461 463.218 463.218 475.728 469.473 554.39>
LayerCount: 2
Fore
SplineSet
588 363 m 0
 588 275 516 198 423 198 c 0
 378 198 344 218 323 241 c 1
 196 0 l 1
 78 0 l 1
 117 154 114 298 131 397 c 0
 152 516 244 626 380 626 c 0
 438 626 480 603 492 567 c 1
 522 599 567 626 624 626 c 0
 691 626 781 598 781 490 c 0
 781 477 780 464 777 449 c 2
 698 0 l 1
 575 0 l 1
 656 461 l 2
 658 475 660 486 660 497 c 0
 660 558 621 570 593 570 c 0
 567 570 534 562 502 518 c 1
 457 518 l 1
 453 558 419 570 392 570 c 0
 308 570 272 488 261 423 c 0
 249 357 246 302 236 218 c 1
 304 351 l 2
 368 472 440 474 472 474 c 256
 550 474 588 425 588 363 c 0
462 420 m 256
 405 420 363 367 363 324 c 0
 363 286 390 255 433 255 c 256
 486 255 531 302 531 353 c 0
 531 392 501 420 462 420 c 256
EndSplineSet
EndChar

StartChar: uni0E06
Encoding: 3590 3590 217
Width: 844
VWidth: 1533
Flags: W
HStem: -8 66<188.984 269.591> 195 63<207.532 300.807 295.7 305.914 305.914 319> 281 52<165.001 272.397> 491 39<212.711 219.266 215.989 291.492> 572 52<231.886 334.02 399.905 500.778>
VStem: 83 65<350.096 453.066> 107 70<69.435 166.946> 308 55<368.937 474.699> 481 116<435.273 562.264>
LayerCount: 2
Fore
SplineSet
83 403 m 0xfd80
 83 523 183 624 292 624 c 0
 349 624 370 597 374 583 c 1
 381 590 419 624 475 624 c 0
 531 624 597 602 597 518 c 0
 597 384 475 379 458 285 c 2
 447 222 l 1
 659 81 l 1
 753 613 l 1
 876 613 l 1
 768 0 l 1
 661 0 l 1
 435 152 l 1
 431 135 415 -8 238 -8 c 0
 151 -8 107 45 107 105 c 0xfb80
 107 180 174 258 292 258 c 0
 315 258 319 256 330 256 c 1
 347 349 481 382 481 506 c 0
 481 542 466 569 437 570 c 0
 400 570 372 533 367 527 c 1
 345 568 312 572 293 572 c 0
 249 572 220 543 211 530 c 1
 214 530 218 535 243 535 c 0
 321 535 363 484 363 427 c 0
 363 351 289 281 206 281 c 256
 133 281 83 324 83 403 c 0xfd80
243 491 m 0
 191 491 148 441 148 399 c 0xfd80
 148 364 175 333 215 333 c 0
 262 333 308 376 308 425 c 0
 308 463 279 491 243 491 c 0
273 195 m 0
 218 195 177 162 177 113 c 0xfb80
 177 76 206 58 234 58 c 0
 255 58 297 69 307 124 c 2
 319 192 l 1
 301 195 278 195 273 195 c 0
EndSplineSet
EndChar

StartChar: uni0E07
Encoding: 3591 3591 218
Width: 671
VWidth: 1533
Flags: W
HStem: 0 61<356 483> 339 55<431.022 519.376> 569 55<455.92 565.913>
VStem: 354 57<413.758 524.786> 587 93<448.772 549.039>
LayerCount: 2
Fore
SplineSet
354 457 m 0
 354 530 416 624 536 624 c 0
 628 624 680 576 680 495 c 0
 680 483 678 470 676 457 c 2
 595 0 l 1
 293 0 l 1
 272 109 187 301 64 365 c 1
 190 438 l 1
 298 370 350 160 356 61 c 1
 483 61 l 1
 534 351 l 1
 513 343 493 339 474 339 c 256
 404 339 354 391 354 457 c 0
514 569 m 256
 463 569 411 522 411 465 c 0
 411 424 443 394 483 394 c 256
 533 394 587 439 587 497 c 0
 587 539 555 569 514 569 c 256
EndSplineSet
EndChar

StartChar: uni0E08
Encoding: 3592 3592 219
Width: 699
VWidth: 1533
Flags: W
HStem: 0 21G<481.522 620.5> 144 51<268.922 383.988> 370 53<291.865 406.633> 570 54<333.143 536.213>
VStem: 192 58<213.509 328.181> 592 118<336.586 518.486>
LayerCount: 2
Fore
SplineSet
524 153 m 1
 538 224 592 394 592 452 c 0
 592 507 559 570 437 570 c 0
 330 570 222 506 201 385 c 1
 68 385 l 1
 135 607 371 624 446 624 c 0
 605 624 710 561 710 432 c 0
 710 335 634 151 607 0 c 1
 486 0 l 1
 441 201 l 1
 405 163 360 144 313 144 c 0
 233 144 192 198 192 260 c 0
 192 336 259 423 363 423 c 0
 417 423 475 401 491 316 c 2
 524 153 l 1
353 370 m 256
 296 370 250 319 250 266 c 0
 250 228 276 195 322 195 c 256
 380 195 427 246 427 297 c 0
 427 337 399 370 353 370 c 256
EndSplineSet
EndChar

StartChar: uni0E09
Encoding: 3593 3593 220
Width: 797
VWidth: 1533
Flags: W
HStem: -12 56<560.048 674.221> 106 55<118.637 207.376> 336 55<140.921 253.897> 570 54<362.911 610.255>
VStem: 42 56<181.726 292.407> 275 92<215.252 314.985> 471 69<64.105 128.548> 676 120<418.471 514.518> 717 68<88.1355 198.819>
LayerCount: 2
Fore
SplineSet
42 224 m 0xfe80
 42 297 104 391 224 391 c 0
 316 391 367 343 367 264 c 0
 367 251 366 238 363 224 c 2
 343 110 l 1
 514 240 585 267 648 285 c 1
 674 429 l 2
 675 436 676 443 676 451 c 0
 676 505 639 570 487 570 c 0
 362 570 275 520 233 422 c 1
 108 422 l 1
 140 491 227 624 496 624 c 0
 641 624 796 587 796 445 c 0xff
 796 432 795 419 792 405 c 2
 770 278 l 1
 739 268 729 262 720 256 c 1
 757 242 785 200 785 153 c 0
 785 70 702 -12 604 -12 c 0
 527 -12 471 43 471 113 c 0
 471 118 471 124 472 129 c 1
 446 114 401 86 316 0 c 1
 201 0 l 1
 222 118 l 1
 201 110 181 106 162 106 c 256
 93 106 42 156 42 224 c 0xfe80
645 219 m 256
 584 219 540 165 540 117 c 0
 540 77 569 44 614 44 c 256
 669 44 717 95 717 148 c 0xfe80
 717 189 685 219 645 219 c 256
202 336 m 256
 143 336 98 282 98 233 c 0
 98 194 126 161 171 161 c 256
 221 161 275 206 275 264 c 0
 275 306 243 336 202 336 c 256
EndSplineSet
EndChar

StartChar: uni0E0A
Encoding: 3594 3594 221
Width: 745
VWidth: 1533
Flags: W
HStem: 0 61<276 557> 281 55<171.677 280.785> 501 46<234.945 243.023 238.984 304.076> 572 52<238.901 392.544>
VStem: 82 72<353.523 461.171> 322 57<376.261 483.245> 443 84<368.724 522.263> 613 121<367.828 441.167>
LayerCount: 2
Fore
SplineSet
82 404 m 0
 82 514 187 624 337 624 c 256
 448 624 527 557 527 459 c 0
 527 356 446 249 301 202 c 1
 276 61 l 1
 557 61 l 1
 611 370 l 2
 612 378 613 385 613 392 c 0
 613 440 582 462 549 474 c 1
 615 497 658 565 666 613 c 1
 807 613 l 1
 795 576 739 504 648 477 c 1
 710 462 734 423 734 383 c 0
 734 377 733 371 732 365 c 2
 668 0 l 1
 143 0 l 1
 180 209 l 1
 279 229 443 305 443 449 c 0
 443 516 403 572 314 572 c 0
 277 572 244 557 234 547 c 1
 240 547 247 548 252 548 c 0
 328 548 379 505 379 438 c 0
 379 344 293 281 214 281 c 0
 156 281 82 315 82 404 c 0
252 501 m 256
 199 501 154 454 154 403 c 0
 154 364 184 336 223 336 c 256
 280 336 322 389 322 432 c 0
 322 470 295 501 252 501 c 256
EndSplineSet
EndChar

StartChar: uni0E0B
Encoding: 3595 3595 222
Width: 791
VWidth: 1533
Flags: W
HStem: 0 61<307 603> 267 55<162.193 271.459> 488 42<211.003 218.117 214.56 293.551> 572 52<228.315 326.759 389.915 467.547>
VStem: 73 71<339.572 446.198> 311 58<362.104 471.053> 485 99<396.665 555.469> 659 121<367.828 441.167>
LayerCount: 2
Fore
SplineSet
73 396 m 0
 73 513 172 624 285 624 c 0
 340 624 362 597 367 583 c 1
 374 591 408 624 458 624 c 0
 527 624 584 584 584 494 c 0
 584 327 427 251 334 218 c 1
 307 61 l 1
 603 61 l 1
 657 370 l 2
 658 378 659 385 659 392 c 0
 659 440 628 462 595 474 c 1
 661 497 704 565 712 613 c 1
 853 613 l 1
 841 576 785 504 694 477 c 1
 756 462 780 423 780 383 c 0
 780 377 779 371 778 365 c 2
 714 0 l 1
 173 0 l 1
 213 225 l 1
 321 264 485 330 485 487 c 0
 485 540 462 570 429 570 c 0
 401 570 374 546 360 527 c 1
 338 568 304 572 285 572 c 0
 248 572 222 549 210 530 c 1
 213 530 217 535 241 535 c 0
 311 535 369 495 369 423 c 0
 369 331 284 267 203 267 c 0
 135 267 73 309 73 396 c 0
242 488 m 256
 189 488 144 437 144 391 c 0
 144 350 174 322 213 322 c 256
 265 322 311 369 311 420 c 0
 311 457 285 488 242 488 c 256
EndSplineSet
EndChar

StartChar: uni0E0C
Encoding: 3596 3596 223
Width: 1091
VWidth: 1533
Flags: W
HStem: -8 56<213.961 326.311 578.655 695.799> 222 56<260.916 349.049> 570 54<353.744 555.991>
VStem: 101 92<68.6942 167.269> 370 56<92.0151 200.77> 497 63<64.2252 175.95> 610 119<409.4 414 414 432.523 432.523 442.023 437.273 519.23>
LayerCount: 2
Fore
SplineSet
426 157 m 0
 426 84 361 -8 244 -8 c 0
 152 -8 101 40 101 120 c 0
 101 132 103 145 105 159 c 2
 124 268 l 2
 133 316 184 370 254 380 c 1
 108 380 l 1
 151 544 304 624 467 624 c 0
 575 624 732 588 732 451 c 0
 732 439 731 427 729 414 c 2
 704 274 l 1
 802 231 895 124 910 103 c 1
 1000 613 l 1
 1123 613 l 1
 1015 0 l 1
 902 0 l 1
 836 84 802 116 795 123 c 1
 783 54 712 -11 624 -11 c 0
 546 -11 497 44 497 106 c 0
 497 153 527 223 594 251 c 1
 580 261 l 1
 610 429 l 2
 612 438 612 447 612 455 c 0
 612 532 548 570 458 570 c 256
 359 570 264 519 246 422 c 1
 342 422 l 1
 335 382 l 1
 286 365 257 331 249 282 c 2
 246 265 l 1
 266 274 287 278 307 278 c 256
 381 278 426 220 426 157 c 0
665 219 m 256
 604 219 560 165 560 117 c 0
 560 77 589 44 634 44 c 256
 689 44 737 95 737 148 c 0
 737 189 705 219 665 219 c 256
297 222 m 256
 237 222 193 168 193 120 c 0
 193 81 221 48 266 48 c 256
 315 48 370 93 370 150 c 0
 370 192 337 222 297 222 c 256
EndSplineSet
EndChar

StartChar: uni0E0D
Encoding: 3597 3597 224
Width: 1085
VWidth: 1533
Flags: W
HStem: -311 58<560.082 675.434> -78 47<583.615 699.132> -8 56<213.961 326.311> 0 61<667 896> 222 56<260.916 349.049> 570 54<353.744 555.991>
VStem: 101 92<68.6942 167.269> 370 56<92.0151 200.77> 488 53<-233.093 -121.28> 610 119<409.243 414 414 432.523 432.523 442.023 437.273 519.23> 719 56<-209.682 -97.5968>
LayerCount: 2
Fore
SplineSet
426 157 m 0xdfc0
 426 84 361 -8 244 -8 c 0xefc0
 152 -8 101 40 101 120 c 0
 101 132 103 145 105 159 c 2
 124 268 l 2
 133 316 184 370 254 380 c 1
 108 380 l 1
 151 544 304 624 467 624 c 0
 575 624 732 588 732 451 c 0
 732 439 731 427 729 414 c 2
 667 61 l 1
 896 61 l 1
 993 613 l 1
 1115 613 l 1
 1007 0 l 1
 534 0 l 1
 610 429 l 2
 612 438 612 447 612 455 c 0
 612 532 548 570 458 570 c 256
 359 570 264 519 246 422 c 1
 342 422 l 1
 335 382 l 1
 286 365 257 331 249 282 c 2
 246 265 l 1
 266 274 287 278 307 278 c 256
 381 278 426 220 426 157 c 0xdfc0
488 -195 m 0
 488 -98 574 -31 656 -31 c 256
 720 -31 775 -68 775 -139 c 0xcfa0
 775 -172 761 -227 733 -251 c 1
 798 -237 871 -147 871 -49 c 1
 989 -49 l 1
 957 -187 829 -311 658 -311 c 0
 559 -311 488 -275 488 -195 c 0
645 -78 m 256
 588 -78 541 -128 541 -183 c 0
 541 -222 569 -253 614 -253 c 256
 677 -253 719 -197 719 -150 c 0
 719 -107 688 -78 645 -78 c 256
297 222 m 256
 237 222 193 168 193 120 c 0
 193 81 221 48 266 48 c 256xef80
 315 48 370 93 370 150 c 0
 370 192 337 222 297 222 c 256
EndSplineSet
Substitution2: "Single Substitution lookup 22 subtable" uni0E0D.alt1
Substitution2: "Single Substitution lookup 22 subtable" uni0E0D.alt1
EndChar

StartChar: uni0E0E
Encoding: 3598 3598 225
Width: 873
VWidth: 1533
Flags: W
HStem: -270 57<204.699 324.766> -115 66<533.425 597.951> -103 62<207.789 390.435> -8 56<113.526 225.48> 222 52<136.525 249.729> 570 54<492.795 696.281>
VStem: 37 57<68.7001 178.316> 70 110<-201.735 -130.281> 749 120<409.252 414 414 432 432 442.5 437.25 519.528>
LayerCount: 2
Fore
SplineSet
37 110 m 0xde80
 37 193 113 274 206 274 c 0
 235 274 253 271 263 267 c 1
 266 281 l 2
 275 335 342 368 394 380 c 1
 248 380 l 1
 291 544 444 624 607 624 c 0
 731 624 872 578 872 450 c 0
 872 438 871 426 869 414 c 2
 750 -261 l 1
 619 -261 l 1
 576 -231 534 -201 472 -167 c 1
 415 -198 347 -270 222 -270 c 0
 144 -270 70 -242 70 -179 c 0
 70 -94 180 -41 287 -41 c 0xbd80
 363 -41 395 -52 476 -90 c 1
 503 -76 541 -61 621 -49 c 1
 610 -115 l 1
 596 -116 546 -129 546 -129 c 1
 604 -158 633 -181 640 -186 c 1
 749 429 l 2
 751 438 751 447 751 456 c 0
 751 532 688 570 598 570 c 256
 496 570 402 517 385 422 c 1
 482 422 l 1
 475 382 l 1
 426 365 397 331 389 282 c 2
 368 163 l 2
 349 54 267 -8 165 -8 c 0
 75 -8 37 51 37 110 c 0xde80
197 222 m 256
 138 222 94 167 94 119 c 0x9e80
 94 78 126 48 166 48 c 256
 215 48 270 93 270 150 c 0
 270 192 237 222 197 222 c 256
281 -103 m 0xbd80
 220 -103 180 -137 180 -171 c 0
 180 -204 224 -213 247 -213 c 0
 282 -213 320 -205 411 -135 c 1
 377 -115 333 -103 281 -103 c 0xbd80
EndSplineSet
Substitution2: "Single Substitution lookup 22 subtable" uni0E0E.alt1
Substitution2: "Single Substitution lookup 22 subtable" uni0E0E.alt1
EndChar

StartChar: uni0E0F
Encoding: 3599 3599 226
Width: 873
VWidth: 1533
Flags: W
HStem: -279 60<97.1322 218.642> -104 60<102.809 263.75> -8 56<113.526 225.48> 222 52<136.525 249.729> 570 54<492.795 696.281>
VStem: -17 91<-208.866 -130.575> 37 57<68.7001 178.316> 749 120<409.308 414 414 432 432 442.5 437.25 521.977>
LayerCount: 2
Fore
SplineSet
37 110 m 0xfb
 37 193 113 274 206 274 c 0
 235 274 253 271 263 267 c 1
 266 281 l 2
 275 335 342 368 394 380 c 1
 248 380 l 1
 291 544 444 624 607 624 c 0
 731 624 872 578 872 450 c 0
 872 438 871 426 869 414 c 2
 750 -261 l 1
 624 -261 l 1
 542 -172 l 1
 418 -273 l 1
 378 -218 352 -198 336 -179 c 1
 284 -221 218 -279 121 -279 c 0
 73 -279 -17 -260 -17 -186 c 0xfd
 -17 -101 77 -44 188 -44 c 0
 241 -44 294 -58 349 -92 c 1
 388 -64 414 -52 458 -43 c 1
 447 -110 l 1
 432 -113 398 -130 397 -130 c 1
 413 -147 430 -162 441 -175 c 1
 557 -86 l 1
 642 -173 l 1
 749 429 l 2
 751 438 751 447 751 456 c 0
 751 533 688 570 598 570 c 256
 496 570 402 517 385 422 c 1
 482 422 l 1
 475 382 l 1
 426 365 397 331 389 282 c 2
 368 163 l 2
 349 54 267 -8 165 -8 c 0
 75 -8 37 51 37 110 c 0xfb
197 222 m 256
 138 222 94 167 94 119 c 0xfb
 94 78 126 48 166 48 c 256
 215 48 270 93 270 150 c 0
 270 192 237 222 197 222 c 256
175 -104 m 256
 137 -104 74 -123 74 -176 c 0xfd
 74 -211 115 -219 140 -219 c 0
 191 -219 220 -202 294 -144 c 1
 260 -120 225 -104 175 -104 c 256
EndSplineSet
Substitution2: "Single Substitution lookup 22 subtable" uni0E0F.alt1
Substitution2: "Single Substitution lookup 22 subtable" uni0E0F.alt1
EndChar

StartChar: uni0E10
Encoding: 3600 3600 227
Width: 665
VWidth: 1533
Flags: W
HStem: -262 80<352.914 494.957> -253 46<2.92673 82.8017> -121 46<-0.694214 111.355> -75 44<410.364 509.161> 0 21G<447.169 574> 95 45<182.604 303.129> 333 44<208.051 328.582> 397 49<231 547> 498 59<478.155 579.011> 558 63<295.099 430.898>
VStem: -84 71<-200.95 -134.888> 101 56<164.709 281.01> 336 55<-173.769 -94.948> 516 60<-164.038 -82.2565>
LayerCount: 2
Fore
SplineSet
101 211 m 0x3ffc
 101 295 179 377 276 377 c 0
 369 377 400 323 415 285 c 2
 476 126 l 1
 486 209 531 308 547 397 c 1
 78 397 l 1
 101 526 191 621 328 621 c 256
 448 621 466 557 530 557 c 0
 559 557 591 578 597 613 c 1
 738 613 l 1
 703 505 598 498 565 498 c 0
 475 498 444 558 365 558 c 0
 288 558 239 495 231 446 c 1
 682 446 l 1
 679 429 l 2
 654 292 578 94 570 0 c 1
 455 0 l 1
 381 189 l 1
 352 129 282 95 227 95 c 0
 150 95 101 146 101 211 c 0x3ffc
576 -119 m 0
 576 -194 503 -262 403 -262 c 0xbffc
 344 -262 297 -240 269 -213 c 1
 259 -227 245 -238 228 -255 c 1
 176 -255 l 1
 169 -234 161 -219 155 -209 c 1
 122 -231 72 -253 24 -253 c 0x7ffc
 -15 -253 -84 -237 -84 -178 c 0
 -84 -110 -6 -75 58 -75 c 0
 107 -75 149 -94 169 -117 c 1
 201 -74 205 -65 209 -51 c 1
 276 -51 l 1
 261 -93 231 -140 207 -163 c 1
 209 -166 220 -184 221 -190 c 1
 278 -133 l 1
 291 -164 332 -203 386 -210 c 1
 359 -198 336 -173 336 -139 c 0
 336 -87 392 -31 472 -31 c 256
 526 -31 576 -60 576 -119 c 0
237 140 m 0
 304 140 353 201 353 251 c 0
 353 295 322 333 272 333 c 0
 210 333 157 276 157 219 c 0
 157 174 192 140 237 140 c 0
464 -75 m 256
 420 -75 391 -109 391 -137 c 0
 391 -164 413 -182 445 -182 c 256
 481 -182 516 -157 516 -119 c 0
 516 -93 495 -75 464 -75 c 256
51 -121 m 0
 23 -121 -13 -139 -13 -172 c 0
 -13 -199 18 -207 38 -207 c 0x7ffc
 60 -207 87 -201 130 -164 c 1
 111 -137 86 -121 51 -121 c 0
EndSplineSet
Substitution2: "Single Substitution lookup 22 subtable" uni0E10.alt1
Substitution2: "Single Substitution lookup 22 subtable" uni0E10.alt1
EndChar

StartChar: uni0E11
Encoding: 3601 3601 228
Width: 910
VWidth: 1533
Flags: W
HStem: 0 21G<262 392.825 711 837.509> 282 52<158.476 262.985> 492 40<205.526 214.886 210.206 284.055> 573 53<224.752 327.609 392.062 492.958>
VStem: 74 67<351.317 455.187> 301 55<371.564 475.259> 473 116<438.067 564.244>
LayerCount: 2
Fore
SplineSet
74 403 m 0
 74 513 167 626 285 626 c 0
 338 626 362 598 367 584 c 1
 387 606 426 626 467 626 c 0
 522 626 589 604 589 519 c 0
 589 422 531 407 465 344 c 0
 449 331 440 312 436 288 c 2
 407 127 l 1
 822 621 l 1
 885 621 929 600 929 549 c 0
 929 543 928 537 927 530 c 2
 834 0 l 1
 711 0 l 1
 800 504 l 1
 376 0 l 1
 262 0 l 1
 306 251 l 2
 318 317 374 327 438 405 c 0
 459 428 473 473 473 509 c 0
 473 544 460 572 429 572 c 0
 405 572 380 555 360 529 c 1
 338 571 301 573 285 573 c 0
 252 573 219 555 204 532 c 1
 207 532 214 536 236 536 c 0
 319 536 356 483 356 428 c 0
 356 342 269 282 199 282 c 256
 143 282 74 312 74 403 c 0
236 492 m 0
 189 492 141 449 141 400 c 0
 141 366 168 334 208 334 c 0
 249 334 301 375 301 426 c 0
 301 464 272 492 236 492 c 0
EndSplineSet
EndChar

StartChar: uni0E12
Encoding: 3602 3602 229
Width: 1117
VWidth: 1533
Flags: W
HStem: -11 55<606.175 720.049> 202 53<366.645 435.453> 429 52<389.267 501.468> 570 56<329.755 437.399 532.703 632.475>
VStem: 289 57<275.656 386.365> 523 63<66.1599 174.95 298.89 408.281> 641 120<441 449 461 464.113 464.113 474.883 469.498 558.186>
LayerCount: 2
Fore
SplineSet
585 369 m 0
 585 254 447 86 190 0 c 1
 78 0 l 1
 116 153 113 291 130 389 c 0
 150 506 243 626 380 626 c 0
 449 626 476 593 485 567 c 1
 513 597 557 626 616 626 c 0
 682 626 765 598 765 492 c 0
 765 479 764 465 761 449 c 2
 730 274 l 1
 828 231 921 124 936 103 c 1
 1026 613 l 1
 1149 613 l 1
 1041 0 l 1
 928 0 l 1
 858 89 823 121 821 123 c 1
 809 54 738 -11 650 -11 c 0
 572 -11 523 44 523 106 c 0
 523 153 553 223 620 251 c 1
 606 261 l 1
 641 461 l 2
 644 475 645 489 645 501 c 0
 645 541 629 570 585 570 c 0
 553 570 526 557 494 518 c 1
 450 518 l 1
 440 561 419 570 392 570 c 256
 313 570 272 485 259 415 c 0
 235 279 249 249 225 113 c 0
 222 99 219 86 217 72 c 1
 295 99 387 155 438 207 c 1
 432 205 422 202 408 202 c 0
 335 202 289 250 289 317 c 0
 289 412 374 481 459 481 c 256
 532 481 585 438 585 369 c 0
691 219 m 256
 630 219 586 165 586 117 c 0
 586 77 615 44 660 44 c 256
 715 44 763 95 763 148 c 0
 763 189 731 219 691 219 c 256
450 429 m 256
 401 429 346 384 346 327 c 0
 346 285 379 255 419 255 c 256
 478 255 522 310 522 358 c 0
 522 399 490 429 450 429 c 256
EndSplineSet
EndChar

StartChar: uni0E13
Encoding: 3603 3603 230
Width: 1091
VWidth: 1533
Flags: W
HStem: -8 56<213.961 326.311 852.018 969.811> 222 56<260.916 349.049> 570 54<353.744 555.991>
VStem: 101 92<68.6942 167.269> 370 56<92.0151 200.77> 610 119<409.243 414 414 432.523 432.523 442.023 437.273 519.23> 765 68<64.7218 123.336> 1010 70<88.5722 198.777>
LayerCount: 2
Fore
SplineSet
426 157 m 0
 426 84 361 -8 244 -8 c 0
 152 -8 101 40 101 120 c 0
 101 132 103 145 105 159 c 2
 124 268 l 2
 133 316 184 370 254 380 c 1
 108 380 l 1
 151 544 304 624 467 624 c 0
 575 624 732 588 732 451 c 0
 732 439 731 427 729 414 c 2
 675 107 l 1
 743 182 828 257 941 285 c 1
 999 613 l 1
 1121 613 l 1
 1062 278 l 1
 1042 272 1031 267 1012 256 c 1
 1050 243 1080 200 1080 152 c 0
 1080 65 989 -12 896 -12 c 0
 817 -12 765 39 765 106 c 0
 765 112 765 118 766 124 c 1
 747 111 676 41 658 0 c 1
 534 0 l 1
 610 429 l 2
 612 438 612 447 612 455 c 0
 612 532 548 570 458 570 c 256
 359 570 264 519 246 422 c 1
 342 422 l 1
 335 382 l 1
 286 365 257 331 249 282 c 2
 246 265 l 1
 266 274 287 278 307 278 c 256
 381 278 426 220 426 157 c 0
937 219 m 256
 885 219 833 171 833 118 c 0
 833 78 861 44 906 44 c 256
 962 44 1010 95 1010 147 c 0
 1010 186 982 219 937 219 c 256
297 222 m 256
 237 222 193 168 193 120 c 0
 193 81 221 48 266 48 c 256
 315 48 370 93 370 150 c 0
 370 192 337 222 297 222 c 256
EndSplineSet
EndChar

StartChar: uni0E14
Encoding: 3604 3604 231
Width: 758
VWidth: 1533
Flags: W
HStem: 0 21G<78 319 560 685.506> 212 52<361.2 434.502> 438 53<382.354 495.804> 570 54<376.519 576.316>
VStem: 282 58<284.647 395.068> 517 62<309.504 417.513> 635 118<408.027 420.684 420.684 440 430.342 515.059>
LayerCount: 2
Fore
SplineSet
579 379 m 0
 579 271 456 92 182 0 c 1
 78 0 l 1
 116 153 113 291 130 389 c 0
 159 555 349 624 489 624 c 0
 622 624 757 576 757 444 c 0
 757 432 755 419 753 405 c 2
 682 0 l 1
 560 0 l 1
 635 428 l 2
 636 436 637 444 637 452 c 0
 637 523 575 570 480 570 c 0
 371 570 276 511 258 406 c 0
 242 316 233 138 215 75 c 1
 322 114 407 180 440 218 c 1
 429 214 416 212 403 212 c 0
 323 212 282 264 282 327 c 0
 282 411 358 491 453 491 c 256
 526 491 579 447 579 379 c 0
443 438 m 256
 393 438 340 392 340 336 c 0
 340 294 373 264 413 264 c 256
 474 264 517 320 517 365 c 0
 517 405 488 438 443 438 c 256
EndSplineSet
EndChar

StartChar: uni0E15
Encoding: 3605 3605 232
Width: 758
VWidth: 1533
Flags: W
HStem: 0 21G<78 318.5 560 685.519> 202 53<367.468 435.267> 429 52<390.593 501.468> 570 56<329.755 437.399 532.703 632.475>
VStem: 288 58<275.577 385.919> 522 63<298.89 408.281> 641 120<441.08 449 461 464.113 464.113 474.883 469.498 558.186>
LayerCount: 2
Fore
SplineSet
585 369 m 0
 585 254 447 86 190 0 c 1
 78 0 l 1
 116 153 113 291 130 389 c 0
 150 506 243 626 380 626 c 0
 449 626 476 593 485 567 c 1
 513 597 557 626 616 626 c 0
 682 626 765 598 765 492 c 0
 765 479 764 465 761 449 c 2
 682 0 l 1
 560 0 l 1
 641 461 l 2
 644 475 645 489 645 501 c 0
 645 541 629 570 585 570 c 0
 553 570 526 557 494 518 c 1
 450 518 l 1
 440 561 419 570 392 570 c 256
 313 570 272 485 259 415 c 0
 235 279 249 249 225 113 c 0
 222 99 219 86 217 72 c 1
 295 99 387 155 438 207 c 1
 425 203 416 202 410 202 c 0
 329 202 288 255 288 318 c 0
 288 409 372 481 459 481 c 256
 532 481 585 438 585 369 c 0
450 429 m 256
 401 429 346 384 346 327 c 0
 346 285 379 255 419 255 c 256
 478 255 522 310 522 358 c 0
 522 399 490 429 450 429 c 256
EndSplineSet
EndChar

StartChar: uni0E16
Encoding: 3606 3606 233
Width: 732
VWidth: 1533
Flags: W
HStem: -8 56<213.961 326.311> 222 56<260.916 349.049> 570 54<353.744 555.991>
VStem: 101 92<68.6942 167.269> 370 56<92.0151 200.77> 610 119<409.243 414 414 432.523 432.523 442.023 437.273 519.23>
LayerCount: 2
Fore
SplineSet
426 157 m 0
 426 84 361 -8 244 -8 c 0
 152 -8 101 40 101 120 c 0
 101 132 103 145 105 159 c 2
 124 268 l 2
 133 316 184 370 254 380 c 1
 108 380 l 1
 151 544 304 624 467 624 c 0
 575 624 732 588 732 451 c 0
 732 439 731 427 729 414 c 2
 656 0 l 1
 534 0 l 1
 610 429 l 2
 612 438 612 447 612 455 c 0
 612 532 548 570 458 570 c 256
 359 570 264 519 246 422 c 1
 342 422 l 1
 335 382 l 1
 286 365 257 331 249 282 c 2
 246 265 l 1
 266 274 287 278 307 278 c 256
 381 278 426 220 426 157 c 0
297 222 m 256
 237 222 193 168 193 120 c 0
 193 81 221 48 266 48 c 256
 315 48 370 93 370 150 c 0
 370 192 337 222 297 222 c 256
EndSplineSet
EndChar

StartChar: uni0E17
Encoding: 3607 3607 234
Width: 826
VWidth: 1533
Flags: W
HStem: 0 21G<216 354.152 627 753.509> 339 55<175.022 263.376> 569 55<199.92 309.913>
VStem: 98 57<413.758 524.786> 331 93<448.772 549.039>
LayerCount: 2
Fore
SplineSet
98 457 m 0
 98 530 160 624 280 624 c 0
 372 624 424 576 424 495 c 0
 424 483 422 470 420 457 c 2
 361 123 l 1
 738 621 l 1
 801 621 845 600 845 549 c 0
 845 543 844 537 843 530 c 2
 750 0 l 1
 627 0 l 1
 714 495 l 1
 339 0 l 1
 216 0 l 1
 278 351 l 1
 257 343 237 339 218 339 c 256
 148 339 98 391 98 457 c 0
258 569 m 256
 207 569 155 522 155 465 c 0
 155 424 187 394 227 394 c 256
 277 394 331 439 331 497 c 0
 331 539 299 569 258 569 c 256
EndSplineSet
EndChar

StartChar: uni0E18
Encoding: 3608 3608 235
Width: 700
VWidth: 1533
Flags: W
HStem: 0 61<218 512> 386 54<250 569> 504 66<496.741 592.97> 557 64<317.5 462.809>
LayerCount: 2
Fore
SplineSet
543 570 m 0xe0
 588 570 602 603 606 613 c 1
 752 613 l 1
 731 538 668 504 589 504 c 0xe0
 499 504 471 557 392 557 c 0
 294 557 258 468 250 440 c 1
 702 440 l 1
 624 0 l 1
 84 0 l 1
 141 325 l 1
 264 325 l 1
 218 61 l 1
 512 61 l 1
 569 386 l 1
 108 386 l 1
 153 582 271 621 362 621 c 0xd0
 467 621 485 570 543 570 c 0xe0
EndSplineSet
EndChar

StartChar: uni0E19
Encoding: 3609 3609 236
Width: 812
VWidth: 1533
Flags: W
HStem: -12 56<580.021 693.375> 345 49<172.523 270.555> 569 55<197.674 309.537>
VStem: 98 55<413.905 524.38> 330 97<448.158 548.195> 493 67<64.4835 123.751> 737 70<88.5821 198.794>
LayerCount: 2
Fore
SplineSet
98 462 m 0
 98 532 164 624 280 624 c 0
 373 624 427 574 427 493 c 0
 427 482 426 470 424 457 c 2
 364 118 l 1
 433 170 542 239 668 285 c 1
 726 613 l 1
 849 613 l 1
 790 278 l 1
 770 272 759 267 740 256 c 1
 777 243 807 200 807 152 c 0
 807 73 726 -12 625 -12 c 0
 545 -12 493 39 493 106 c 0
 493 112 493 118 494 124 c 1
 440 89 375 42 333 -2 c 1
 221 -2 l 1
 284 356 l 1
 267 349 245 345 224 345 c 0
 148 345 98 397 98 462 c 0
665 219 m 256
 604 219 560 165 560 117 c 0
 560 77 589 44 634 44 c 256
 689 44 737 95 737 148 c 0
 737 189 705 219 665 219 c 256
256 569 m 256
 205 569 153 522 153 465 c 0
 153 424 185 394 225 394 c 256
 276 394 330 439 330 497 c 0
 330 539 298 569 256 569 c 256
EndSplineSet
EndChar

StartChar: uni0E1A
Encoding: 3610 3610 237
Width: 827
VWidth: 1533
Flags: W
HStem: 0 61<350 640> 339 55<175.022 263.376> 569 55<199.92 309.913>
VStem: 98 57<413.758 524.786> 331 93<448.772 549.039>
LayerCount: 2
Fore
SplineSet
98 457 m 0
 98 530 160 624 280 624 c 0
 372 624 424 576 424 495 c 0
 424 483 422 470 420 457 c 2
 350 61 l 1
 640 61 l 1
 737 613 l 1
 859 613 l 1
 751 0 l 1
 216 0 l 1
 278 351 l 1
 257 343 237 339 218 339 c 256
 148 339 98 391 98 457 c 0
258 569 m 256
 207 569 155 522 155 465 c 0
 155 424 187 394 227 394 c 256
 277 394 331 439 331 497 c 0
 331 539 299 569 258 569 c 256
EndSplineSet
EndChar

StartChar: uni0E1B
Encoding: 3611 3611 238
Width: 827
VWidth: 1533
Flags: W
HStem: 0 61<350 640> 339 55<175.022 263.376> 569 55<199.92 309.913>
VStem: 98 57<413.758 524.786> 331 93<448.772 549.039>
LayerCount: 2
Fore
SplineSet
98 457 m 0
 98 530 160 624 280 624 c 0
 372 624 424 576 424 495 c 0
 424 483 422 470 420 457 c 2
 350 61 l 1
 640 61 l 1
 772 813 l 1
 894 813 l 1
 751 0 l 1
 216 0 l 1
 278 351 l 1
 257 343 237 339 218 339 c 256
 148 339 98 391 98 457 c 0
258 569 m 256
 207 569 155 522 155 465 c 0
 155 424 187 394 227 394 c 256
 277 394 331 439 331 497 c 0
 331 539 299 569 258 569 c 256
EndSplineSet
EndChar

StartChar: uni0E1C
Encoding: 3612 3612 239
Width: 771
VWidth: 1533
Flags: MW
HStem: 0 21G<77 214.871 564.226 698.524> 248 92<430 448> 345 47<267.962 372.388> 575 49<283.258 396.607>
VStem: 420 58<440.298 551.635>
LayerCount: 2
Fore
SplineSet
478 508 m 0
 478 417 390 345 305 345 c 0
 284 345 265 348 249 354 c 1
 235 252 233 157 217 104 c 1
 448 340 l 1
 591 106 l 1
 680 613 l 1
 803 613 l 1
 695 0 l 1
 576 0 l 1
 430 248 l 1
 196 0 l 1
 77 0 l 1
 134 328 105 484 216 579 c 0
 251 609 295 624 346 624 c 0
 437 624 478 568 478 508 c 0
345 575 m 0
 283 575 236 517 236 470 c 0
 236 428 266 392 313 392 c 0
 363 392 420 442 420 499 c 0
 420 542 386 575 345 575 c 0
EndSplineSet
EndChar

StartChar: uni0E1D
Encoding: 3613 3613 240
Width: 771
VWidth: 1533
Flags: MW
HStem: 0 21G<77 214.871 564.226 698.518> 248 92<430 448> 345 47<267.962 372.388> 575 49<283.258 396.607>
VStem: 420 58<440.298 551.635>
LayerCount: 2
Fore
SplineSet
478 508 m 0
 478 417 390 345 305 345 c 0
 284 345 265 348 249 354 c 1
 235 252 233 157 217 104 c 1
 448 340 l 1
 591 106 l 1
 715 813 l 1
 838 813 l 1
 695 0 l 1
 576 0 l 1
 430 248 l 1
 196 0 l 1
 77 0 l 1
 134 328 105 484 216 579 c 0
 251 609 295 624 346 624 c 0
 437 624 478 568 478 508 c 0
345 575 m 0
 283 575 236 517 236 470 c 0
 236 428 266 392 313 392 c 0
 363 392 420 442 420 499 c 0
 420 542 386 575 345 575 c 0
EndSplineSet
EndChar

StartChar: uni0E1E
Encoding: 3614 3614 241
Width: 895
VWidth: 1533
Flags: W
HStem: 0 21G<216 364.749 678.3 822.524> 339 55<175.022 263.376> 569 55<199.92 309.913>
VStem: 98 57<413.758 524.786> 331 93<448.772 549.039>
LayerCount: 2
Fore
SplineSet
98 457 m 0
 98 530 160 624 280 624 c 0
 372 624 424 576 424 495 c 0
 424 483 422 470 420 457 c 2
 365 146 l 1
 631 629 l 1
 722 147 l 1
 804 613 l 1
 927 613 l 1
 819 0 l 1
 682 0 l 1
 598 454 l 1
 354 0 l 1
 216 0 l 1
 278 351 l 1
 257 343 237 339 218 339 c 256
 148 339 98 391 98 457 c 0
258 569 m 256
 207 569 155 522 155 465 c 0
 155 424 187 394 227 394 c 256
 277 394 331 439 331 497 c 0
 331 539 299 569 258 569 c 256
EndSplineSet
EndChar

StartChar: uni0E1F
Encoding: 3615 3615 242
Width: 895
VWidth: 1533
Flags: W
HStem: 0 21G<216 364.749 678.3 822.518> 339 55<175.022 263.376> 569 55<199.92 309.913>
VStem: 98 57<413.758 524.786> 331 93<448.772 549.039>
LayerCount: 2
Fore
SplineSet
98 457 m 0
 98 530 160 624 280 624 c 0
 372 624 424 576 424 495 c 0
 424 483 422 470 420 457 c 2
 365 146 l 1
 631 629 l 1
 722 147 l 1
 839 813 l 1
 962 813 l 1
 819 0 l 1
 682 0 l 1
 598 454 l 1
 354 0 l 1
 216 0 l 1
 278 351 l 1
 257 343 237 339 218 339 c 256
 148 339 98 391 98 457 c 0
258 569 m 256
 207 569 155 522 155 465 c 0
 155 424 187 394 227 394 c 256
 277 394 331 439 331 497 c 0
 331 539 299 569 258 569 c 256
EndSplineSet
EndChar

StartChar: uni0E20
Encoding: 3616 3616 243
Width: 873
VWidth: 1533
Flags: W
HStem: -8 56<113.526 225.48> 222 52<136.525 249.729> 570 54<492.795 696.281>
VStem: 37 57<68.7001 178.316> 749 120<409.243 414 414 432 432 442.5 437.25 519.528>
LayerCount: 2
Fore
SplineSet
37 110 m 0
 37 193 113 274 206 274 c 0
 235 274 253 271 263 267 c 1
 266 281 l 2
 275 335 342 368 394 380 c 1
 248 380 l 1
 291 544 444 624 607 624 c 0
 731 624 872 578 872 450 c 0
 872 438 871 426 869 414 c 2
 796 0 l 1
 673 0 l 1
 749 429 l 2
 751 438 751 447 751 456 c 0
 751 532 688 570 598 570 c 256
 496 570 402 517 385 422 c 1
 482 422 l 1
 475 382 l 1
 426 365 397 331 389 282 c 2
 368 163 l 2
 349 54 267 -8 165 -8 c 0
 75 -8 37 51 37 110 c 0
197 222 m 256
 138 222 94 167 94 119 c 0
 94 78 126 48 166 48 c 256
 215 48 270 93 270 150 c 0
 270 192 237 222 197 222 c 256
EndSplineSet
EndChar

StartChar: uni0E21
Encoding: 3617 3617 244
Width: 806
VWidth: 1533
Flags: W
HStem: -8 66<151.119 231.986> 205 63<176.065 265.119 260.323 269.914 269.914 283> 339 55<205.637 294.376> 569 55<227.921 340.913>
VStem: 70 70<68.3838 170.182> 129 56<414.726 525.407> 362 93<448.772 549.039>
LayerCount: 2
Fore
SplineSet
129 457 m 0xf6
 129 530 191 624 311 624 c 0
 403 624 455 576 455 495 c 0
 455 483 453 470 451 457 c 2
 411 233 l 1
 621 77 l 1
 715 613 l 1
 838 613 l 1
 730 0 l 1
 609 0 l 1
 399 163 l 1
 395 144 l 2
 378 45 304 -8 200 -8 c 0
 111 -8 70 47 70 106 c 0xfa
 70 186 138 268 256 268 c 0
 279 268 283 267 294 267 c 1
 309 351 l 1
 288 343 268 339 249 339 c 256
 180 339 129 389 129 457 c 0xf6
289 569 m 256
 230 569 185 515 185 466 c 0xf6
 185 427 213 394 258 394 c 256
 308 394 362 439 362 497 c 0
 362 539 330 569 289 569 c 256
237 205 m 0
 187 205 140 168 140 114 c 0xfa
 140 78 166 58 196 58 c 0
 217 58 259 69 269 124 c 2
 283 202 l 1
 274 204 260 205 237 205 c 0
EndSplineSet
EndChar

StartChar: uni0E22
Encoding: 3618 3618 245
Width: 751
VWidth: 1533
Flags: W
HStem: 0 61<259 563> 339 50<302.123 416.912> 555 66<327.215 437.316>
VStem: 104 93<343.483 480.682> 228 57<406.203 491.722> 455 58<428.646 536.969>
LayerCount: 2
Fore
SplineSet
242 506 m 1
 218 495 197 446 197 408 c 0
 197 333 262 297 328 297 c 0
 352 297 381 302 413 317 c 1
 432 276 l 1
 402 267 288 229 276 159 c 2
 259 61 l 1
 563 61 l 1
 660 613 l 1
 783 613 l 1
 675 0 l 1
 126 0 l 1
 151 144 l 2
 158 182 206 234 269 250 c 1
 171 255 104 312 104 398 c 0
 104 509 201 621 350 621 c 0
 475 621 513 557 513 497 c 0
 513 404 426 339 347 339 c 0
 265 339 228 387 228 445 c 0
 228 470 233 490 242 506 c 1
385 555 m 256
 325 555 285 502 285 456 c 0
 285 415 315 389 356 389 c 256
 410 389 455 435 455 489 c 0
 455 528 426 555 385 555 c 256
EndSplineSet
EndChar

StartChar: uni0E23
Encoding: 3619 3619 246
Width: 668
VWidth: 1533
Flags: W
HStem: -11 51<347.535 465.857> 227 51<373.649 481.384> 386 54<210 529> 504 59<467.472 581.585> 557 64<279.972 435.192>
VStem: 266 58<63.5814 178.293>
LayerCount: 2
Fore
SplineSet
266 109 m 0xec
 266 190 344 278 445 278 c 0
 470 278 491 273 508 264 c 1
 529 386 l 1
 68 386 l 1
 92 492 153 621 328 621 c 0xec
 443 621 475 563 531 563 c 0
 577 563 592 596 597 613 c 1
 743 613 l 1
 713 512 605 504 566 504 c 0xf4
 476 504 422 557 353 557 c 0
 255 557 219 469 210 440 c 1
 662 440 l 1
 614 169 l 2
 593 50 492 -11 394 -11 c 0
 319 -11 266 41 266 109 c 0xec
436 227 m 256
 373 227 324 170 324 118 c 0
 324 75 355 40 403 40 c 256
 459 40 514 90 514 150 c 0
 514 192 483 227 436 227 c 256
EndSplineSet
EndChar

StartChar: uni0E24
Encoding: 3620 3620 247
Width: 732
VWidth: 1533
Flags: W
HStem: -199 21G<499 624.524> -8 56<213.961 326.311> 222 56<260.916 349.049> 570 54<353.744 555.991>
VStem: 101 92<68.6942 167.269> 370 56<92.0151 200.77> 610 119<409.198 414 414 432.523 432.523 442.023 437.273 519.23>
LayerCount: 2
Fore
SplineSet
426 157 m 0
 426 84 361 -8 244 -8 c 0
 152 -8 101 40 101 120 c 0
 101 132 103 145 105 159 c 2
 124 268 l 2
 133 316 184 370 254 380 c 1
 108 380 l 1
 151 544 304 624 467 624 c 0
 575 624 732 588 732 451 c 0
 732 439 731 427 729 414 c 2
 621 -199 l 1
 499 -199 l 1
 610 429 l 2
 612 438 612 447 612 455 c 0
 612 532 548 570 458 570 c 256
 359 570 264 519 246 422 c 1
 342 422 l 1
 335 382 l 1
 286 365 257 331 249 282 c 2
 246 265 l 1
 266 274 287 278 307 278 c 256
 381 278 426 220 426 157 c 0
297 222 m 256
 237 222 193 168 193 120 c 0
 193 81 221 48 266 48 c 256
 315 48 370 93 370 150 c 0
 370 192 337 222 297 222 c 256
EndSplineSet
EndChar

StartChar: uni0E25
Encoding: 3621 3621 248
Width: 777
VWidth: 1533
Flags: W
HStem: -11 59<203.106 319.572> 235 56<249.742 344.541> 388 57<332.417 521.598> 570 54<384.659 592.472>
VStem: 90 90<71.5141 184.719> 369 63<97.2051 211.707> 655 120<413.039 514.933>
LayerCount: 2
Fore
SplineSet
90 143 m 0
 90 285 209 445 432 445 c 0
 541 445 605 402 641 356 c 1
 653 426 l 2
 655 435 655 443 655 451 c 0
 655 529 584 570 490 570 c 256
 366 570 291 499 263 434 c 1
 137 434 l 1
 198 563 344 624 499 624 c 0
 723 624 775 523 775 436 c 0
 775 422 773 409 771 396 c 2
 701 0 l 1
 578 0 l 1
 610 182 l 2
 612 195 613 208 613 221 c 0
 613 328 527 388 425 388 c 0
 323 388 258 323 237 281 c 1
 255 288 276 291 301 291 c 0
 384 291 432 234 432 167 c 0
 432 70 336 -11 248 -11 c 0
 168 -11 90 32 90 143 c 0
291 235 m 256
 237 235 180 185 180 125 c 0
 180 80 214 48 258 48 c 256
 312 48 369 97 369 157 c 0
 369 202 335 235 291 235 c 256
EndSplineSet
EndChar

StartChar: uni0E26
Encoding: 3622 3622 249
Width: 873
VWidth: 1533
Flags: W
HStem: -199 21G<638 764.524> -8 56<113.526 225.48> 222 52<136.525 249.729> 570 54<492.795 696.281>
VStem: 37 57<68.7001 178.316> 749 120<409.198 414 414 432 432 442.5 437.25 519.528>
LayerCount: 2
Fore
SplineSet
37 110 m 0
 37 193 113 274 206 274 c 0
 235 274 253 271 263 267 c 1
 266 281 l 2
 275 335 342 368 394 380 c 1
 248 380 l 1
 291 544 444 624 607 624 c 0
 731 624 872 578 872 450 c 0
 872 438 871 426 869 414 c 2
 761 -199 l 1
 638 -199 l 1
 749 429 l 2
 751 438 751 447 751 456 c 0
 751 532 688 570 598 570 c 256
 496 570 402 517 385 422 c 1
 482 422 l 1
 475 382 l 1
 426 365 397 331 389 282 c 2
 368 163 l 2
 349 54 267 -8 165 -8 c 0
 75 -8 37 51 37 110 c 0
197 222 m 256
 138 222 94 167 94 119 c 0
 94 78 126 48 166 48 c 256
 215 48 270 93 270 150 c 0
 270 192 237 222 197 222 c 256
EndSplineSet
EndChar

StartChar: uni0E27
Encoding: 3623 3623 250
Width: 671
VWidth: 1533
Flags: W
HStem: -11 51<358.144 477.39> 227 51<384.254 492.284> 570 54<311.799 500.753>
VStem: 277 58<63.3971 178.516> 550 120<414.799 522.933>
LayerCount: 2
Fore
SplineSet
277 109 m 0
 277 199 363 278 455 278 c 0
 481 278 502 273 519 264 c 1
 547 426 l 2
 549 435 550 445 550 455 c 0
 550 510 519 570 408 570 c 0
 277 570 212 475 200 419 c 1
 74 419 l 1
 97 484 175 624 417 624 c 0
 561 624 670 577 670 448 c 0
 670 433 669 417 666 400 c 2
 625 169 l 2
 604 52 505 -11 404 -11 c 0
 330 -11 277 40 277 109 c 0
446 227 m 256
 390 227 335 176 335 117 c 0
 335 72 369 40 413 40 c 256
 472 40 525 91 525 151 c 0
 525 196 491 227 446 227 c 256
EndSplineSet
EndChar

StartChar: uni0E28
Encoding: 3624 3624 251
Width: 774
VWidth: 1533
Flags: W
HStem: 0 21G<78 205.959 575 701.506> 198 57<384.818 485.421> 570 54<382.507 536.936>
VStem: 525 57<293.81 402.146> 651 118<412.105 422.885 422.885 442 432.442 494.283>
LayerCount: 2
Fore
SplineSet
582 363 m 0
 582 276 510 198 417 198 c 0
 406 198 359 198 316 241 c 1
 196 0 l 1
 78 0 l 1
 93 72 l 0
 115 199 104 246 130 389 c 0
 157 544 342 624 496 624 c 0
 546 624 594 617 640 603 c 1
 660 625 678 649 692 675 c 1
 826 675 l 1
 810 650 793 624 710 566 c 1
 761 525 772 477 772 441 c 0
 772 427 771 414 769 405 c 2
 698 0 l 1
 575 0 l 1
 651 432 l 2
 652 439 653 445 653 452 c 0
 653 475 645 495 629 515 c 1
 586 492 542 471 520 463 c 1
 557 446 582 411 582 363 c 0
487 570 m 0
 378 570 275 506 258 411 c 0
 249 356 243 255 238 227 c 1
 298 351 l 2
 327 411 374 467 448 472 c 1
 517 505 557 532 581 550 c 1
 552 563 521 570 487 570 c 0
456 420 m 0
 408 420 357 376 357 324 c 0
 357 287 385 255 427 255 c 0
 471 255 525 295 525 352 c 0
 525 392 494 420 456 420 c 0
EndSplineSet
EndChar

StartChar: uni0E29
Encoding: 3625 3625 252
Width: 880
VWidth: 1533
Flags: W
HStem: 0 61<350 655> 152 49<604.27 654.272 648.046 660.498 660.498 671> 339 55<175.022 263.376> 354 46<508.141 603.162> 569 55<199.92 309.913>
VStem: 98 57<413.758 524.786> 331 93<448.772 549.039> 432 52<237.466 328.909> 613 52<267.917 344.653> 879 95<315.141 385>
LayerCount: 2
Fore
SplineSet
665 312 m 0xdfc0
 665 293 659 237 603 202 c 1
 612 201 621 201 631 201 c 0
 647 201 664 202 680 205 c 1
 752 613 l 1
 875 613 l 1
 815 274 l 1
 847 306 868 343 879 385 c 1
 974 385 l 1
 951 304 878 234 801 195 c 1
 767 0 l 1
 216 0 l 1
 278 351 l 1
 257 343 237 339 218 339 c 256xefc0
 148 339 98 391 98 457 c 0
 98 530 160 624 280 624 c 0
 372 624 424 576 424 495 c 0
 424 483 422 470 420 457 c 2
 350 61 l 1
 655 61 l 1
 671 155 l 1
 656 152 642 152 625 152 c 0
 542 152 432 176 432 269 c 0
 432 347 505 400 569 400 c 0
 623 400 665 367 665 312 c 0xdfc0
559 354 m 256xdfc0
 518 354 484 317 484 280 c 0
 484 249 507 228 537 228 c 256
 579 228 613 265 613 302 c 0
 613 331 592 354 559 354 c 256xdfc0
258 569 m 256
 207 569 155 522 155 465 c 0
 155 424 187 394 227 394 c 256xefc0
 277 394 331 439 331 497 c 0
 331 539 299 569 258 569 c 256
EndSplineSet
EndChar

StartChar: uni0E2A
Encoding: 3626 3626 253
Width: 777
VWidth: 1533
Flags: W
HStem: -11 59<203.106 319.572> 235 56<249.742 344.541> 388 57<333.274 440> 570 54<384.659 562.172>
VStem: 90 90<71.5141 185.877> 369 63<97.2051 211.707> 653 118<405.583 410.891 410.891 438.5 424.695 495.024>
LayerCount: 2
Fore
SplineSet
90 143 m 0
 90 268 189 445 440 445 c 1
 485 469 550 516 591 550 c 1
 561 563 528 570 490 570 c 0
 366 570 291 499 263 434 c 1
 137 434 l 1
 198 563 344 624 499 624 c 0
 556 624 603 617 642 604 c 1
 665 629 682 652 692 675 c 1
 826 675 l 1
 810 650 788 621 715 567 c 1
 736 550 775 513 775 439 c 0
 775 426 774 411 771 396 c 2
 701 0 l 1
 578 0 l 1
 610 182 l 2
 612 195 613 208 613 221 c 0
 613 328 527 388 425 388 c 0
 323 388 258 323 237 281 c 1
 255 288 276 291 301 291 c 0
 384 291 432 234 432 167 c 0
 432 70 336 -11 248 -11 c 0
 168 -11 90 32 90 143 c 0
653 426 m 2
 654 434 655 443 655 451 c 0
 655 474 648 495 635 514 c 1
 599 488 550 458 509 437 c 1
 524 433 584 421 641 356 c 1
 653 426 l 2
291 235 m 256
 237 235 180 185 180 125 c 0
 180 80 214 48 258 48 c 256
 312 48 369 97 369 157 c 0
 369 202 335 235 291 235 c 256
EndSplineSet
EndChar

StartChar: uni0E2B
Encoding: 3627 3627 254
Width: 824
VWidth: 1533
Flags: W
HStem: 0 21G<216 342.467 626 751.546> 339 55<175.022 263.376> 351 48<612.917 653.545> 569 55<199.92 309.913 629.403 746.912>
VStem: 98 57<413.758 524.786> 331 93<448.772 549.039> 527 62<419.475 528.817> 680 120<285.231 293.431 293.431 309.023 301.227 338.585> 766 63<441.963 552.078>
LayerCount: 2
Fore
SplineSet
829 510 m 0xde80
 829 460 800 410 761 385 c 1
 793 361 800 329 800 305 c 0
 800 296 799 288 798 282 c 2
 748 0 l 1
 626 0 l 1
 680 305 l 2
 680 308 681 311 681 313 c 0
 681 343 651 351 631 351 c 0
 538 351 386 268 365 150 c 2
 339 0 l 1
 216 0 l 1
 278 351 l 1xbf
 257 343 237 339 218 339 c 256
 148 339 98 391 98 457 c 0
 98 530 160 624 280 624 c 0
 372 624 424 576 424 495 c 0
 424 483 422 470 420 457 c 2
 393 308 l 1
 419 334 500 381 550 392 c 1
 533 410 527 434 527 459 c 0
 527 536 589 624 702 624 c 256
 786 624 829 572 829 510 c 0xde80
693 573 m 256
 638 573 589 522 589 471 c 0
 589 429 622 399 662 399 c 256
 711 399 766 444 766 501 c 0xbe80
 766 543 733 573 693 573 c 256
258 569 m 256
 207 569 155 522 155 465 c 0
 155 424 187 394 227 394 c 256xde
 277 394 331 439 331 497 c 0
 331 539 299 569 258 569 c 256
EndSplineSet
EndChar

StartChar: uni0E2C
Encoding: 3628 3628 255
Width: 910
VWidth: 1533
Flags: MW
HStem: 0 21G<216 362.563 681.408 822.54> 284 112<568 588> 339 55<175.022 263.376> 402 59<637.536 756.92> 569 55<204.116 306.083 651.493 769.743>
VStem: 98 57<413.758 524.786> 331 93<448.772 549.039> 540 85<474.274 547.339>
LayerCount: 2
Fore
SplineSet
540 496 m 0
 540 548 600 624 737 624 c 0
 814 624 903 598 904 515 c 1
 918 522 949 539 974 560 c 1
 1014 500 l 1
 959 461 920 445 896 435 c 1
 819 0 l 1
 690 0 l 1
 568 284 l 1
 347 0 l 1
 216 0 l 1
 278 351 l 1
 257 343 237 339 218 339 c 256
 148 339 98 391 98 457 c 0
 98 530 160 624 280 624 c 0
 372 624 424 576 424 495 c 0
 424 483 422 470 420 457 c 2
 358 109 l 1
 588 396 l 1xdf
 715 109 l 1
 767 405 l 1
 752 402 735 402 718 402 c 0
 633 402 540 426 540 496 c 0
711 572 m 0
 675 572 625 546 625 508 c 0
 625 484 652 461 699 461 c 0
 714 461 747 462 778 471 c 1
 783 497 l 2
 784 502 784 507 784 511 c 0
 784 550 755 572 711 572 c 0
258 569 m 256
 207 569 155 522 155 465 c 0
 155 424 187 394 227 394 c 256xbf
 277 394 331 439 331 497 c 0
 331 539 299 569 258 569 c 256
EndSplineSet
Substitution2: "Single Substitution lookup 22 subtable" uni0E2C.alt1
Substitution2: "Single Substitution lookup 22 subtable" uni0E2C.alt1
EndChar

StartChar: uni0E2D
Encoding: 3629 3629 256
Width: 760
VWidth: 1533
Flags: W
HStem: 0 61<218 572> 132 54<254.819 359.977> 360 54<268.286 382.054> 570 54<366.597 576.75>
VStem: 402 57<229.178 338.895> 638 120<414.143 515.105>
LayerCount: 2
Fore
SplineSet
459 297 m 0
 459 206 378 132 288 132 c 0
 267 132 248 136 232 143 c 1
 218 61 l 1
 572 61 l 1
 636 425 l 2
 637 433 638 442 638 449 c 0
 638 523 576 570 474 570 c 0
 311 570 255 455 244 426 c 1
 118 426 l 1
 186 584 368 624 483 624 c 256
 617 624 758 574 758 438 c 0
 758 426 756 413 754 399 c 2
 684 0 l 1
 84 0 l 1
 127 245 l 2
 146 350 223 414 331 414 c 0
 428 414 459 351 459 297 c 0
328 360 m 256
 278 360 225 314 225 258 c 0
 225 216 258 186 298 186 c 256
 359 186 402 242 402 287 c 0
 402 327 373 360 328 360 c 256
EndSplineSet
EndChar

StartChar: uni0E2E
Encoding: 3630 3630 257
Width: 768
VWidth: 1533
Flags: W
HStem: 0 61<218 572> 115 52<249.052 355.741> 331 52<260.207 378.555> 412 60<324.212 569.427> 567 55<308.99 524.84>
VStem: 146 127<490.123 538.992> 398 57<207.024 312.071>
LayerCount: 2
Fore
SplineSet
146 500 m 0
 146 524 192 622 450 622 c 0
 587 622 661 587 698 560 c 1
 707 565 753 594 778 624 c 1
 847 547 l 1
 814 524 782 505 749 492 c 1
 755 476 758 459 758 440 c 0
 758 429 757 417 755 405 c 2
 684 0 l 1
 84 0 l 1
 123 224 l 2
 141 323 220 383 326 383 c 0
 423 383 455 324 455 272 c 0
 455 198 388 115 285 115 c 0
 273 115 254 116 229 126 c 1
 218 61 l 1
 572 61 l 1
 634 412 l 2
 635 422 636 430 636 439 c 0
 636 448 l 1
 566 428 492 412 400 412 c 0
 268 412 146 447 146 500 c 0
273 511 m 0
 273 480 375 472 422 472 c 0
 491 472 558 487 614 509 c 1
 572 557 485 567 440 567 c 0
 356 567 273 545 273 511 c 0
323 331 m 256
 266 331 221 284 221 236 c 0
 221 197 250 167 294 167 c 256
 352 167 398 215 398 264 c 0
 398 302 368 331 323 331 c 256
EndSplineSet
EndChar

StartChar: uni0E2F
Encoding: 3631 3631 258
Width: 662
VWidth: 1533
Flags: W
HStem: 0 21G<463 589.532> 331 52<295.932 400.721> 572 49<195.413 306.392>
VStem: 100 56<423.687 532.16> 325 58<445.726 553.652>
LayerCount: 2
Fore
SplineSet
383 516 m 0
 383 455 334 404 295 385 c 1
 295 384 303 383 315 383 c 0
 446 383 538 522 574 621 c 1
 609 621 637 615 659 604 c 0
 675 596 683 580 683 559 c 0
 683 553 682 546 681 538 c 2
 586 0 l 1
 463 0 l 1
 540 434 l 1
 505 391 406 331 303 331 c 0
 171 331 100 392 100 470 c 0
 100 561 188 621 263 621 c 0
 326 621 383 583 383 516 c 0
254 572 m 256
 200 572 156 523 156 474 c 0
 156 436 182 406 225 406 c 0
 280 406 325 455 325 504 c 0
 325 541 298 572 254 572 c 256
EndSplineSet
EndChar

StartChar: uni0E30
Encoding: 3632 3632 259
Width: 648
VWidth: 1533
Flags: W
HStem: -8 56<274.329 372.892> 224 46<169.956 276.236> 328 55<333.417 429.104> 560 46<229.573 335.648>
VStem: 82 55<88.7379 190.285> 141 55<424.117 526.689> 291 54<107.597 208.616> 350 54<443.276 546.35> 575 117<527.969 605 605 613>
LayerCount: 2
Fore
SplineSet
333 383 m 1
 496 383 575 528 575 597 c 0
 575 602 575 608 574 613 c 1
 692 613 l 1
 692 517 586 328 345 328 c 0
 220 328 141 380 141 461 c 0
 141 548 221 606 296 606 c 256
 355 606 404 573 404 509 c 0
 404 458 375 405 333 383 c 1
273 48 m 1
 448 48 516 206 516 261 c 0
 516 267 516 273 515 278 c 1
 633 278 l 1
 632 269 632 261 630 251 c 0
 610 134 489 -8 286 -8 c 0
 160 -8 82 45 82 126 c 0
 82 204 152 270 237 270 c 256
 302 270 345 232 345 173 c 0
 345 123 316 68 273 48 c 1
286 560 m 256
 233 560 196 513 196 472 c 0
 196 439 219 409 259 409 c 256
 307 409 350 452 350 499 c 0
 350 533 326 560 286 560 c 256
226 224 m 256
 174 224 137 175 137 136 c 0
 137 102 160 74 200 74 c 256
 250 74 291 117 291 161 c 0
 291 196 265 224 226 224 c 256
EndSplineSet
EndChar

StartChar: uni0E31
Encoding: 3633 3633 260
Width: 0
VWidth: 1533
Flags: W
HStem: 691 49<-83.8579 24.4921> 892 46<-189.442 -93.4684>
VStem: -266 54<775.222 869.09> -85 58<790.381 882.659> 148 117<860.656 930.023 930.023 938>
LayerCount: 2
Fore
SplineSet
-27 848 m 0
 -27 821 -41 766 -87 741 c 1
 -81 740 -74 740 -67 740 c 0
 52 740 148 844 148 922 c 0
 148 928 148 933 147 938 c 1
 265 938 l 1
 265 839 149 691 -74 691 c 0
 -225 691 -266 758 -266 812 c 0
 -266 868 -220 938 -131 938 c 256
 -56 938 -27 891 -27 848 c 0
-139 892 m 0
 -179 892 -212 857 -212 817 c 0
 -212 787 -191 767 -161 767 c 0
 -119 767 -85 802 -85 842 c 0
 -85 871 -106 892 -139 892 c 0
EndSplineSet
Substitution2: "Single Substitution lookup 22 subtable" uni0E31.alt1
Substitution2: "Single Substitution lookup 22 subtable" uni0E31.alt1
EndChar

StartChar: uni0E32
Encoding: 3634 3634 261
Width: 640
VWidth: 1533
Flags: W
HStem: 0 21G<442 567.55> 570 54<312.417 480.263>
VStem: 517 118<406.12 417.993 417.993 444 430.997 532.371>
LayerCount: 2
Fore
SplineSet
89 419 m 1
 110 479 182 624 409 624 c 0
 526 624 640 588 640 452 c 0
 640 436 638 419 635 400 c 2
 564 0 l 1
 442 0 l 1
 517 426 l 2
 519 438 520 450 520 462 c 0
 520 517 494 570 400 570 c 0
 274 570 226 464 215 419 c 1
 89 419 l 1
EndSplineSet
EndChar

StartChar: uni0E33
Encoding: 3635 3635 262
Width: 640
VWidth: 1533
Flags: W
HStem: 0 21<442 567.55> 570 54<312.417 480.263> 690 49<-45.9626 67.3413> 895 53<-27.6242 86.0008>
VStem: -117 53<756.727 858.634> 104 53<775.59 878.072> 517 118<406.12 417.993 417.993 444 430.997 532.371>
LayerCount: 2
Back
SplineSet
140 819 m 0
 136.667 801.667 130.167 785 120.5 769 c 128
 110.833 753 98.8333 739.167 84.5 727.5 c 128
 70.1667 715.833 54.3333 706.667 37 700 c 128
 19.6667 693.333 1.66667 690 -17 690 c 0
 -53.6667 690 -83 702.5 -105 727.5 c 128
 -127 752.5 -135 783 -129 819 c 0
 -125.667 836.333 -119.167 852.833 -109.5 868.5 c 128
 -99.8333 884.167 -87.8333 898 -73.5 910 c 128
 -59.1667 922 -43.6667 931.333 -27 938 c 128
 -10.3333 944.667 7.33333 948 26 948 c 0
 62.6667 948 92.3333 935.333 115 910 c 128
 137.667 884.667 146 854.333 140 819 c 0
442 0 m 1
 517 426 l 2
 523.667 467.333 518.167 501.667 500.5 529 c 128
 482.833 556.333 449 570 399 570 c 0
 372.333 570 348.667 565.667 328 557 c 128
 307.333 548.333 289.333 536.833 274 522.5 c 128
 258.667 508.167 246 491.833 236 473.5 c 128
 226 455.167 219 437 215 419 c 1
 89 419 l 1
 110.333 482.333 148.333 532.333 203 569 c 128
 257.667 605.667 326 624 408 624 c 0
 488.667 624 550 606.333 592 571 c 128
 634 535.667 648.333 478.667 635 400 c 2
 564 0 l 1
 442 0 l 1
86 817 m 0
 90 838.333 85.1667 856.667 71.5 872 c 128
 57.8333 887.333 39.6667 895 17 895 c 0
 -4.33333 895 -24.5 887.333 -43.5 872 c 128
 -62.5 856.667 -74 838.333 -78 817 c 0
 -81.3333 795.667 -76.3333 777.333 -63 762 c 128
 -49.6667 746.667 -31.6667 739 -9 739 c 0
 12.3333 739 32.6667 746.667 52 762 c 128
 71.3333 777.333 82.6667 795.667 86 817 c 0
EndSplineSet
Fore
Refer: 261 3634 N 1 0 0 1 0 0 2
Refer: 284 3661 N 1 0 0 1 0 0 2
Substitution2: "Single Substitution lookup 22 subtable" uni0E33.alt1
Substitution2: "Single Substitution lookup 22 subtable" uni0E33.alt1
EndChar

StartChar: uni0E34
Encoding: 3636 3636 263
Width: 0
VWidth: 1533
Flags: W
HStem: 690 44<-429 -83> 833 46<-342.742 -138.383>
LayerCount: 2
Fore
SplineSet
-571 690 m 1
 -560 734 -493 879 -230 879 c 256
 18 879 45 751 45 699 c 0
 45 690 l 1
 -571 690 l 1
-83 734 m 1
 -85 761 -109 833 -238 833 c 0
 -370 833 -417 761 -429 734 c 1
 -83 734 l 1
EndSplineSet
Substitution2: "Single Substitution lookup 22 subtable" uni0E34.alt1
Substitution2: "Single Substitution lookup 22 subtable" uni0E34.alt1
EndChar

StartChar: uni0E35
Encoding: 3637 3637 264
Width: 0
VWidth: 1533
Flags: W
HStem: 690 44<-429 -83> 833 46<-342.742 -138.459>
LayerCount: 2
Fore
SplineSet
-230 879 m 0
 -157 879 -95 866 -50 843 c 1
 -33 941 l 1
 89 941 l 1
 45 690 l 1
 -571 690 l 1
 -560 734 -493 879 -230 879 c 0
-83 734 m 1
 -85 761 -109 833 -238 833 c 0
 -370 833 -417 761 -429 734 c 1
 -83 734 l 1
EndSplineSet
Substitution2: "Single Substitution lookup 22 subtable" uni0E35.alt1
Substitution2: "Single Substitution lookup 22 subtable" uni0E35.alt1
EndChar

StartChar: uni0E36
Encoding: 3638 3638 265
Width: 0
VWidth: 1533
Flags: W
HStem: 690 44<-429 -132> 718 49<-15.3843 57.0938> 833 46<-353.099 -178.521> 898 51<-42.1769 73.4324>
VStem: -132 62<734 821> 85 59<794.381 885.582>
LayerCount: 2
Fore
SplineSet
144 853 m 0xbc
 144 799 98 718 -16 718 c 1x7c
 -15 709 -15 699 -16 690 c 1
 -571 690 l 1
 -560 733 -498 879 -260 879 c 0
 -206 879 -161 870 -123 852 c 1
 -105 899 -56 949 27 949 c 0
 107 949 144 905 144 853 c 0xbc
18 898 m 256
 -40 898 -70 855 -70 821 c 0
 -70 788 -43 767 -5 767 c 256
 46 767 85 802 85 844 c 0
 85 876 58 898 18 898 c 256
-132 734 m 1xbc
 -134 771 -163 833 -262 833 c 0
 -365 833 -413 773 -429 734 c 1
 -132 734 l 1xbc
EndSplineSet
Substitution2: "Single Substitution lookup 22 subtable" uni0E36.alt1
Substitution2: "Single Substitution lookup 22 subtable" uni0E36.alt1
EndChar

StartChar: uni0E37
Encoding: 3639 3639 266
Width: 0
VWidth: 1533
Flags: W
HStem: 690 44<-429 -83> 833 46<-347.241 -193.157 -205.946 -182>
LayerCount: 2
Fore
SplineSet
-571 690 m 1
 -560 733 -490 879 -231 879 c 0
 -204 879 -185 877 -182 877 c 1
 -171 941 l 1
 -79 941 l 1
 -93 860 l 1
 -80 856 -66 850 -50 843 c 1
 -33 941 l 1
 89 941 l 1
 45 690 l 1
 -571 690 l 1
-83 734 m 1
 -85 761 -109 833 -238 833 c 0
 -370 833 -417 761 -429 734 c 1
 -83 734 l 1
EndSplineSet
Substitution2: "Single Substitution lookup 22 subtable" uni0E37.alt1
Substitution2: "Single Substitution lookup 22 subtable" uni0E37.alt1
EndChar

StartChar: uni0E38
Encoding: 3640 3640 267
Width: 0
VWidth: 1533
Flags: W
HStem: -311 52<-328.591 -257.495> -113 59<-308.111 -206.684>
VStem: -397 56<-246.7 -145.045> -193 83<-217.38 -126.602>
LayerCount: 2
Fore
SplineSet
-397 -207 m 0
 -397 -140 -339 -54 -232 -54 c 0
 -153 -54 -110 -97 -110 -170 c 0
 -110 -183 -112 -196 -114 -210 c 2
 -152 -423 l 1
 -274 -423 l 1
 -253 -305 l 1
 -264 -309 -277 -311 -290 -311 c 0
 -351 -311 -397 -268 -397 -207 c 0
-255 -113 m 256
 -302 -113 -341 -156 -341 -202 c 0
 -341 -236 -316 -259 -281 -259 c 256
 -234 -259 -193 -219 -193 -173 c 0
 -193 -137 -220 -113 -255 -113 c 256
EndSplineSet
Substitution2: "Single Substitution lookup 21 subtable" a
Substitution2: "Single Substitution lookup 22 subtable" uni0E38.alt1
Substitution2: "Single Substitution lookup 21 subtable" a
Substitution2: "Single Substitution lookup 22 subtable" uni0E38.alt1
EndChar

StartChar: uni0E39
Encoding: 3641 3641 268
Width: 0
VWidth: 1533
Flags: W
HStem: -392 53<-336 -259> -311 52<-527.591 -457.721> -113 59<-509.327 -406.038>
VStem: -596 56<-246.7 -144.215> -392 83<-217.38 -126.602>
LayerCount: 2
Fore
SplineSet
-596 -207 m 0
 -596 -139 -537 -54 -432 -54 c 0
 -352 -54 -309 -97 -309 -170 c 0
 -309 -183 -311 -196 -313 -210 c 2
 -336 -339 l 1
 -259 -339 l 1
 -210 -61 l 1
 -88 -61 l 1
 -146 -392 l 1
 -468 -392 l 1
 -453 -305 l 1
 -463 -309 -476 -311 -489 -311 c 0
 -550 -311 -596 -268 -596 -207 c 0
-454 -113 m 256
 -499 -113 -540 -153 -540 -202 c 0
 -540 -236 -515 -259 -480 -259 c 256
 -433 -259 -392 -219 -392 -173 c 0
 -392 -137 -419 -113 -454 -113 c 256
EndSplineSet
Substitution2: "Single Substitution lookup 21 subtable" b
Substitution2: "Single Substitution lookup 22 subtable" uni0E39.alt1
Substitution2: "Single Substitution lookup 21 subtable" b
Substitution2: "Single Substitution lookup 22 subtable" uni0E39.alt1
EndChar

StartChar: uni0E3A
Encoding: 3642 3642 269
Width: 0
VWidth: 1533
Flags: W
HStem: -222 168<-207.673 -117.473>
VStem: -247 170<-182.372 -93.1326>
LayerCount: 2
Fore
SplineSet
-247 -153 m 0
 -247 -98 -200 -54 -148 -54 c 256
 -104 -54 -77 -85 -77 -123 c 0
 -77 -178 -127 -222 -177 -222 c 256
 -220 -222 -247 -191 -247 -153 c 0
EndSplineSet
Substitution2: "Single Substitution lookup 21 subtable" c
Substitution2: "Single Substitution lookup 22 subtable" uni0E3A.alt1
Substitution2: "Single Substitution lookup 21 subtable" c
Substitution2: "Single Substitution lookup 22 subtable" uni0E3A.alt1
EndChar

StartChar: uni0E3F
Encoding: 3647 3647 270
Width: 852
VWidth: 1533
Flags: W
HStem: 0 61<212 271 339 408 476 601.84> 351 63<274 333 401 470> 652 64<316 386 454 523 591 656.071>
VStem: 717 135<491.711 605.777> 720 142<155.337 289.603>
LayerCount: 2
Fore
SplineSet
386 652 m 1xe0
 316 652 l 1
 274 414 l 1
 344 414 l 1
 386 652 l 1xe0
333 351 m 1
 263 351 l 1
 212 61 l 1
 282 61 l 1
 333 351 l 1
523 652 m 1
 443 652 l 1
 401 414 l 1
 481 414 l 1
 523 652 l 1
470 351 m 1
 390 351 l 1
 339 61 l 1
 419 61 l 1
 470 351 l 1
497 61 m 2
 600 61 720 118 720 228 c 0xe8
 720 316 627 343 527 350 c 1
 476 61 l 1
 497 61 l 2
539 419 m 1
 637 430 717 473 717 554 c 0xf0
 717 625 636 641 579 649 c 1
 539 419 l 1
852 570 m 0
 852 497 804 431 687 388 c 1
 766 370 862 333 862 234 c 0xe8
 862 140 797 15 465 0 c 1
 440 -140 l 1
 383 -140 l 1
 408 0 l 1
 328 0 l 1
 303 -140 l 1
 246 -140 l 1
 271 0 l 1
 74 0 l 1
 200 716 l 1
 397 716 l 1
 413 805 l 1
 470 805 l 1
 454 716 l 1
 534 716 l 1
 550 805 l 1
 607 805 l 1
 591 716 l 1
 703 711 852 689 852 570 c 0
EndSplineSet
EndChar

StartChar: uni0E40
Encoding: 3648 3648 271
Width: 470
VWidth: 1533
Flags: W
HStem: -11 54<244.606 356.101> 216 54<289.224 378.675> 593 20G<211.499 338>
VStem: 131 92<63.4219 161.164> 398 59<86.6954 197.497>
LayerCount: 2
Fore
SplineSet
457 156 m 0
 457 72 385 -11 279 -11 c 0
 186 -11 131 38 131 118 c 0
 131 130 133 143 135 156 c 2
 215 613 l 1
 338 613 l 1
 276 259 l 1
 294 266 315 270 336 270 c 0
 405 270 457 225 457 156 c 0
326 216 m 256
 268 216 223 161 223 114 c 0
 223 72 256 43 296 43 c 256
 356 43 398 99 398 144 c 0
 398 184 371 216 326 216 c 256
EndSplineSet
EndChar

StartChar: uni0E41
Encoding: 3649 3649 272
Width: 847
VWidth: 1533
Flags: W
HStem: -11 54<244.606 356.101 611.779 725.979> 216 54<289.224 378.675 659.48 748.12> 593 20G<211.499 338 581.499 707>
VStem: 131 92<63.4219 161.164> 398 59<86.6954 197.497> 501 91<63.4449 161.657> 768 59<84.8799 195.23>
LayerCount: 2
Fore
SplineSet
827 155 m 0
 827 83 766 -11 648 -11 c 0
 556 -11 501 38 501 118 c 0
 501 130 503 143 505 156 c 2
 585 613 l 1
 707 613 l 1
 645 259 l 1
 664 266 685 270 706 270 c 0
 773 270 827 224 827 155 c 0
457 156 m 0
 457 72 385 -11 279 -11 c 0
 186 -11 131 38 131 118 c 0
 131 130 133 143 135 156 c 2
 215 613 l 1
 338 613 l 1
 276 259 l 1
 294 266 315 270 336 270 c 0
 405 270 457 225 457 156 c 0
696 216 m 256
 635 216 592 160 592 115 c 0
 592 75 621 43 666 43 c 256
 725 43 768 97 768 143 c 0
 768 185 737 216 696 216 c 256
326 216 m 256
 268 216 223 161 223 114 c 0
 223 72 256 43 296 43 c 256
 356 43 398 99 398 144 c 0
 398 184 371 216 326 216 c 256
EndSplineSet
EndChar

StartChar: uni0E42
Encoding: 3650 3650 273
Width: 493
VWidth: 1533
Flags: W
HStem: -11 54<257.779 371.107> 216 54<305.108 393.477> 879 52<172 278> 971 58<357.332 463.148> 1010 63<211.339 350.503>
VStem: 147 91<63.4449 161.657> 413 60<85.1425 195.481>
LayerCount: 2
Fore
SplineSet
473 155 m 0xee
 473 71 399 -11 294 -11 c 0
 202 -11 147 38 147 118 c 0
 147 130 149 143 151 156 c 2
 278 879 l 1
 29 879 l 1
 56 986 128 1073 266 1073 c 0xee
 343 1073 369 1029 420 1029 c 0xf6
 454 1029 472 1058 477 1073 c 1
 621 1073 l 1xee
 594 998 520 971 456 971 c 0xf6
 375 971 349 1010 273 1010 c 0
 225 1010 185 977 172 931 c 1
 409 931 l 1
 291 259 l 1
 309 266 330 270 352 270 c 0
 418 270 473 225 473 155 c 0xee
342 216 m 256
 281 216 238 160 238 115 c 0
 238 75 267 43 312 43 c 256
 362 43 413 89 413 144 c 0
 413 185 382 216 342 216 c 256
EndSplineSet
EndChar

StartChar: uni0E43
Encoding: 3651 3651 274
Width: 493
VWidth: 1533
Flags: W
HStem: -11 54<257.779 371.107> 216 54<305.108 393.477> 754 52<140.586 249.64> 971 52<210.165 216 213.083 272.021> 1050 54<217.866 375.472>
VStem: 50 72<823.693 930.938> 147 91<63.4449 161.657> 290 59<846.318 952.992> 413 60<85.1425 195.481> 421 114<888.614 1005.66>
LayerCount: 2
Fore
SplineSet
50 877 m 0xff40
 50 989 163 1104 325 1104 c 0
 462 1104 535 1040 535 949 c 0xff40
 535 856 483 840 399 760 c 0
 383 745 373 726 369 704 c 2
 291 259 l 1
 309 266 330 270 352 270 c 0
 418 270 473 225 473 155 c 0xff80
 473 71 399 -11 294 -11 c 0
 202 -11 147 38 147 118 c 0
 147 130 149 143 151 156 c 2
 240 664 l 2
 253 737 313 748 383 833 c 0
 410 865 421 911 421 937 c 0
 421 984 393 1050 303 1050 c 0
 252 1050 217 1030 208 1023 c 1
 213 1023 219 1024 224 1024 c 0
 291 1024 349 980 349 911 c 0
 349 834 270 754 182 754 c 256
 114 754 50 796 50 877 c 0xff40
220 971 m 256
 167 971 122 925 122 873 c 0
 122 834 152 806 191 806 c 256
 246 806 290 855 290 903 c 0
 290 941 263 971 220 971 c 256
342 216 m 256
 281 216 238 160 238 115 c 0
 238 75 267 43 312 43 c 256
 362 43 413 89 413 144 c 0xff80
 413 185 382 216 342 216 c 256
EndSplineSet
EndChar

StartChar: uni0E44
Encoding: 3652 3652 275
Width: 493
VWidth: 1533
Flags: W
HStem: -11 54<257.779 371.107> 216 54<305.108 393.477>
VStem: 147 91<63.4449 161.657> 413 60<85.1425 195.481>
LayerCount: 2
Fore
SplineSet
473 155 m 0
 473 71 399 -11 294 -11 c 0
 202 -11 147 38 147 118 c 0
 147 130 149 143 151 156 c 2
 290 946 l 1
 151 845 l 1
 117 911 47 971 -49 992 c 1
 76 1053 l 1
 130 1028 166 978 180 934 c 1
 287 1009 l 1
 423 1009 l 1
 291 259 l 1
 309 266 330 270 352 270 c 0
 418 270 473 225 473 155 c 0
342 216 m 256
 281 216 238 160 238 115 c 0
 238 75 267 43 312 43 c 256
 362 43 413 89 413 144 c 0
 413 185 382 216 342 216 c 256
EndSplineSet
EndChar

StartChar: uni0E45
Encoding: 3653 3653 276
Width: 640
VWidth: 1533
Flags: W
HStem: -199 21G<407 532.539> 570 54<312.417 480.263>
VStem: 517 118<406.114 417.993 417.993 444 430.997 532.371>
LayerCount: 2
Fore
SplineSet
89 419 m 1
 110 479 182 624 409 624 c 0
 526 624 640 588 640 452 c 0
 640 436 638 419 635 400 c 2
 529 -199 l 1
 407 -199 l 1
 517 426 l 2
 519 438 520 450 520 462 c 0
 520 517 494 570 400 570 c 0
 274 570 226 464 215 419 c 1
 89 419 l 1
EndSplineSet
EndChar

StartChar: uni0E46
Encoding: 3654 3654 277
Width: 659
VWidth: 1533
Flags: W
HStem: -199 21G<425 551.521> 248 43<212.504 315.94> 442 44<249.435 333.789> 569 55<273.595 374.972 451.741 537.336>
VStem: 118 78<306.989 405.649> 350 53<325.842 427.077> 544 120<455.176 460 475 475.113 475.113 492.023 483.568 560.315>
LayerCount: 2
Fore
SplineSet
118 387 m 0
 118 502 192 624 328 624 c 0
 386 624 408 592 415 575 c 1
 427 587 468 624 533 624 c 0
 600 624 668 599 668 503 c 0
 668 490 667 476 664 460 c 2
 548 -199 l 1
 425 -199 l 1
 544 475 l 2
 546 487 547 498 547 509 c 0
 547 543 534 569 496 569 c 0
 456 569 432 538 421 515 c 1
 388 515 l 1
 379 559 356 569 328 569 c 0
 274 569 241 518 233 472 c 1
 250 479 271 486 295 486 c 0
 363 486 403 438 403 384 c 0
 403 318 336 248 249 248 c 0
 193 248 118 280 118 387 c 0
287 442 m 256
 235 442 196 394 196 354 c 0
 196 320 222 291 260 291 c 256
 309 291 350 337 350 378 c 0
 350 415 322 442 287 442 c 256
EndSplineSet
EndChar

StartChar: uni0E47
Encoding: 3655 3655 278
Width: 0
VWidth: 1533
Flags: W
HStem: 690 42<-200.793 -111.186> 690 63<-369.373 -306.503> 848 43<-111.205 -31.4019> 908 47<-323.971 -59.0132>
VStem: -486 102<757.924 857.927> -168 48<771.198 838.347> -29 55<776.932 845.324>
LayerCount: 2
Fore
SplineSet
-211 908 m 2x7e
 -308 908 -384 875 -384 797 c 0
 -384 758 -355 753 -341 753 c 0x7e
 -330 753 -291 757 -278 799 c 1
 -227 799 l 1
 -227 765 -187 732 -131 732 c 0
 -121 732 -114 733 -110 734 c 1
 -149 745 -168 773 -168 801 c 0
 -168 837 -131 891 -58 891 c 256
 -3 891 26 860 26 817 c 0
 26 741 -47 690 -137 690 c 0xbe
 -214 690 -250 726 -258 736 c 1
 -284 711 -322 690 -370 690 c 0
 -416 690 -486 710 -486 788 c 0
 -486 913 -366 955 -247 955 c 2
 -143 955 l 2
 -82 955 -39 969 -29 1026 c 1
 78 1026 l 1
 65 955 11 908 -150 908 c 2
 -211 908 l 2x7e
-66 848 m 256
 -103 848 -120 820 -120 801 c 0
 -120 782 -105 768 -81 768 c 256
 -49 768 -29 792 -29 815 c 0
 -29 830 -38 848 -66 848 c 256
EndSplineSet
Substitution2: "Single Substitution lookup 22 subtable" uni0E47.alt1
Substitution2: "Single Substitution lookup 22 subtable" uni0E47.alt1
EndChar

StartChar: uni0E48
Encoding: 3656 3656 279
Width: 0
VWidth: 1533
Flags: W
HStem: 987 190<24 113 -10 147 24 24>
LayerCount: 2
Fore
SplineSet
-10 987 m 1
 24 1177 l 1
 147 1177 l 1
 113 987 l 1
 -10 987 l 1
EndSplineSet
Substitution2: "Single Substitution lookup 22 subtable" uni0E48.alt2
Substitution2: "Single Substitution lookup 22 subtable" uni0E48.alt2
EndChar

StartChar: uni0E49
Encoding: 3657 3657 280
Width: 0
VWidth: 1533
Flags: W
HStem: 1064 41<-98.2789 -45.1679> 1191 42<-92.4549 -8.99393>
VStem: -149 47<1117.63 1180.93> -6 52<1123.63 1187.76>
LayerCount: 2
Fore
SplineSet
-149 1133 m 0
 -149 1175 -108 1233 -38 1233 c 256
 12 1233 46 1203 46 1156 c 0
 46 1134 41 1098 -6 1046 c 1
 74 1079 136 1162 149 1210 c 1
 259 1210 l 1
 232 1132 102 995 -128 981 c 1
 -103 999 -59 1040 -45 1067 c 1
 -51 1065 -59 1064 -68 1064 c 0
 -118 1064 -149 1093 -149 1133 c 0
-61 1105 m 0
 -35 1105 -6 1126 -6 1156 c 0
 -6 1178 -23 1191 -46 1191 c 0
 -85 1191 -102 1162 -102 1143 c 0
 -102 1128 -93 1105 -61 1105 c 0
EndSplineSet
Substitution2: "Single Substitution lookup 22 subtable" uni0E49.alt2
Substitution2: "Single Substitution lookup 22 subtable" uni0E49.alt2
EndChar

StartChar: uni0E4A
Encoding: 3658 3658 281
Width: 0
VWidth: 1533
Flags: W
HStem: 981 42<-122.953 -45.5101 146 196.697> 1105 40<-104.78 -40.5342> 1177 42<-100.71 -5.0752 48.2263 122.032>
VStem: -207 83<1025.94 1096.07> -38 45<1033.11 1101.48> 110 86<1079.46 1169.17>
LayerCount: 2
Fore
SplineSet
196 1137 m 0
 196 1087 176 1061 146 1029 c 1
 169 1029 216 1041 229 1115 c 0
 243 1194 254 1205 268 1214 c 1
 358 1214 l 1
 343 1205 327 1190 313 1112 c 0
 295 1012 204 987 136 987 c 2
 80 987 l 1
 60 1007 l 1
 104 1049 110 1113 110 1122 c 0
 110 1152 92 1177 65 1177 c 0
 42 1177 26 1166 16 1151 c 1
 10 1151 l 1
 3 1169 -20 1177 -43 1177 c 0
 -84 1177 -109 1153 -116 1135 c 1
 -106 1137 -94 1145 -66 1145 c 0
 -21 1145 7 1117 7 1079 c 0
 7 1032 -40 981 -106 981 c 0
 -160 981 -207 1014 -207 1077 c 0
 -207 1144 -151 1219 -46 1219 c 0
 -3 1219 14 1201 20 1191 c 1
 48 1215 78 1219 100 1219 c 0
 143 1219 196 1202 196 1137 c 0
-75 1105 m 256
 -99 1105 -124 1084 -124 1055 c 0
 -124 1036 -109 1023 -90 1023 c 256
 -61 1023 -38 1048 -38 1071 c 0
 -38 1091 -55 1105 -75 1105 c 256
EndSplineSet
Substitution2: "Single Substitution lookup 22 subtable" uni0E4A.alt2
Substitution2: "Single Substitution lookup 22 subtable" uni0E4A.alt2
EndChar

StartChar: uni0E4B
Encoding: 3659 3659 282
Width: 0
VWidth: 1533
Flags: W
HStem: 987 247<40 107 40 107 40 40> 1084 54<-83 13 134 229 -93 239 -83 -83>
LayerCount: 2
Fore
SplineSet
124 1084 m 1x40
 107 987 l 1
 -4 987 l 1x80
 13 1084 l 1
 -93 1084 l 1
 -83 1138 l 1
 23 1138 l 1x40
 40 1234 l 1
 151 1234 l 1x80
 134 1138 l 1
 239 1138 l 1
 229 1084 l 1
 124 1084 l 1x40
EndSplineSet
Substitution2: "Single Substitution lookup 22 subtable" uni0E4B.alt2
Substitution2: "Single Substitution lookup 22 subtable" uni0E4B.alt2
EndChar

StartChar: uni0E4C
Encoding: 3660 3660 283
Width: 0
VWidth: 1533
Flags: W
HStem: 918 42<-72.5546 13.3297>
VStem: -132 54<965.466 1048.27> 30 49<976.617 1059.72>
LayerCount: 2
Fore
SplineSet
79 1030 m 0
 79 990 42 918 -42 918 c 0
 -107 918 -132 962 -132 1001 c 0
 -132 1042 -108 1100 -14 1125 c 2
 22 1136 l 2
 93 1157 100 1190 102 1204 c 1
 197 1184 l 1
 187 1131 105 1106 43 1096 c 1
 69 1082 79 1053 79 1030 c 0
-16 1066 m 0
 -49 1066 -78 1034 -78 1002 c 0
 -78 977 -60 960 -35 960 c 0
 -5 960 30 983 30 1021 c 0
 30 1045 12 1066 -16 1066 c 0
EndSplineSet
Substitution2: "Single Substitution lookup 22 subtable" uni0E4C.alt2
Substitution2: "Single Substitution lookup 22 subtable" uni0E4C.alt2
EndChar

StartChar: uni0E4D
Encoding: 3661 3661 284
Width: 0
VWidth: 1533
Flags: W
HStem: 690 49<-45.9626 67.3413> 895 53<-27.6242 86.0008>
VStem: -117 53<756.727 858.634> 104 53<775.59 878.072>
LayerCount: 2
Fore
SplineSet
-117 799 m 0
 -117 868 -49 948 43 948 c 256
 113 948 157 896 157 840 c 0
 157 761 79 690 -2 690 c 256
 -74 690 -117 741 -117 799 c 0
34 895 m 256
 -22 895 -64 848 -64 805 c 0
 -64 768 -36 739 6 739 c 256
 62 739 104 786 104 829 c 0
 104 866 76 895 34 895 c 256
EndSplineSet
Substitution2: "Single Substitution lookup 22 subtable" uni0E4D.alt1
Substitution2: "Single Substitution lookup 22 subtable" uni0E4D.alt1
EndChar

StartChar: uni0E4E
Encoding: 3662 3662 285
Width: 0
VWidth: 1533
Flags: W
HStem: 676 36<-152.568 -99.2988 -104.617 -93.9805 -93.9805 -84> 978 39<-53.6093 28.1225 26.3989 29.8461 29.8461 48>
VStem: -233 64<718.366 773.597> -131 53<871.306 928.674>
LayerCount: 2
Fore
SplineSet
-233 730 m 0
 -233 747 -227 841 -93 859 c 1
 -111 865 -131 881 -131 910 c 0
 -131 932 -120 1017 1 1017 c 0
 26 1017 48 1015 68 1010 c 1
 48 975 l 1
 41 977 33 978 11 978 c 0
 -68 978 -78 921 -78 902 c 0
 -78 886 -69 867 -21 863 c 1
 -36 839 l 1
 -152 827 -169 763 -169 745 c 0
 -169 717 -133 712 -106 712 c 0
 -94 712 -82 713 -66 713 c 1
 -84 681 l 1
 -105 678 -126 676 -146 676 c 0
 -189 676 -233 687 -233 730 c 0
EndSplineSet
Substitution2: "Single Substitution lookup 22 subtable" uni0E4E.alt1
Substitution2: "Single Substitution lookup 22 subtable" uni0E4E.alt1
EndChar

StartChar: uni0E4F
Encoding: 3663 3663 286
Width: 766
VWidth: 1533
Flags: W
HStem: -8 46<289.986 495.284> 88 50<331.622 493.439> 474 50<388.279 548.291> 575 46<377.67 583.499>
VStem: 118 47<163.356 365.25> 220 46<201.825 357.79> 608 46<254.426 412.84> 710 47<250.653 450.625>
LayerCount: 2
Fore
SplineSet
118 252 m 0
 118 444 295 621 492 621 c 256
 651 621 757 506 757 361 c 0
 757 163 573 -8 382 -8 c 256
 231 -8 118 101 118 252 c 0
484 575 m 256
 321 575 165 425 165 260 c 0
 165 131 262 38 390 38 c 0
 553 38 710 187 710 353 c 0
 710 478 616 575 484 575 c 256
220 273 m 0
 220 408 359 524 482 524 c 0
 586 524 654 432 654 339 c 0
 654 220 528 88 410 88 c 0
 314 88 220 163 220 273 c 0
411 138 m 0
 515 138 608 235 608 336 c 0
 608 409 559 474 472 474 c 0
 369 474 266 385 266 277 c 0
 266 193 335 138 411 138 c 0
EndSplineSet
EndChar

StartChar: uni0E50
Encoding: 3664 3664 287
Width: 781
VWidth: 1533
Flags: W
HStem: -11 52<311.079 496.298> 419 52<372.625 554.82>
VStem: 111 125<111.187 284.703> 627 124<174.937 348.223>
LayerCount: 2
Fore
SplineSet
111 190 m 0
 111 359 275 471 474 471 c 0
 640 471 751 392 751 268 c 0
 751 125 612 -11 389 -11 c 0
 220 -11 111 68 111 190 c 0
465 419 m 256
 337 419 236 313 236 193 c 0
 236 101 302 41 398 41 c 256
 534 41 627 153 627 266 c 0
 627 359 561 419 465 419 c 256
EndSplineSet
EndChar

StartChar: uni0E51
Encoding: 3665 3665 288
Width: 781
VWidth: 1533
Flags: W
HStem: -51 26<401.79 477.43> -2 54<275.319 374.144> 267 46<363.606 469.816> 419 52<368.091 548.712>
VStem: 111 123<95.9476 281.159> 272 54<125.137 229.629> 488 61<146.545 250.178> 626 125<173.158 344.754>
LayerCount: 2
Fore
SplineSet
111 186 m 0
 111 357 278 471 474 471 c 256
 640 471 751 388 751 266 c 0
 751 184 689 5 408 -51 c 1
 346 -25 l 1
 579 21 626 191 626 262 c 0
 626 359 557 419 465 419 c 256
 334 419 234 315 234 180 c 0
 234 103 272 52 337 52 c 0
 362 52 365 54 385 61 c 1
 318 61 272 108 272 166 c 0
 272 232 331 313 429 313 c 0
 507 313 549 267 549 204 c 0
 549 104 447 -2 314 -2 c 0
 197 -2 111 72 111 186 c 0
421 267 m 256
 377 267 326 226 326 174 c 0
 326 136 356 109 393 109 c 256
 438 109 488 149 488 200 c 0
 488 239 458 267 421 267 c 256
EndSplineSet
EndChar

StartChar: uni0E52
Encoding: 3666 3666 289
Width: 781
VWidth: 1533
Flags: W
HStem: 0 54<166 626> 104 43<341.894 446.624> 297 45<380.469 465.742> 415 56<398.13 503.519 581.41 666.631> 602 20G<125.724 190>
VStem: 120 129<497.282 546.91> 249 77<162.766 262.146> 480 53<181.084 282.55> 673 120<302.043 307 322 322.113 322.113 338.023 330.068 406.84>
LayerCount: 2
Fore
SplineSet
249 244 m 0
 249 366 336 471 457 471 c 0
 517 471 540 433 545 422 c 1
 557 434 598 471 663 471 c 0
 728 471 797 445 797 350 c 0
 797 337 796 323 793 307 c 2
 739 0 l 1
 34 0 l 1
 119 480 l 2
 120 484 120 490 120 496 c 0
 120 521 111 558 53 564 c 1
 164 622 l 1
 216 617 249 588 249 537 c 0
 249 530 248 522 247 514 c 2
 166 54 l 1
 626 54 l 1
 673 322 l 2
 675 333 676 344 676 354 c 0
 676 388 664 415 625 415 c 0
 585 415 562 383 550 362 c 1
 518 362 l 1
 507 404 486 415 458 415 c 0
 406 415 374 379 365 328 c 1
 382 336 402 342 425 342 c 0
 493 342 533 295 533 242 c 0
 533 171 464 104 380 104 c 0
 318 104 249 141 249 244 c 0
417 297 m 256
 365 297 326 249 326 210 c 0
 326 176 352 147 391 147 c 256
 439 147 480 190 480 236 c 0
 480 272 453 297 417 297 c 256
EndSplineSet
EndChar

StartChar: uni0E53
Encoding: 3667 3667 290
Width: 781
VWidth: 1533
Flags: W
HStem: -11 48<213.931 331.983> 224 47<255.254 357.283> 415 56<303.995 410.73 499.531 602.63>
VStem: 95 96<65.5028 175.134> 380 57<84.422 200.275> 614 120<288.037 297 308 311.554 311.554 325.5 318.527 401.36>
LayerCount: 2
Fore
SplineSet
95 165 m 0
 95 344 219 471 353 471 c 0
 425 471 452 439 459 422 c 1
 471 433 518 471 589 471 c 0
 654 471 738 443 738 339 c 0
 738 326 737 312 734 297 c 2
 682 0 l 1
 560 0 l 1
 614 308 l 2
 616 320 617 331 617 343 c 0
 617 382 603 415 554 415 c 0
 513 415 482 392 466 360 c 1
 422 360 l 1
 421 388 405 415 364 415 c 0
 294 415 229 327 229 255 c 1
 243 263 279 271 310 271 c 0
 388 271 437 223 437 156 c 0
 437 64 355 -11 259 -11 c 0
 189 -11 95 24 95 165 c 0
301 224 m 256
 244 224 191 173 191 114 c 0
 191 69 225 37 269 37 c 256
 324 37 380 86 380 146 c 0
 380 192 347 224 301 224 c 256
EndSplineSet
EndChar

StartChar: uni0E54
Encoding: 3668 3668 291
Width: 781
VWidth: 1533
Flags: W
HStem: -11 65<262.841 408.164> 20 40<538.515 648.328> 101 54<499.141 570.158> 317 49<483.14 590.418> 408 52<339.942 647.715> 593 20G<722.5 847>
VStem: 73 130<112.321 284.635> 368 76<171.498 277.548> 609 59<194.127 299.892> 724 123<533.8 613>
LayerCount: 2
Fore
SplineSet
73 173 m 0xbfc0
 73 366 227 460 418 460 c 2
 556 460 l 2
 715 460 721 582 724 613 c 1
 847 613 l 1
 847 490 761 408 535 408 c 2
 452 408 l 2
 298 408 203 318 203 192 c 0
 203 100 264 54 344 54 c 0xbfc0
 379 54 408 57 433 63 c 1
 391 92 368 143 368 194 c 0
 368 291 444 366 548 366 c 0
 622 366 668 322 668 260 c 0
 668 182 597 101 498 101 c 1
 533 78 587 60 730 60 c 1x7fc0
 671 -11 l 1xbfc0
 637 5 586 20 536 20 c 0x7fc0
 445 20 399 -11 302 -11 c 0
 163 -11 73 47 73 173 c 0xbfc0
540 317 m 256
 490 317 444 274 444 220 c 0
 444 180 474 155 511 155 c 256
 568 155 609 206 609 249 c 0
 609 287 582 317 540 317 c 256
EndSplineSet
EndChar

StartChar: uni0E55
Encoding: 3669 3669 292
Width: 781
VWidth: 1533
Flags: W
HStem: -11 65<258.671 408.164> 20 40<538.515 648.328> 101 54<499.141 570.158> 317 49<483.14 590.418> 400 52<372.358 495.951 555 644.972> 592 46<390.748 512.176>
VStem: 74 129<108.803 281.232> 294 64<462.941 559.818> 368 76<171.498 277.548> 528 63<495.758 575.535> 609 59<194.127 299.892>
LayerCount: 2
Fore
SplineSet
591 538 m 0xbfe0
 591 521 585 482 555 452 c 1
 564 452 l 2
 671 452 711 529 721 584 c 0
 723 593 723 603 724 613 c 1
 847 613 l 1
 847 528 805 400 534 400 c 2
 451 400 l 2
 316 400 203 331 203 186 c 0
 203 81 283 54 344 54 c 0xbfe0
 379 54 408 57 433 63 c 1
 391 92 368 143 368 194 c 0
 368 291 444 366 548 366 c 0
 622 366 668 322 668 260 c 0
 668 182 597 101 498 101 c 1
 533 78 587 60 730 60 c 1x7fe0
 671 -11 l 1xbfe0
 637 5 586 20 536 20 c 0x7fe0
 445 20 399 -11 302 -11 c 0
 165 -11 74 50 74 179 c 0
 74 345 197 425 320 443 c 1
 303 456 294 478 294 502 c 0
 294 554 345 638 463 638 c 256
 562 638 591 584 591 538 c 0xbfe0
455 592 m 256
 395 592 358 548 358 507 c 0
 358 471 387 448 430 448 c 256
 497 448 528 498 528 531 c 0
 528 561 506 592 455 592 c 256
540 317 m 256
 490 317 444 274 444 220 c 0
 444 180 474 155 511 155 c 256
 568 155 609 206 609 249 c 0
 609 287 582 317 540 317 c 256
EndSplineSet
EndChar

StartChar: uni0E56
Encoding: 3670 3670 293
Width: 781
VWidth: 1533
Flags: W
HStem: -11 60<293.875 498.491> 267 50<242.409 342.899> 422 52<393.067 559.652> 604 20G<175.365 230.5>
VStem: 146 66<139.287 236.67> 355 61<155.281 254.61> 638 125<182.582 350.606>
LayerCount: 2
Fore
SplineSet
403 49 m 0
 523 49 638 145 638 272 c 0
 638 361 573 422 463 422 c 0
 360 422 286 369 262 340 c 1
 218 340 l 1
 208 442 149 527 88 561 c 1
 216 624 l 1
 245 601 283 534 283 420 c 1
 383 473 448 474 489 474 c 0
 694 474 763 374 763 274 c 0
 763 114 600 -11 395 -11 c 0
 233 -11 146 63 146 159 c 0
 146 258 227 317 304 317 c 0
 381 317 416 269 416 218 c 0
 416 164 374 88 286 75 c 1
 314 59 352 49 403 49 c 0
295 267 m 256
 251 267 212 228 212 182 c 0
 212 149 237 126 270 126 c 256
 318 126 355 169 355 208 c 0
 355 240 333 267 295 267 c 256
EndSplineSet
EndChar

StartChar: uni0E57
Encoding: 3671 3671 294
Width: 781
VWidth: 1533
Flags: W
HStem: -11 49<152.91 269.913> 225 46<195.381 296.158> 415 56<242.708 351.235 438.452 528.549> 602 20G<874 907.562>
VStem: 34 95<64.5701 174.044> 319 57<86.5817 202.015> 552 124<186.411 389.741>
LayerCount: 2
Fore
SplineSet
34 164 m 0
 34 342 156 471 292 471 c 0
 364 471 390 439 398 422 c 1
 410 433 457 471 526 471 c 0
 590 471 676 437 676 309 c 0
 676 188 612 84 575 52 c 1
 605 59 635 80 663 113 c 0
 737 201 727 360 746 463 c 0
 772 610 867 620 881 622 c 1
 966 558 l 1
 888 549 868 480 863 454 c 0
 846 360 863 378 843 265 c 0
 817 120 707 0 580 0 c 2
 481 0 l 1
 459 31 l 1
 529 97 552 258 552 304 c 0
 552 370 528 415 487 415 c 0
 444 415 417 382 405 360 c 1
 360 360 l 1
 361 373 357 415 303 415 c 0
 233 415 168 327 168 255 c 1
 186 264 222 271 249 271 c 0
 327 271 376 223 376 155 c 0
 376 63 292 -11 197 -11 c 0
 127 -11 34 23 34 164 c 0
241 225 m 256
 185 225 129 173 129 117 c 0
 129 71 164 38 208 38 c 256
 266 38 319 92 319 149 c 0
 319 193 285 225 241 225 c 256
EndSplineSet
EndChar

StartChar: uni0E58
Encoding: 3672 3672 295
Width: 781
VWidth: 1533
Flags: W
HStem: -11 65<254.825 323.712 474.515 580.843> 64 48<554.54 594> 265 49<573.483 678.309> 408 52<367.668 662.715> 593 20G<740 862>
VStem: 101 128<78.3284 237.992> 482 57<127.895 229.945> 695 67<146.184 248.473> 740 122<533.979 613>
LayerCount: 2
Fore
SplineSet
762 205 m 0xff
 762 114 683 -11 542 -11 c 0
 471 -11 429 20 404 57 c 1
 343 -5 300 -11 265 -11 c 0
 156 -11 101 53 101 157 c 0
 101 292 181 460 449 460 c 2
 572 460 l 2
 712 460 740 565 740 613 c 1
 862 613 l 1xfe80
 862 490 776 408 550 408 c 2
 483 408 l 2
 326 408 255 332 235 219 c 0
 231 195 229 175 229 157 c 0
 229 74 270 54 301 54 c 0
 350 54 382 107 391 132 c 1
 432 132 l 1
 441 90 486 51 544 51 c 0
 568 51 572 56 594 64 c 1
 523 64 482 112 482 169 c 0
 482 242 550 314 639 314 c 0
 704 314 762 279 762 205 c 0xff
631 265 m 0
 587 265 539 226 539 175 c 0
 539 137 567 112 604 112 c 0
 652 112 695 155 695 201 c 0xff
 695 235 669 265 631 265 c 0
EndSplineSet
EndChar

StartChar: uni0E59
Encoding: 3673 3673 296
Width: 781
VWidth: 1533
Flags: W
HStem: -8 63<208.288 302.493> 66 43<273.713 313> 258 49<293.304 396.631> 400 66<686.07 770.047> 419 52<289.126 425.891> 593 20G<847 976>
VStem: 45 123<96.8323 285.4> 207 52<123.912 224.505> 412 59<142.523 242.422>
LayerCount: 2
Fore
SplineSet
809 423 m 1xf780
 844 474 848 544 848 584 c 0
 848 594 848 604 847 613 c 1
 976 613 l 1
 976 559 921 411 788 343 c 1
 783 363 764 400 732 400 c 0xf780
 685 400 653 348 653 264 c 0
 653 177 685 67 733 0 c 1
 592 0 l 1
 518 117 556 312 448 396 c 0
 429 412 403 419 370 419 c 0
 249 419 168 306 168 180 c 0
 168 80 227 55 272 55 c 0
 287 55 306 61 313 66 c 1
 240 66 207 114 207 166 c 0
 207 245 280 307 356 307 c 0
 429 307 471 266 471 204 c 0
 471 107 376 -8 247 -8 c 0
 129 -8 45 68 45 186 c 0
 45 300 122 471 379 471 c 0xef80
 524 471 582 411 604 376 c 1
 622 417 663 466 727 466 c 0
 767 466 796 447 809 423 c 1xf780
349 258 m 256
 297 258 259 211 259 170 c 0
 259 136 285 109 323 109 c 256
 365 109 412 146 412 195 c 0
 412 232 384 258 349 258 c 256
EndSplineSet
EndChar

StartChar: uni0E5A
Encoding: 3674 3674 297
Width: 939
VWidth: 1533
Flags: W
HStem: 0 21G<481 607.499 741 866.532> 331 52<314.636 419.801> 572 49<212.461 325.443>
VStem: 119 55<424.291 532.162> 343 59<446.653 554.292>
LayerCount: 2
Fore
SplineSet
402 517 m 0
 402 455 354 406 313 385 c 1
 314 384 322 383 333 383 c 0
 457 383 550 507 592 621 c 1
 628 621 656 615 677 604 c 0
 693 596 701 580 701 559 c 0
 701 553 700 546 699 538 c 2
 675 402 l 1
 761 442 829 549 851 621 c 1
 887 621 915 615 937 604 c 0
 952 596 960 581 960 559 c 0
 960 553 959 546 958 538 c 2
 863 0 l 1
 741 0 l 1
 818 434 l 1
 796 409 744 365 664 343 c 1
 604 0 l 1
 481 0 l 1
 558 434 l 1
 523 391 425 331 322 331 c 0
 198 331 119 385 119 469 c 0
 119 560 205 621 281 621 c 0
 342 621 402 585 402 517 c 0
273 572 m 256
 218 572 174 525 174 474 c 0
 174 436 200 406 244 406 c 256
 297 406 343 453 343 504 c 0
 343 541 316 572 273 572 c 256
EndSplineSet
EndChar

StartChar: uni0E5B
Encoding: 3675 3675 298
Width: 1320
VWidth: 1533
Flags: W
HStem: 32 63<279.122 455.475> 150 49<341.399 460.134> 196 68<1087 1097.98 1097.98 1189.42> 386 51<367.433 477.336> 511 65<323.787 467.162>
VStem: 87 115<173.535 362.003> 255 63<222.56 337.008> 509 90<279.936 414.57>
LayerCount: 2
Fore
SplineSet
407 511 m 0xdf
 259 511 202 343 202 262 c 0
 202 171 259 95 357 95 c 0
 514 95 648 231 689 466 c 1
 721 437 755 394 802 274 c 1
 828 457 l 1
 889 406 927 324 941 285 c 1
 963 434 l 1
 971 429 1054 389 1087 264 c 1
 1094 264 1101 263 1109 263 c 0
 1165 263 1277 279 1359 308 c 1
 1332 278 l 1
 1300 258 1211 204 1044 196 c 1xbf
 1023 269 1021 279 1007 296 c 1
 952 163 l 1
 931 156 l 1
 917 197 890 241 862 276 c 1
 801 126 l 1
 777 118 l 1
 761 205 735 250 713 271 c 1
 651 148 489 32 346 32 c 0
 201 32 87 120 87 257 c 0
 87 407 222 576 422 576 c 0
 545 576 599 497 599 391 c 0
 599 217 472 150 386 150 c 0
 308 150 255 207 255 272 c 0
 255 356 344 437 437 437 c 0
 461 437 483 432 503 422 c 1
 494 462 474 511 407 511 c 0xdf
430 386 m 256
 369 386 318 331 318 276 c 0
 318 232 353 199 397 199 c 256xdf
 450 199 509 248 509 311 c 0
 509 357 474 386 430 386 c 256
EndSplineSet
EndChar

StartChar: zerowidthnonjoiner
Encoding: 8204 8204 299
Width: 0
VWidth: 1533
Flags: W
LayerCount: 2
Back
SplineSet
-141 -454 m 1
 1 353 l 1
 125 353 l 1
 -17 -454 l 1
 -141 -454 l 1
EndSplineSet
EndChar

StartChar: zerowidthjoiner
Encoding: 8205 8205 300
Width: 0
VWidth: 1533
Flags: W
LayerCount: 2
Back
SplineSet
154 230 m 1
 112 278 l 1
 -17 -454 l 1
 -141 -454 l 1
 -13 271 l 1
 -63 230 l 1
 -96 268 l 1
 32 376 l 1
 -58 484 l 1
 -12 523 l 1
 78 414 l 1
 205 523 l 1
 235 484 l 1
 109 376 l 1
 197 268 l 1
 154 230 l 1
EndSplineSet
EndChar

StartChar: lefttorightmark
Encoding: 8206 8206 301
Width: 0
VWidth: 1533
Flags: W
LayerCount: 2
Back
SplineSet
204 173 m 1
 170 212 l 1
 251 279 l 1
 112 279 l 1
 -17 -454 l 1
 -141 -454 l 1
 2 357 l 1
 267 357 l 1
 208 426 l 1
 255 465 l 1
 373 319 l 1
 204 173 l 1
EndSplineSet
EndChar

StartChar: righttoleftmark
Encoding: 8207 8207 302
Width: 0
VWidth: 1533
Flags: W
LayerCount: 2
Back
SplineSet
-143 -454 m 1
 -14 279 l 1
 -153 279 l 1
 -98 212 l 1
 -142 173 l 1
 -263 319 l 1
 -91 465 l 1
 -60 426 l 1
 -141 357 l 1
 124 357 l 1
 -19 -454 l 1
 -143 -454 l 1
EndSplineSet
EndChar

StartChar: endash
Encoding: 8211 8211 303
Width: 594
VWidth: 1533
Flags: W
HStem: 261 64<57 641>
LayerCount: 2
Fore
SplineSet
46 261 m 1
 57 325 l 1
 652 325 l 1
 641 261 l 1
 46 261 l 1
EndSplineSet
EndChar

StartChar: emdash
Encoding: 8212 8212 304
Width: 1154
VWidth: 1533
Flags: W
HStem: 261 64<57 1200>
LayerCount: 2
Fore
SplineSet
46 261 m 1
 57 325 l 1
 1211 325 l 1
 1200 261 l 1
 46 261 l 1
EndSplineSet
EndChar

StartChar: quoteleft
Encoding: 8216 8216 305
Width: 191
VWidth: 1533
Flags: W
HStem: 503 265<181 267 267 267>
VStem: 120 152<533.808 625.688>
LayerCount: 2
Fore
SplineSet
272 584 m 0
 272 554 242 503 181 503 c 0
 133 503 120 539 120 573 c 0
 120 638 177 731 267 768 c 1
 285 739 l 1
 257 728 204 693 189 636 c 1
 198 638 207 640 214 640 c 0
 249 640 272 613 272 584 c 0
EndSplineSet
EndChar

StartChar: quoteright
Encoding: 8217 8217 306
Width: 191
VWidth: 1533
Flags: W
HStem: 632 136<174.018 225.006>
VStem: 143 153<645.312 736.721>
LayerCount: 2
Fore
SplineSet
143 686 m 0
 143 710 168 768 232 768 c 0
 282 768 296 732 296 699 c 0
 296 632 236 540 147 503 c 1
 131 534 l 1
 150 540 211 572 227 636 c 1
 220 634 212 632 204 632 c 0
 175 632 143 654 143 686 c 0
EndSplineSet
EndChar

StartChar: quotesinglbase
Encoding: 8218 8218 307
Width: 202
VWidth: 1533
Flags: W
HStem: -14 137<68.1149 120.671>
VStem: 36 153<1.89157 89.8153>
LayerCount: 2
Fore
SplineSet
36 41 m 0
 36 63 63 123 126 123 c 0
 175 123 189 89 189 54 c 0
 189 -25 120 -110 41 -144 c 1
 24 -115 l 1
 41 -109 104 -77 121 -11 c 1
 114 -13 106 -14 99 -14 c 0
 62 -14 36 12 36 41 c 0
EndSplineSet
EndChar

StartChar: quotedblleft
Encoding: 8220 8220 308
Width: 374
VWidth: 1533
Flags: W
HStem: 503 137<191.53 239.69 373.53 423.711>
VStem: 120 150<533.12 625.688> 302 152<534.506 624.677>
LayerCount: 2
Fore
SplineSet
454 584 m 0
 454 559 427 503 365 503 c 0
 315 503 302 539 302 573 c 0
 302 651 376 737 449 768 c 1
 467 739 l 1
 439 728 386 693 371 636 c 1
 380 638 389 640 396 640 c 0
 431 640 454 613 454 584 c 0
270 583 m 0
 270 551 239 503 181 503 c 0
 133 503 120 539 120 573 c 0
 120 638 177 731 267 768 c 1
 285 739 l 1
 257 728 204 693 189 636 c 1
 198 638 207 640 214 640 c 0
 249 640 270 611 270 583 c 0
EndSplineSet
EndChar

StartChar: quotedblright
Encoding: 8221 8221 309
Width: 374
VWidth: 1533
Flags: W
HStem: 633 135<174.018 226.672 356.869 408.672>
VStem: 143 152<649.311 737.241> 326 152<648.874 736.701>
LayerCount: 2
Fore
SplineSet
326 686 m 0
 326 714 354 768 416 768 c 0
 465 768 478 734 478 701 c 0
 478 630 416 540 330 503 c 1
 313 534 l 1
 332 540 393 572 409 636 c 1
 402 634 395 633 388 633 c 0
 352 633 326 658 326 686 c 0
143 687 m 0
 143 710 168 768 232 768 c 0
 282 768 295 731 295 697 c 0
 295 619 225 536 147 503 c 1
 131 534 l 1
 150 540 211 572 227 636 c 1
 220 634 213 633 206 633 c 0
 169 633 143 659 143 687 c 0
EndSplineSet
EndChar

StartChar: quotedblbase
Encoding: 8222 8222 310
Width: 392
VWidth: 1533
Flags: W
HStem: -14 137<68.1149 120.671 251.55 301.626>
VStem: 36 152<2.97318 90.0782> 219 151<-0.940838 90.0782>
LayerCount: 2
Fore
SplineSet
219 39 m 0
 219 66 247 123 309 123 c 0
 357 123 370 89 370 55 c 0
 370 -24 303 -110 222 -144 c 1
 207 -115 l 1
 238 -103 288 -66 302 -11 c 1
 294 -13 287 -14 280 -14 c 0
 251 -14 219 6 219 39 c 0
36 41 m 0
 36 63 63 123 126 123 c 0
 175 123 188 89 188 55 c 0
 188 -64 68 -132 41 -144 c 1
 24 -115 l 1
 41 -109 104 -77 121 -11 c 1
 114 -13 106 -14 99 -14 c 0
 62 -14 36 12 36 41 c 0
EndSplineSet
EndChar

StartChar: dagger
Encoding: 8224 8224 311
Width: 662
VWidth: 1533
Flags: W
HStem: 386 86<141 338 474 672> 696 20G<392.475 517>
LayerCount: 2
Fore
SplineSet
459 386 m 1
 366 -143 l 1
 245 -143 l 1
 338 386 l 1
 126 386 l 1
 141 472 l 1
 353 472 l 1
 396 716 l 1
 517 716 l 1
 474 472 l 1
 687 472 l 1
 672 386 l 1
 459 386 l 1
EndSplineSet
EndChar

StartChar: daggerdbl
Encoding: 8225 8225 312
Width: 622
VWidth: 1533
Flags: W
HStem: 104 77<76 273 398 596> 396 76<127 325 449 648> 698 20G<378.423 493>
LayerCount: 2
Fore
SplineSet
384 104 m 1
 341 -141 l 1
 230 -141 l 1
 273 104 l 1
 62 104 l 1
 76 181 l 1
 287 181 l 1
 325 396 l 1
 114 396 l 1
 127 472 l 1
 338 472 l 1
 382 718 l 1
 493 718 l 1
 449 472 l 1
 661 472 l 1
 648 396 l 1
 436 396 l 1
 398 181 l 1
 610 181 l 1
 596 104 l 1
 384 104 l 1
EndSplineSet
EndChar

StartChar: bullet
Encoding: 8226 8226 313
Width: 582
VWidth: 1533
Flags: W
HStem: 163 390<296.328 411.185>
VStem: 155 399<303.062 409.94>
LayerCount: 2
Fore
SplineSet
155 322 m 0
 155 433 256 553 389 553 c 256
 486 553 554 484 554 391 c 0
 554 267 439 163 320 163 c 256
 226 163 155 229 155 322 c 0
EndSplineSet
EndChar

StartChar: ellipsis
Encoding: 8230 8230 314
Width: 1103
VWidth: 1533
Flags: W
HStem: -14 143<141.003 226.752 523.502 606.186 899.502 982.569>
VStem: 112 144<15.8069 99.8124> 492 145<15.925 98.0227> 868 144<15.3511 98.0227>
LayerCount: 2
Fore
SplineSet
868 44 m 0
 868 87 907 129 954 129 c 0
 988 129 1012 105 1012 71 c 0
 1012 24 973 -14 929 -14 c 0
 891 -14 868 11 868 44 c 0
492 44 m 0
 492 87 531 129 578 129 c 0
 614 129 637 103 637 71 c 0
 637 24 595 -14 553 -14 c 0
 515 -14 492 11 492 44 c 0
112 45 m 0
 112 91 152 129 196 129 c 0
 234 129 256 103 256 71 c 0
 256 31 222 -14 171 -14 c 0
 137 -14 112 10 112 45 c 0
EndSplineSet
EndChar

StartChar: perthousand
Encoding: 8240 8240 315
Width: 1223
VWidth: 1533
Flags: W
HStem: -2 57<582.331 678.226 978.864 1076.51> 282 57<224.523 323.02> 350 56<627.767 724.159 1022.95 1121.37> 635 55<268.696 368.282>
VStem: 112 99<356.37 494.463> 381 98<471.57 615.633> 467 102<74.8036 218.44> 737 98<187.496 331.573> 865 101<72.5915 216.601> 1134 100<188.553 331.276>
LayerCount: 2
Fore
SplineSet
865 160 m 0xf9c0
 865 291 974 406 1085 406 c 256
 1173 406 1234 338 1234 243 c 0
 1234 117 1129 -2 1013 -2 c 256
 932 -2 865 63 865 160 c 0xf9c0
467 162 m 0xfbc0
 467 288 574 406 687 406 c 256
 777 406 835 335 835 242 c 0
 835 113 727 -2 615 -2 c 256
 528 -2 467 70 467 162 c 0xfbc0
230 -17 m 1
 138 -17 l 1
 714 705 l 1
 805 705 l 1
 230 -17 l 1
112 447 m 0
 112 572 219 690 331 690 c 256
 413 690 479 625 479 527 c 0xfdc0
 479 397 369 282 260 282 c 0
 165 282 112 360 112 447 c 0
1023 55 m 0
 1085 55 1109 110 1126 202 c 256
 1131 230 1134 255 1134 275 c 0
 1134 323 1118 350 1075 350 c 0
 1015 350 989 291 974 202 c 256
 969 175 966 151 966 130 c 0
 966 83 981 55 1023 55 c 0
626 55 m 0
 688 55 712 110 729 202 c 256
 734 230 737 255 737 275 c 0
 737 323 721 350 678 350 c 0
 612 350 589 277 576 202 c 256
 572 178 569 153 569 132 c 0xfbc0
 569 88 582 55 626 55 c 0
270 339 m 0
 332 339 356 393 373 486 c 256
 378 514 381 538 381 559 c 0xfdc0
 381 607 365 635 322 635 c 0
 260 635 235 576 219 486 c 256
 214 458 211 434 211 414 c 0
 211 366 227 339 270 339 c 0
EndSplineSet
EndChar

StartChar: minute
Encoding: 8242 8242 316
Width: 223
VWidth: 1533
Flags: W
HStem: 495 295
VStem: 112 232<495 751 495 495>
LayerCount: 2
Fore
SplineSet
300 790 m 0
 326 790 344 770 344 751 c 0
 344 726 322 699 314 688 c 2
 162 495 l 1
 112 495 l 1
 232 733 l 2
 260 787 286 790 300 790 c 0
EndSplineSet
EndChar

StartChar: second
Encoding: 8243 8243 317
Width: 371
VWidth: 1533
Flags: W
HStem: 495 295<292 309>
VStem: 118 371<495 751 495 495>
LayerCount: 2
Fore
SplineSet
446 790 m 0
 473 790 489 771 489 751 c 0
 489 726 472 704 460 688 c 2
 309 495 l 1
 257 495 l 1
 379 733 l 2
 410 788 433 790 446 790 c 0
305 790 m 0
 331 790 350 772 350 751 c 0
 350 729 336 712 320 688 c 2
 170 495 l 1
 118 495 l 1
 238 733 l 2
 269 788 292 790 305 790 c 0
EndSplineSet
EndChar

StartChar: guilsinglleft
Encoding: 8249 8249 318
Width: 326
VWidth: 1533
Flags: W
HStem: 72 391<215 283 283 283>
VStem: 68 318<267 463 267 267>
LayerCount: 2
Fore
SplineSet
215 72 m 1
 68 267 l 1
 283 463 l 1
 386 463 l 1
 171 267 l 1
 318 72 l 1
 215 72 l 1
EndSplineSet
EndChar

StartChar: guilsinglright
Encoding: 8250 8250 319
Width: 326
VWidth: 1533
Flags: W
HStem: 72 391<105 139 105 105>
VStem: 34 318<72 267 72 72>
LayerCount: 2
Fore
SplineSet
139 72 m 1
 34 72 l 1
 249 267 l 1
 105 463 l 1
 209 463 l 1
 352 267 l 1
 139 72 l 1
EndSplineSet
EndChar

StartChar: fraction
Encoding: 8260 8260 320
Width: 303
VWidth: 1533
Flags: W
HStem: -20 21G<-217 -118.179> 685 20G<413.124 510>
LayerCount: 2
Fore
SplineSet
-136 -20 m 1
 -217 -20 l 1
 431 705 l 1
 510 705 l 1
 -136 -20 l 1
EndSplineSet
EndChar

StartChar: Euro
Encoding: 8364 8364 321
Width: 783
VWidth: 1533
Flags: W
HStem: -18 50<400.351 565.671> 239 63<108 159 312 618> 386 65<135 175 348 690> 659 46<501.484 674.837>
LayerCount: 2
Fore
SplineSet
201 451 m 1
 272 603 422 705 602 705 c 0
 721 705 833 673 872 506 c 1
 733 506 l 1
 734 512 734 517 734 523 c 0
 734 603 680 659 596 659 c 0
 426 659 359 484 348 451 c 1
 735 451 l 1
 690 386 l 1
 327 386 l 1
 312 302 l 1
 662 302 l 1
 618 239 l 1
 312 239 l 1
 318 46 437 32 492 32 c 0
 561 32 648 95 693 192 c 1
 787 127 l 1
 744 80 651 -18 485 -18 c 0
 276 -18 168 103 160 239 c 1
 63 239 l 1
 108 302 l 1
 159 302 l 1
 167 344 l 2
 170 364 172 377 175 386 c 1
 89 386 l 1
 135 451 l 1
 201 451 l 1
EndSplineSet
EndChar

StartChar: uni2113
Encoding: 8467 8467 322
Width: 532
VWidth: 1533
Flags: W
HStem: -18 67<279.223 377.235> 698 50<364.436 424.427>
VStem: 130 127<69.2822 189.662> 433 93<569.101 694.691> 440 112<106.846 176>
LayerCount: 2
Fore
SplineSet
152 274 m 1xe8
 175 569 258 748 416 748 c 0
 492 748 526 699 526 635 c 0xf0
 526 623 524 611 522 598 c 0
 501 478 413 389 281 299 c 1
 262 190 l 2
 259 175 257 158 257 142 c 0
 257 95 273 49 326 49 c 0
 381 49 424 115 440 176 c 1
 552 156 l 1
 502 28 384 -18 287 -18 c 0
 165 -18 130 48 130 141 c 0
 130 165 132 191 136 218 c 1
 58 181 l 1
 46 215 l 1
 152 274 l 1xe8
295 380 m 1
 358 436 433 513 433 632 c 0
 433 669 422 698 401 698 c 0
 361 698 342 648 335 604 c 2
 295 380 l 1
EndSplineSet
EndChar

StartChar: trademark
Encoding: 8482 8482 323
Width: 1060
VWidth: 1533
Flags: W
HStem: 676 38<155 312 393 556>
LayerCount: 2
Fore
SplineSet
962 267 m 1
 1023 610 l 1
 777 259 l 1
 754 259 l 1
 634 615 l 1
 573 267 l 1
 524 267 l 1
 603 714 l 1
 692 714 l 1
 807 368 l 1
 1049 714 l 1
 1121 714 l 1
 1042 267 l 1
 962 267 l 1
393 676 m 1
 321 268 l 1
 240 268 l 1
 312 676 l 1
 148 676 l 1
 155 714 l 1
 563 714 l 1
 556 676 l 1
 393 676 l 1
EndSplineSet
EndChar

StartChar: Ohm
Encoding: 8486 8486 324
Width: 981
VWidth: 1533
Flags: W
HStem: 0 90<77 292 723 906> 645 62<497.804 705.55>
VStem: 159 155<235.737 409.867> 804 157<366.255 539.162>
LayerCount: 2
Fore
SplineSet
961 438 m 0
 961 368 939 230 723 90 c 1
 947 90 l 1
 906 0 l 1
 576 0 l 1
 562 38 l 1
 701 168 773 242 798 388 c 256
 802 409 804 430 804 450 c 0
 804 563 740 645 606 645 c 0
 421 645 314 490 314 313 c 0
 314 181 384 112 435 38 c 1
 406 0 l 1
 77 0 l 1
 68 90 l 1
 292 90 l 1
 216 153 159 239 159 338 c 0
 159 353 160 368 163 383 c 0
 202 604 429 707 617 707 c 0
 787 707 961 620 961 438 c 0
EndSplineSet
EndChar

StartChar: estimated
Encoding: 8494 8494 325
Width: 576
VWidth: 1533
Flags: W
HStem: -18 59<252.609 378.529> 342 60<252 491> 543 58<330.175 447.277>
VStem: 76 129<116.481 340.64> 478 115<137.015 230> 491 129<402 489.187>
LayerCount: 2
Fore
SplineSet
221 342 m 1xf4
 221 328 205 272 205 202 c 0
 205 66 269 41 318 41 c 0
 394 41 455 140 478 230 c 1
 593 230 l 1xf8
 560 81 436 -18 308 -18 c 0
 153 -18 76 97 76 226 c 0
 76 376 192 601 407 601 c 0
 550 601 620 510 620 381 c 0
 620 368 619 355 618 342 c 1
 221 342 l 1xf4
491 402 m 1xf4
 491 471 466 543 390 543 c 0
 322 543 272 465 252 402 c 1
 491 402 l 1xf4
EndSplineSet
EndChar

StartChar: partialdiff
Encoding: 8706 8706 326
Width: 693
VWidth: 1533
Flags: W
HStem: -18 66<258.171 378.652> 396 70<341.38 496.92> 616 21G<215.879 320> 716 67<383.228 530.356>
VStem: 86 145<76.307 217.112> 590 130<445.205 605.955>
LayerCount: 2
Fore
SplineSet
575 411 m 1
 579 422 590 483 590 531 c 0
 590 642 546 716 468 716 c 0
 403 716 352 686 288 616 c 1
 169 649 l 1
 267 776 403 783 449 783 c 0
 638 783 720 634 720 479 c 0
 720 290 575 -18 301 -18 c 0
 166 -18 86 51 86 167 c 0
 86 368 283 466 425 466 c 0
 489 466 540 443 575 411 c 1
234 181 m 0
 232 171 231 160 231 149 c 0
 231 103 248 48 316 48 c 0
 423 48 507 203 543 322 c 1
 524 355 487 396 432 396 c 0
 336 396 262 342 234 181 c 0
EndSplineSet
EndChar

StartChar: Delta
Encoding: 8710 8710 327
Width: 696
VWidth: 1533
Flags: W
HStem: 0 63<98 529>
LayerCount: 2
Fore
SplineSet
-11 0 m 1
 464 776 l 1
 716 0 l 1
 -11 0 l 1
384 543 m 1
 98 63 l 1
 529 63 l 1
 384 543 l 1
EndSplineSet
EndChar

StartChar: product
Encoding: 8719 8719 328
Width: 728
VWidth: 1533
Flags: W
HStem: 642 63<317 637>
LayerCount: 2
Fore
SplineSet
509 -86 m 1
 637 642 l 1
 317 642 l 1
 189 -86 l 1
 51 -86 l 1
 190 705 l 1
 786 705 l 1
 647 -86 l 1
 509 -86 l 1
EndSplineSet
EndChar

StartChar: summation
Encoding: 8721 8721 329
Width: 717
VWidth: 1533
Flags: W
HStem: -87 105<175 624> 641 63<331 760>
LayerCount: 2
Fore
SplineSet
624 -87 m 1
 14 -87 l 1
 23 -34 l 1
 348 297 l 1
 152 650 l 1
 161 704 l 1
 766 704 l 1
 760 641 l 1
 331 641 l 1
 498 343 l 1
 175 18 l 1
 678 18 l 1
 624 -87 l 1
EndSplineSet
EndChar

StartChar: minus
Encoding: 8722 8722 330
Width: 706
VWidth: 1533
Flags: W
HStem: 259 65<103 707>
LayerCount: 2
Fore
SplineSet
92 259 m 1
 103 324 l 1
 718 324 l 1
 707 259 l 1
 92 259 l 1
EndSplineSet
EndChar

StartChar: radical
Encoding: 8730 8730 331
Width: 691
VWidth: 1533
Flags: W
LayerCount: 2
Fore
SplineSet
454 -130 m 1
 398 -158 l 1
 229 403 l 1
 117 353 l 1
 100 403 l 1
 334 509 l 1
 465 57 l 1
 774 918 l 1
 837 902 l 1
 454 -130 l 1
EndSplineSet
EndChar

StartChar: infinity
Encoding: 8734 8734 332
Width: 1048
VWidth: 1533
Flags: W
HStem: 213 72<272.652 408.526 738.448 885.106> 521 74<308.043 447.347 785.724 919.941>
VStem: 99 137<321.901 452.669> 955 138<354.367 485.36>
LayerCount: 2
Fore
SplineSet
1093 443 m 0
 1093 282 935 213 814 213 c 0
 763 213 684 231 583 340 c 1
 548 312 423 213 306 213 c 0
 204 213 99 261 99 370 c 0
 99 505 227 595 378 595 c 0
 467 595 545 533 605 460 c 1
 672 515 781 595 882 595 c 0
 980 595 1093 564 1093 443 c 0
817 285 m 0
 880 285 955 341 955 426 c 0
 955 491 902 521 854 521 c 0
 780 521 687 445 647 400 c 1
 680 345 741 285 817 285 c 0
379 521 m 0
 311 521 236 463 236 384 c 0
 236 328 279 285 332 285 c 0
 408 285 489 343 543 402 c 1
 527 423 464 521 379 521 c 0
EndSplineSet
EndChar

StartChar: integral
Encoding: 8747 8747 333
Width: 473
VWidth: 1533
Flags: W
HStem: -210 66<66.4263 152.832> 730 21G<508.5 554.128> 808 64<434.53 501.942>
LayerCount: 2
Fore
SplineSet
253 495 m 0
 287 684 357 872 507 872 c 0
 531 872 570 867 611 777 c 1
 512 730 l 1
 505 799 471 808 458 808 c 0
 439 808 423 786 403 676 c 0
 363 448 377 381 335 140 c 0
 312 14 244 -210 84 -210 c 0
 36 -210 2 -174 -20 -113 c 1
 77 -66 l 1
 81 -104 102 -144 128 -144 c 0
 150 -144 170 -105 194 26 c 0
 232 243 215 278 253 495 c 0
EndSplineSet
EndChar

StartChar: approxequal
Encoding: 8776 8776 334
Width: 682
VWidth: 1533
Flags: W
HStem: 115 77<426.074 563.894> 192 78<185.197 332.684> 299 78<459.511 596.201> 377 77<218.15 366.246>
LayerCount: 2
Fore
SplineSet
105 348 m 1
 159 413 233 454 305 454 c 0
 409 454 456 377 529 377 c 0
 572 377 616 404 662 458 c 1
 710 403 l 1
 616 307 555 299 521 299 c 0
 413 299 380 377 285 377 c 0
 228 377 180 329 153 297 c 1
 105 348 l 1
278 270 m 0
 377 270 418 192 497 192 c 0
 540 192 584 219 629 274 c 1
 678 221 l 1
 584 123 522 115 488 115 c 0
 382 115 345 192 253 192 c 0
 209 192 165 165 121 112 c 1
 73 163 l 1
 96 191 166 270 278 270 c 0
EndSplineSet
EndChar

StartChar: notequal
Encoding: 8800 8800 335
Width: 702
VWidth: 1533
Flags: W
HStem: -2 21G<221 273.741> 133 79<95 262 397 667> 353 78<134 404 537 706>
LayerCount: 2
Fore
SplineSet
347 133 m 1
 261 -2 l 1
 195 31 l 1
 262 133 l 1
 81 133 l 1
 95 212 l 1
 311 212 l 1
 404 353 l 1
 120 353 l 1
 134 431 l 1
 453 431 l 1
 536 561 l 1
 600 529 l 1
 537 431 l 1
 720 431 l 1
 706 353 l 1
 488 353 l 1
 397 212 l 1
 681 212 l 1
 667 133 l 1
 347 133 l 1
EndSplineSet
EndChar

StartChar: lessequal
Encoding: 8804 8804 336
Width: 659
VWidth: 1533
Flags: W
HStem: 0 72<34 638>
LayerCount: 2
Fore
SplineSet
234 370 m 1
 649 186 l 1
 632 92 l 1
 100 336 l 1
 112 405 l 1
 732 649 l 1
 716 553 l 1
 234 370 l 1
21 0 m 1
 34 72 l 1
 651 72 l 1
 638 0 l 1
 21 0 l 1
EndSplineSet
EndChar

StartChar: greaterequal
Encoding: 8805 8805 337
Width: 659
VWidth: 1533
Flags: W
HStem: 0 72<34 638>
LayerCount: 2
Fore
SplineSet
59 92 m 1
 76 186 l 1
 556 370 l 1
 139 553 l 1
 155 649 l 1
 689 405 l 1
 677 336 l 1
 59 92 l 1
21 0 m 1
 34 72 l 1
 651 72 l 1
 638 0 l 1
 21 0 l 1
EndSplineSet
EndChar

StartChar: lozenge
Encoding: 9674 9674 338
Width: 703
VWidth: 1533
Flags: W
LayerCount: 2
Fore
SplineSet
386 -81 m 1
 291 -81 l 1
 103 333 l 1
 439 751 l 1
 532 751 l 1
 718 333 l 1
 386 -81 l 1
465 644 m 1
 220 337 l 1
 355 23 l 1
 602 337 l 1
 465 644 l 1
EndSplineSet
EndChar

StartChar: dottedcircle
Encoding: 9676 9676 339
Width: 625
VWidth: 1533
Flags: W
HStem: 35 57<295.583 348.039> 57 55<202.417 254.552 401.513 451.094> 110 57<128.795 181.415 490.576 542.717> 195 56<88.417 141.05 560.417 614.256> 293 57<85.1665 138.327 599.836 652.751> 389 57<122.928 175.026 595.217 647.947> 475 55<192.685 246.344 552.666 607.486> 530 56<285.549 337.885 482.72 533.815> 549 57<387.124 439.84>
VStem: 86 57<212.609 231.801 296.886 346.926> 126 58<129.025 145.884 409.703 428.391> 293 58<38.4632 89.1094> 384 58<551.929 603.165> 597 58<305.062 344.965 410.052 427.686>
LayerCount: 2
Fore
SplineSet
609 509 m 0x1e1c
 609 494 603 475 578 475 c 0
 560 475 550 481 550 494 c 0
 550 504 555 530 587 530 c 0
 601 530 609 523 609 509 c 0x1e1c
536 566 m 0
 536 552 530 530 504 530 c 0
 488 530 480 537 480 550 c 0
 480 562 487 586 514 586 c 0x1e1c
 528 586 536 579 536 566 c 0
651 427 m 0
 651 414 644 389 616 389 c 0
 601 389 593 396 593 410 c 0
 593 426 600 446 628 446 c 0
 643 446 651 439 651 427 c 0
340 566 m 0
 340 551 334 530 306 530 c 256
 291 530 283 537 283 550 c 0
 283 563 290 586 316 586 c 256x1e1c
 332 586 340 579 340 566 c 0
616 229 m 0
 616 214 609 195 581 195 c 0
 566 195 558 202 558 215 c 0
 558 229 565 251 591 251 c 0
 607 251 616 244 616 229 c 0
248 509 m 0
 248 493 241 475 214 475 c 0
 198 475 190 481 190 494 c 0
 190 506 197 530 223 530 c 0
 239 530 248 523 248 509 c 0
545 147 m 0
 545 137 542 110 513 110 c 0
 497 110 488 117 488 131 c 0
 488 144 495 167 523 167 c 0x3e1c
 537 167 545 160 545 147 c 0
453 91 m 0
 453 77 446 57 421 57 c 256
 407 57 399 64 399 76 c 0
 399 89 406 112 431 112 c 256x5e1c
 445 112 453 105 453 91 c 0
178 427 m 0
 178 415 172 389 146 389 c 0
 130 389 121 396 121 411 c 0
 121 427 128 446 154 446 c 256
 170 446 178 439 178 427 c 0
143 230 m 0x1e5c
 143 214 136 195 109 195 c 256
 94 195 86 202 86 215 c 0
 86 229 93 251 119 251 c 256
 135 251 143 244 143 230 c 0x1e5c
257 93 m 0
 257 79 250 57 223 57 c 256
 208 57 200 64 200 76 c 0
 200 90 207 112 233 112 c 256x5e1c
 249 112 257 105 257 93 c 0
184 146 m 0x3e3c
 184 135 179 110 149 110 c 0
 134 110 126 117 126 130 c 0
 126 143 133 167 159 167 c 0
 175 167 184 160 184 146 c 0x3e3c
442 581 m 0
 442 562 422 549 408 549 c 256
 397 549 384 559 384 572 c 0
 384 587 400 606 418 606 c 256x1e9c
 431 606 442 596 442 581 c 0
327 92 m 256x9e1c
 340 92 351 82 351 68 c 0
 351 51 331 35 317 35 c 256
 303 35 293 49 293 60 c 0
 293 75 310 92 327 92 c 256x9e1c
655 326 m 0
 655 306 635 293 622 293 c 0
 606 293 597 306 597 317 c 0
 597 330 611 350 632 350 c 0
 645 350 655 340 655 326 c 0
141 327 m 0
 141 307 121 293 107 293 c 256
 92 293 82 307 82 317 c 0
 82 329 96 350 117 350 c 256
 130 350 141 341 141 327 c 0
EndSplineSet
EndChar

StartChar: uni0E10.alt1
Encoding: 63232 63232 340
Width: 665
VWidth: 1533
Flags: W
HStem: 0 21G<447.169 574> 95 45<182.604 303.129> 333 44<208.051 328.582> 397 49<231 547> 498 59<478.155 579.011> 558 63<295.099 430.898>
VStem: 101 56<164.709 281.01>
LayerCount: 2
Fore
SplineSet
101 211 m 0
 101 295 179 377 276 377 c 0
 369 377 400 323 415 285 c 2
 476 126 l 1
 486 209 531 308 547 397 c 1
 78 397 l 1
 101 526 191 621 328 621 c 256
 448 621 466 557 530 557 c 0
 559 557 591 578 597 613 c 1
 738 613 l 1
 703 505 598 498 565 498 c 0
 475 498 444 558 365 558 c 0
 288 558 239 495 231 446 c 1
 682 446 l 1
 679 429 l 2
 654 292 578 94 570 0 c 1
 455 0 l 1
 381 189 l 1
 352 129 282 95 227 95 c 0
 150 95 101 146 101 211 c 0
237 140 m 0
 304 140 353 201 353 251 c 0
 353 295 322 333 272 333 c 0
 210 333 157 276 157 219 c 0
 157 174 192 140 237 140 c 0
EndSplineSet
EndChar

StartChar: uni0E48.alt2
Encoding: 63242 63242 350
Width: 0
VWidth: 1533
Flags: W
HStem: 690 236<-21 61 -62 102 -21 -21>
LayerCount: 2
Fore
SplineSet
-62 690 m 1
 -21 926 l 1
 102 926 l 1
 61 690 l 1
 -62 690 l 1
EndSplineSet
Substitution2: "Single Substitution lookup 20 subtable" uni0E48.alt3
Substitution2: "Single Substitution lookup 21 subtable" uni0E48
Substitution2: "Single Substitution lookup 22 subtable" uni0E48.alt1
Substitution2: "Single Substitution lookup 20 subtable" uni0E48.alt3
Substitution2: "Single Substitution lookup 21 subtable" uni0E48
Substitution2: "Single Substitution lookup 22 subtable" uni0E48.alt1
EndChar

StartChar: uni0E49.alt2
Encoding: 63243 63243 351
Width: 0
VWidth: 1533
Flags: W
HStem: 782 46<-211.101 -152.803> 925 46<-201.184 -113.568>
VStem: -268 51<834.61 909.177> -109 58<842.584 919.791>
LayerCount: 2
Fore
SplineSet
-268 857 m 0
 -268 904 -225 971 -143 971 c 256
 -88 971 -51 938 -51 886 c 0
 -51 836 -82 790 -108 762 c 1
 -40 792 39 865 63 944 c 1
 186 944 l 1
 139 821 -31 702 -243 690 c 1
 -215 712 -168 754 -152 785 c 1
 -160 783 -169 782 -178 782 c 0
 -232 782 -268 811 -268 857 c 0
-153 925 m 0
 -194 925 -217 891 -217 869 c 0
 -217 846 -197 828 -170 828 c 0
 -140 828 -109 852 -109 885 c 0
 -109 910 -127 925 -153 925 c 0
EndSplineSet
Substitution2: "Single Substitution lookup 20 subtable" uni0E49.alt3
Substitution2: "Single Substitution lookup 21 subtable" uni0E49
Substitution2: "Single Substitution lookup 22 subtable" uni0E49.alt1
Substitution2: "Single Substitution lookup 20 subtable" uni0E49.alt3
Substitution2: "Single Substitution lookup 21 subtable" uni0E49
Substitution2: "Single Substitution lookup 22 subtable" uni0E49.alt1
EndChar

StartChar: uni0E4A.alt2
Encoding: 63244 63244 352
Width: 0
VWidth: 1533
Flags: W
HStem: 691 46<-372.089 -289.265 -73 -19.7213> 829 45<-350.626 -282.498> 909 46<-342.271 -228.541 -179.556 -102.241>
VStem: -464 90<741.214 816.646> -278 49<750.9 824.094> -113 97<785.512 898.631>
LayerCount: 2
Fore
SplineSet
-16 863 m 0
 -16 815 -35 779 -73 744 c 1
 -46 744 5 759 19 839 c 0
 34 922 44 937 64 951 c 1
 163 951 l 1
 146 941 128 926 112 836 c 0
 93 726 -7 698 -84 698 c 2
 -145 698 l 1
 -169 721 l 1
 -115 763 -113 848 -113 848 c 1
 -113 882 -133 909 -164 909 c 0
 -179 909 -197 906 -218 880 c 1
 -224 880 l 1
 -228 890 -245 909 -283 909 c 0
 -328 909 -355 882 -363 862 c 1
 -342 871 -330 874 -309 874 c 0
 -254 874 -229 835 -229 797 c 0
 -229 744 -282 691 -352 691 c 0
 -409 691 -464 727 -464 799 c 0
 -464 873 -401 955 -286 955 c 0
 -248 955 -225 943 -213 925 c 1
 -178 951 -149 955 -125 955 c 0
 -80 955 -16 936 -16 863 c 0
-319 829 m 0
 -349 829 -374 803 -374 774 c 0
 -374 752 -357 737 -335 737 c 0
 -310 737 -278 760 -278 791 c 0
 -278 814 -297 829 -319 829 c 0
EndSplineSet
Substitution2: "Single Substitution lookup 20 subtable" uni0E4A.alt3
Substitution2: "Single Substitution lookup 21 subtable" uni0E4A
Substitution2: "Single Substitution lookup 22 subtable" uni0E4A.alt1
Substitution2: "Single Substitution lookup 20 subtable" uni0E4A.alt3
Substitution2: "Single Substitution lookup 21 subtable" uni0E4A
Substitution2: "Single Substitution lookup 22 subtable" uni0E4A.alt1
EndChar

StartChar: uni0E4B.alt2
Encoding: 63245 63245 353
Width: 0
VWidth: 1533
Flags: W
HStem: 690 274<-132 -57 -132 -57 -132 -132> 797 60<-269 -161 -28 80 -279 90 -269 -269>
LayerCount: 2
Fore
SplineSet
-38 797 m 1x40
 -57 690 l 1
 -180 690 l 1x80
 -161 797 l 1
 -279 797 l 1
 -269 857 l 1
 -151 857 l 1x40
 -132 964 l 1
 -9 964 l 1x80
 -28 857 l 1
 90 857 l 1
 80 797 l 1
 -38 797 l 1x40
EndSplineSet
Substitution2: "Single Substitution lookup 20 subtable" uni0E4B.alt3
Substitution2: "Single Substitution lookup 21 subtable" uni0E4B
Substitution2: "Single Substitution lookup 22 subtable" uni0E4B.alt1
Substitution2: "Single Substitution lookup 20 subtable" uni0E4B.alt3
Substitution2: "Single Substitution lookup 21 subtable" uni0E4B
Substitution2: "Single Substitution lookup 22 subtable" uni0E4B.alt1
EndChar

StartChar: uni0E4C.alt2
Encoding: 63246 63246 354
Width: 0
VWidth: 1533
Flags: W
HStem: 690 47<-114.326 -25.418>
VStem: -183 60<744.308 834.372> -3 53<758.735 847.691>
LayerCount: 2
Fore
SplineSet
50 811 m 0
 50 769 9 690 -83 690 c 0
 -154 690 -183 737 -183 781 c 0
 -183 831 -152 890 -51 918 c 2
 -13 929 l 2
 62 951 71 989 74 1004 c 1
 178 981 l 1
 168 924 73 895 9 886 c 1
 40 872 50 836 50 811 c 0
-54 856 m 0
 -92 856 -123 819 -123 786 c 0
 -123 760 -106 737 -75 737 c 0
 -39 737 -3 767 -3 807 c 0
 -3 833 -22 856 -54 856 c 0
EndSplineSet
Substitution2: "Single Substitution lookup 20 subtable" uni0E4C.alt3
Substitution2: "Single Substitution lookup 21 subtable" uni0E4C
Substitution2: "Single Substitution lookup 22 subtable" uni0E4C.alt1
Substitution2: "Single Substitution lookup 20 subtable" uni0E4C.alt3
Substitution2: "Single Substitution lookup 21 subtable" uni0E4C
Substitution2: "Single Substitution lookup 22 subtable" uni0E4C.alt1
EndChar

StartChar: uni0E0D.alt1
Encoding: 63247 63247 355
Width: 1085
VWidth: 1533
Flags: W
HStem: -8 56<213.961 326.311> 0 61<667 896> 222 56<260.916 349.049> 570 54<353.744 555.991>
VStem: 101 92<68.6942 167.269> 370 56<92.0151 200.77> 610 119<409.243 414 414 432.523 432.523 442.023 437.273 519.23>
LayerCount: 2
Fore
SplineSet
426 157 m 0x7e
 426 84 361 -8 244 -8 c 0xbe
 152 -8 101 40 101 120 c 0
 101 132 103 145 105 159 c 2
 124 268 l 2
 133 316 184 370 254 380 c 1
 108 380 l 1
 151 544 304 624 467 624 c 0
 575 624 732 588 732 451 c 0
 732 439 731 427 729 414 c 2
 667 61 l 1
 896 61 l 1
 993 613 l 1
 1115 613 l 1
 1007 0 l 1
 534 0 l 1
 610 429 l 2
 612 438 612 447 612 455 c 0
 612 532 548 570 458 570 c 256
 359 570 264 519 246 422 c 1
 342 422 l 1
 335 382 l 1
 286 365 257 331 249 282 c 2
 246 265 l 1
 266 274 287 278 307 278 c 256
 381 278 426 220 426 157 c 0x7e
297 222 m 256
 237 222 193 168 193 120 c 0
 193 81 221 48 266 48 c 256
 315 48 370 93 370 150 c 0
 370 192 337 222 297 222 c 256
EndSplineSet
EndChar

StartChar: uni0E0E.alt1
Encoding: 63259 63259 367
Width: 873
VWidth: 1533
Flags: W
HStem: -270 57<204.699 324.766> -115 66<533.425 597.951> -103 62<207.789 390.435> -8 56<113.526 225.48> 222 52<136.525 249.729> 570 54<492.795 696.281>
VStem: 37 57<68.7001 178.316> 70 110<-201.735 -130.281> 749 120<409.252 414 414 432 432 442.5 437.25 519.528>
LayerCount: 2
Fore
SplineSet
37 110 m 0xde80
 37 193 113 274 206 274 c 0
 235 274 253 271 263 267 c 1
 266 281 l 2
 275 335 342 368 394 380 c 1
 248 380 l 1
 291 544 444 624 607 624 c 0
 731 624 872 578 872 450 c 0
 872 438 871 426 869 414 c 2
 750 -261 l 1
 619 -261 l 1
 576 -231 534 -201 472 -167 c 1
 415 -198 347 -270 222 -270 c 0
 144 -270 70 -242 70 -179 c 0
 70 -94 180 -41 287 -41 c 0xbd80
 363 -41 395 -52 476 -90 c 1
 503 -76 541 -61 621 -49 c 1
 610 -115 l 1
 596 -116 546 -129 546 -129 c 1
 604 -158 633 -181 640 -186 c 1
 749 429 l 2
 751 438 751 447 751 456 c 0
 751 532 688 570 598 570 c 256
 496 570 402 517 385 422 c 1
 482 422 l 1
 475 382 l 1
 426 365 397 331 389 282 c 2
 368 163 l 2
 349 54 267 -8 165 -8 c 0
 75 -8 37 51 37 110 c 0xde80
197 222 m 256
 138 222 94 167 94 119 c 0x9e80
 94 78 126 48 166 48 c 256
 215 48 270 93 270 150 c 0
 270 192 237 222 197 222 c 256
281 -103 m 0xbd80
 220 -103 180 -137 180 -171 c 0
 180 -204 224 -213 247 -213 c 0
 282 -213 320 -205 411 -135 c 1
 377 -115 333 -103 281 -103 c 0xbd80
EndSplineSet
EndChar

StartChar: uni0E0F.alt1
Encoding: 63260 63260 368
Width: 873
VWidth: 1533
Flags: W
HStem: -279 60<97.1322 218.642> -104 60<102.809 263.75> -8 56<113.526 225.48> 222 52<136.525 249.729> 570 54<492.795 696.281>
VStem: -17 91<-208.866 -130.575> 37 57<68.7001 178.316> 749 120<409.308 414 414 432 432 442.5 437.25 521.977>
LayerCount: 2
Fore
SplineSet
37 110 m 0xfb
 37 193 113 274 206 274 c 0
 235 274 253 271 263 267 c 1
 266 281 l 2
 275 335 342 368 394 380 c 1
 248 380 l 1
 291 544 444 624 607 624 c 0
 731 624 872 578 872 450 c 0
 872 438 871 426 869 414 c 2
 750 -261 l 1
 624 -261 l 1
 542 -172 l 1
 418 -273 l 1
 378 -218 352 -198 336 -179 c 1
 284 -221 218 -279 121 -279 c 0
 73 -279 -17 -260 -17 -186 c 0xfd
 -17 -101 77 -44 188 -44 c 0
 241 -44 294 -58 349 -92 c 1
 388 -64 414 -52 458 -43 c 1
 447 -110 l 1
 432 -113 398 -130 397 -130 c 1
 413 -147 430 -162 441 -175 c 1
 557 -86 l 1
 642 -173 l 1
 749 429 l 2
 751 438 751 447 751 456 c 0
 751 533 688 570 598 570 c 256
 496 570 402 517 385 422 c 1
 482 422 l 1
 475 382 l 1
 426 365 397 331 389 282 c 2
 368 163 l 2
 349 54 267 -8 165 -8 c 0
 75 -8 37 51 37 110 c 0xfb
197 222 m 256
 138 222 94 167 94 119 c 0xfb
 94 78 126 48 166 48 c 256
 215 48 270 93 270 150 c 0
 270 192 237 222 197 222 c 256
175 -104 m 256
 137 -104 74 -123 74 -176 c 0xfd
 74 -211 115 -219 140 -219 c 0
 191 -219 220 -202 294 -144 c 1
 260 -120 225 -104 175 -104 c 256
EndSplineSet
EndChar

StartChar: uni0E2C.alt1
Encoding: 63261 63261 369
Width: 910
VWidth: 1533
Flags: MW
HStem: 0 21G<216 362.563 681.408 822.54> 284 112<568 588> 339 55<175.022 263.376> 402 59<637.536 756.92> 569 55<204.116 306.083 651.493 769.743>
VStem: 98 57<413.758 524.786> 331 93<448.772 549.039> 540 85<474.274 547.339>
LayerCount: 2
Fore
SplineSet
540 496 m 0
 540 548 600 624 737 624 c 0
 814 624 903 598 904 515 c 1
 918 522 949 539 974 560 c 1
 1014 500 l 1
 959 461 920 445 896 435 c 1
 819 0 l 1
 690 0 l 1
 568 284 l 1
 347 0 l 1
 216 0 l 1
 278 351 l 1
 257 343 237 339 218 339 c 256
 148 339 98 391 98 457 c 0
 98 530 160 624 280 624 c 0
 372 624 424 576 424 495 c 0
 424 483 422 470 420 457 c 2
 358 109 l 1
 588 396 l 1xdf
 715 109 l 1
 767 405 l 1
 752 402 735 402 718 402 c 0
 633 402 540 426 540 496 c 0
711 572 m 0
 675 572 625 546 625 508 c 0
 625 484 652 461 699 461 c 0
 714 461 747 462 778 471 c 1
 783 497 l 2
 784 502 784 507 784 511 c 0
 784 550 755 572 711 572 c 0
258 569 m 256
 207 569 155 522 155 465 c 0
 155 424 187 394 227 394 c 256xbf
 277 394 331 439 331 497 c 0
 331 539 299 569 258 569 c 256
EndSplineSet
EndChar

StartChar: uni0E4F.liga
Encoding: 63616 63616 370
Width: 781
VWidth: 1533
Flags: W
HStem: -8 46<297.986 503.576> 88 50<339.244 502.961> 474 50<397.859 554.512> 575 46<385.67 589.97> 716 21G<425 473.5 595 643.5>
VStem: 126 47<163.356 365.451> 227 46<201.967 359.663> 442 80<972.763 1026.78> 612 80<972.763 1026.78> 616 46<254.422 412.856> 717 47<251.908 448.832>
LayerCount: 2
Fore
SplineSet
522 999 m 0xff20
 522 980 505 882 442 716 c 1
 425 716 l 1
 425 744 l 2
 425 827 426 897 442 987 c 0
 446 1008 459 1036 491 1036 c 256
 515 1036 522 1018 522 999 c 0xff20
126 252 m 0
 126 444 303 621 500 621 c 256
 653 621 764 511 764 362 c 0
 764 164 580 -8 390 -8 c 256
 239 -8 126 101 126 252 c 0
492 575 m 256
 329 575 173 426 173 260 c 0
 173 131 270 38 398 38 c 0
 564 38 717 191 717 353 c 0
 717 478 623 575 492 575 c 256
227 273 m 0
 227 411 370 524 490 524 c 0
 597 524 662 429 662 338 c 0xff60
 662 225 539 88 418 88 c 0
 323 88 227 163 227 273 c 0
418 138 m 0
 528 138 616 241 616 336 c 0
 616 410 566 474 479 474 c 0
 383 474 273 390 273 278 c 0
 273 193 342 138 418 138 c 0
692 999 m 0xffa0
 692 980 675 882 612 716 c 1
 595 716 l 1
 595 744 l 2
 595 827 596 897 612 987 c 0
 616 1008 629 1036 661 1036 c 256
 685 1036 692 1018 692 999 c 0xffa0
EndSplineSet
LCarets2: 1 0 
Ligature2: "'liga' Standard Ligatures in Latin lookup 19 subtable" uni0E4F quotedbl
EndChar

StartChar: uni0E24.liga
Encoding: 63617 63617 371
Width: 1126
VWidth: 1533
Flags: W
HStem: -199 21G<514 640.524 893 1018.54> -8 56<230.03 340.062> 222 56<277.802 364.049> 570 54<367.877 573.489 792.928 950.661>
VStem: 116 93<68.9016 167.088> 385 56<90.7044 200.77> 625 120<409.198 414 414 431.023 431.023 442.5 436.762 501.072> 1003 118<406.114 415.562 415.562 439 427.281 519.234>
LayerCount: 2
Fore
SplineSet
312 222 m 256
 253 222 209 167 209 119 c 0
 209 78 241 48 281 48 c 256
 330 48 385 93 385 150 c 0
 385 192 352 222 312 222 c 256
441 157 m 0
 441 86 379 -8 260 -8 c 0
 168 -8 116 40 116 121 c 0
 116 133 118 146 120 159 c 2
 139 268 l 2
 148 316 199 370 269 380 c 1
 124 380 l 1
 163 538 314 624 483 624 c 256
 614 624 677 579 692 567 c 1
 729 595 807 624 872 624 c 0
 989 624 1125 587 1125 445 c 0
 1125 431 1124 416 1121 400 c 2
 1015 -199 l 1
 893 -199 l 1
 1003 426 l 2
 1005 435 1005 443 1005 452 c 0
 1005 515 962 570 863 570 c 0
 843 570 765 564 723 530 c 1
 740 506 748 479 748 448 c 0
 748 437 747 426 745 414 c 2
 637 -199 l 1
 514 -199 l 1
 625 429 l 2
 627 438 627 447 627 456 c 0
 627 532 564 570 474 570 c 256
 374 570 279 519 261 422 c 1
 358 422 l 1
 351 382 l 1
 302 365 273 331 265 282 c 2
 262 265 l 1
 282 274 303 278 322 278 c 256
 396 278 441 220 441 157 c 0
EndSplineSet
LCarets2: 1 0 
Ligature2: "'liga' Standard Ligatures in Latin lookup 19 subtable" uni0E24 uni0E45
Ligature2: "'liga' Standard Ligatures in Latin lookup 19 subtable" uni0E24 uni0E32
EndChar

